{"glyphs":{"0":{"ha":559,"x_min":41,"x_max":519,"o":"m 41 366 q 79 584 41 492 q 180 720 117 675 q 281 755 229 755 q 435 669 367 755 q 519 377 519 562 q 482 158 519 248 q 387 28 445 68 q 276 -13 330 -13 q 100 112 170 -13 q 41 366 41 217 m 147 352 q 185 102 147 199 q 278 21 216 21 q 339 47 307 21 q 387 136 371 74 q 412 401 412 231 q 386 612 412 528 q 335 701 366 675 q 281 720 313 720 q 215 686 244 720 q 161 544 176 641 q 147 352 147 446 z "},"1":{"ha":559,"x_min":131,"x_max":422,"o":"m 131 668 l 311 755 l 329 755 l 329 130 q 334 53 329 68 q 356 30 340 38 q 422 20 372 21 l 422 0 l 144 0 l 144 20 q 212 29 197 21 q 233 51 227 37 q 239 130 239 64 l 239 530 q 234 634 239 611 q 220 660 230 651 q 195 668 210 668 q 139 651 175 668 l 131 668 z "},"2":{"ha":559,"x_min":24,"x_max":513,"o":"m 513 142 l 460 0 l 24 0 l 24 20 q 295 307 217 196 q 374 511 374 418 q 331 627 374 581 q 228 672 288 672 q 130 640 173 672 q 66 547 86 608 l 45 547 q 116 702 59 648 q 256 755 172 755 q 407 697 347 755 q 467 562 467 640 q 441 449 467 505 q 310 262 401 360 q 140 83 174 113 l 334 83 q 416 87 393 83 q 459 104 440 91 q 492 142 478 118 l 513 142 z "},"3":{"ha":559,"x_min":45,"x_max":466,"o":"m 57 600 q 137 715 88 674 q 257 755 185 755 q 393 698 346 755 q 430 606 430 654 q 328 438 430 525 q 431 362 396 412 q 466 245 466 312 q 405 79 466 149 q 174 -13 326 -13 q 73 5 100 -13 q 45 45 45 24 q 58 73 45 61 q 89 85 71 85 q 117 81 102 85 q 159 61 126 78 q 204 41 192 43 q 248 35 224 35 q 344 78 303 35 q 385 180 385 121 q 366 264 385 222 q 335 310 352 294 q 271 350 312 332 q 187 368 230 368 l 170 368 l 170 384 q 256 415 213 389 q 319 477 300 441 q 339 555 339 513 q 304 647 339 612 q 216 682 269 682 q 75 591 132 682 l 57 600 z "},"4":{"ha":559,"x_min":18,"x_max":520,"o":"m 520 273 l 520 195 l 421 195 l 421 0 l 331 0 l 331 195 l 18 195 l 18 265 l 361 755 l 421 755 l 421 273 l 520 273 m 331 273 l 331 640 l 71 273 l 331 273 z "},"5":{"ha":559,"x_min":54,"x_max":486,"o":"m 486 741 l 443 648 l 220 648 l 172 548 q 401 441 316 527 q 473 266 473 366 q 450 158 473 208 q 390 73 426 108 q 309 17 354 38 q 180 -13 247 -13 q 84 9 114 -13 q 54 60 54 32 q 66 86 54 75 q 98 98 79 98 q 122 94 112 98 q 159 71 133 90 q 242 43 200 43 q 354 92 306 43 q 402 209 402 140 q 359 334 402 276 q 240 424 316 393 q 78 452 180 449 l 220 741 l 486 741 z "},"6":{"ha":559,"x_min":48,"x_max":516,"o":"m 501 755 l 501 735 q 384 707 429 728 q 293 641 338 685 q 220 543 249 597 q 171 413 191 488 q 329 467 250 467 q 460 406 405 467 q 516 249 516 345 q 460 80 516 156 q 281 -13 392 -13 q 152 37 205 -13 q 48 290 48 135 q 88 479 48 390 q 202 638 127 569 q 343 731 276 707 q 469 755 411 755 l 501 755 m 161 374 q 152 254 152 300 q 171 141 152 202 q 229 43 191 79 q 296 18 256 18 q 381 62 344 18 q 418 190 418 107 q 381 352 418 283 q 276 420 345 420 q 232 411 256 420 q 161 374 208 402 z "},"7":{"ha":559,"x_min":41,"x_max":509,"o":"m 113 741 l 509 741 l 509 720 l 262 -16 l 201 -16 l 422 651 l 219 651 q 131 637 157 651 q 58 559 85 612 l 41 565 l 113 741 z "},"8":{"ha":559,"x_min":68,"x_max":494,"o":"m 214 373 q 101 489 127 445 q 76 579 76 532 q 132 703 76 651 q 279 755 187 755 q 424 707 369 755 q 478 596 478 659 q 449 512 478 555 q 326 410 419 469 q 453 293 422 336 q 494 176 494 237 q 435 42 494 98 q 279 -13 376 -13 q 115 53 174 -13 q 68 169 68 106 q 101 266 68 218 q 214 373 134 315 m 300 431 q 383 525 366 490 q 401 602 401 559 q 369 691 401 659 q 281 724 336 724 q 190 691 225 724 q 155 616 155 659 q 170 559 155 588 q 211 505 184 531 l 300 431 m 240 352 q 173 269 195 314 q 151 172 151 224 q 190 59 151 101 q 288 16 228 16 q 382 50 347 16 q 418 130 418 83 q 397 201 418 170 q 240 352 358 259 z "},"9":{"ha":559,"x_min":44,"x_max":511,"o":"m 59 -16 l 59 5 q 191 38 130 6 q 309 150 252 70 q 389 325 366 229 q 234 270 303 270 q 100 330 155 270 q 44 490 44 391 q 100 663 44 587 q 275 755 167 755 q 431 680 366 755 q 511 450 511 587 q 450 220 511 326 q 281 43 390 113 q 90 -16 194 -16 l 59 -16 m 397 366 q 408 479 408 436 q 389 593 408 532 q 338 687 371 654 q 263 720 305 720 q 178 676 214 720 q 141 547 141 633 q 190 366 141 431 q 277 319 225 319 q 337 331 302 319 q 397 366 371 343 z "}," ":{"ha":279,"x_min":0,"x_max":0,"o":""},"!":{"ha":372,"x_min":125,"x_max":248,"o":"m 197 196 l 176 196 l 127 638 q 125 682 125 667 q 143 736 125 715 q 186 758 161 758 q 230 736 212 758 q 248 675 248 715 q 245 638 248 662 l 197 196 m 186 105 q 229 87 211 105 q 246 45 246 70 q 229 2 246 20 q 186 -16 211 -16 q 143 2 161 -16 q 125 45 125 20 q 143 87 125 70 q 186 105 161 105 z "},"\"":{"ha":456,"x_min":73,"x_max":382,"o":"m 315 438 l 285 597 l 273 664 q 272 691 272 677 q 287 742 272 726 q 328 758 302 758 q 367 742 351 758 q 382 699 382 726 q 372 598 382 652 l 340 438 l 315 438 m 115 438 l 85 600 q 73 690 73 667 q 87 742 73 726 q 126 758 102 758 q 166 741 150 758 q 182 699 182 725 q 168 600 182 677 l 138 438 l 115 438 z "},"#":{"ha":559,"x_min":20,"x_max":539,"o":"m 63 -16 l 113 233 l 20 233 l 20 278 l 122 278 l 160 465 l 20 465 l 20 509 l 170 509 l 220 758 l 265 758 l 216 509 l 399 509 l 452 758 l 498 758 l 446 509 l 539 509 l 539 465 l 438 465 l 399 278 l 539 278 l 539 233 l 391 233 l 340 -16 l 296 -16 l 345 233 l 160 233 l 108 -16 l 63 -16 m 168 278 l 353 278 l 393 465 l 206 465 l 168 278 z "},"$":{"ha":559,"x_min":59,"x_max":503,"o":"m 59 182 l 83 182 q 130 68 89 108 q 252 20 171 28 l 252 339 q 88 473 130 415 q 60 574 60 515 q 110 692 60 642 q 252 752 159 742 l 252 802 l 287 802 l 287 752 q 363 742 332 749 q 467 704 378 738 l 467 541 l 446 541 q 401 668 439 628 q 287 715 363 708 l 287 438 q 464 297 425 342 q 503 183 503 251 q 446 51 503 108 q 287 -16 389 -7 l 287 -85 l 252 -85 l 252 -16 q 157 -3 201 -13 q 59 28 113 6 l 59 182 m 252 461 l 252 715 q 171 681 197 709 q 144 610 144 652 q 169 535 144 570 q 252 461 193 500 m 287 20 q 350 41 328 27 q 398 91 380 60 q 416 156 416 121 q 394 224 416 192 q 287 315 373 256 l 287 20 z "},"%":{"ha":931,"x_min":39,"x_max":892,"o":"m 760 758 l 220 -31 l 172 -31 l 711 758 l 760 758 m 199 758 q 313 696 273 758 q 354 555 354 635 q 308 409 354 460 q 197 357 262 357 q 119 381 155 357 q 61 452 83 405 q 39 555 39 498 q 61 662 39 613 q 121 734 83 710 q 199 758 159 758 m 197 726 q 148 694 170 726 q 126 556 126 661 q 138 441 126 480 q 167 394 147 410 q 195 385 178 385 q 240 413 222 385 q 267 553 267 455 q 241 699 267 656 q 197 726 223 726 m 735 368 q 812 343 774 368 q 871 271 850 318 q 892 168 892 224 q 846 20 892 71 q 736 -31 800 -31 q 659 -6 696 -31 q 600 64 622 18 q 578 168 578 110 q 600 273 578 225 q 659 344 622 321 q 735 368 696 368 m 735 338 q 690 309 709 338 q 665 164 665 271 q 690 28 665 66 q 735 0 709 0 q 780 30 760 0 q 806 167 806 70 q 780 311 806 270 q 735 338 762 338 z "},"&":{"ha":869,"x_min":41,"x_max":836,"o":"m 570 477 l 800 477 l 800 456 q 729 435 752 452 q 659 332 707 418 q 551 170 611 245 q 638 90 600 113 q 715 67 676 67 q 779 87 752 67 q 816 148 805 108 l 836 133 q 771 20 816 56 q 667 -17 726 -17 q 576 7 622 -17 q 475 90 530 32 q 353 6 408 29 q 237 -17 298 -17 q 94 31 147 -17 q 41 146 41 79 q 88 277 41 212 q 267 414 136 343 q 232 507 241 471 q 222 576 222 543 q 292 719 222 670 q 413 758 345 758 q 519 719 478 758 q 560 624 560 680 q 520 523 560 566 q 380 427 481 479 q 525 201 450 304 q 621 394 621 315 q 605 439 621 419 q 570 456 593 454 l 570 477 m 362 463 q 464 535 430 494 q 497 627 497 576 q 473 692 497 666 q 412 718 448 718 q 340 684 365 718 q 316 620 316 651 q 325 560 316 593 q 362 463 334 527 m 446 121 q 347 265 374 220 q 286 377 319 310 q 187 294 220 340 q 154 196 154 249 q 192 93 154 138 q 293 49 229 49 q 359 63 328 49 q 446 121 391 77 z "},"'":{"ha":201,"x_min":44,"x_max":154,"o":"m 86 438 l 57 600 q 44 690 44 667 q 58 742 44 726 q 97 758 73 758 q 138 741 122 758 q 154 699 154 725 q 140 600 154 679 l 111 438 l 86 438 z "},"(":{"ha":372,"x_min":46,"x_max":347,"o":"m 347 -219 l 347 -239 q 210 -142 264 -197 q 89 45 131 -63 q 46 268 46 153 q 130 577 46 437 q 347 777 213 716 l 347 753 q 237 652 280 716 q 173 489 194 587 q 151 282 151 390 q 170 70 151 165 q 203 -51 183 -5 q 258 -138 224 -96 q 347 -219 292 -180 z "},")":{"ha":372,"x_min":25,"x_max":326,"o":"m 25 753 l 25 777 q 163 680 108 735 q 284 493 241 600 q 326 269 326 385 q 243 -40 326 100 q 25 -239 160 -179 l 25 -219 q 136 -117 92 -181 q 200 46 179 -53 q 221 253 221 145 q 203 465 221 369 q 169 586 189 541 q 115 673 149 631 q 25 753 81 715 z "},"*":{"ha":559,"x_min":79,"x_max":480,"o":"m 270 570 q 254 645 267 608 q 236 718 236 699 q 249 762 236 747 q 282 777 262 777 q 312 762 299 777 q 324 720 324 747 q 310 651 324 695 q 292 570 296 607 q 346 616 322 589 q 401 670 383 659 q 438 680 419 680 q 468 668 456 680 q 480 639 480 656 q 462 603 480 618 q 372 571 444 587 q 302 550 330 562 q 372 528 331 535 q 458 497 438 515 q 479 458 479 479 q 467 430 479 441 q 438 418 454 418 q 401 429 421 418 q 348 480 382 441 q 292 530 326 507 q 304 463 293 500 q 324 375 324 399 q 311 338 324 353 q 283 323 298 323 q 247 339 263 323 q 235 376 235 351 q 248 438 235 401 q 264 489 260 475 q 270 530 267 503 q 214 483 237 509 q 153 427 174 438 q 124 418 139 418 q 92 430 105 418 q 79 458 79 443 q 91 487 79 472 q 124 511 102 502 q 191 529 138 518 q 257 550 225 536 q 186 572 228 564 q 104 598 119 587 q 79 642 79 616 q 92 669 79 656 q 120 682 104 682 q 158 670 138 682 q 209 624 178 659 q 270 570 239 589 z "},"+":{"ha":631,"x_min":20,"x_max":609,"o":"m 292 77 l 292 349 l 20 349 l 20 394 l 292 394 l 292 665 l 336 665 l 336 394 l 609 394 l 609 349 l 336 349 l 336 77 l 292 77 z "},",":{"ha":279,"x_min":60,"x_max":222,"o":"m 60 -186 l 60 -162 q 147 -105 116 -144 q 178 -22 178 -66 q 173 -4 178 -12 q 165 1 170 1 q 139 -10 159 1 q 119 -16 130 -16 q 76 0 92 -16 q 60 44 60 16 q 81 90 60 71 q 130 109 101 109 q 195 78 167 109 q 222 -5 222 46 q 183 -110 222 -62 q 60 -186 144 -158 z "},"-":{"ha":372,"x_min":45,"x_max":328,"o":"m 45 292 l 328 292 l 328 210 l 45 210 l 45 292 z "},".":{"ha":279,"x_min":79,"x_max":200,"o":"m 140 106 q 183 88 165 106 q 200 45 200 71 q 182 2 200 20 q 140 -16 165 -16 q 97 2 115 -16 q 79 45 79 20 q 97 89 79 71 q 140 106 115 106 z "},"/":{"ha":311,"x_min":1,"x_max":313,"o":"m 313 777 l 45 -16 l 1 -16 l 270 777 l 313 777 z "},":":{"ha":311,"x_min":96,"x_max":218,"o":"m 158 515 q 201 498 183 515 q 218 455 218 480 q 201 412 218 430 q 158 394 183 394 q 115 412 133 394 q 97 455 97 430 q 115 498 97 480 q 158 515 133 515 m 157 106 q 200 89 182 106 q 218 45 218 71 q 200 2 218 20 q 157 -16 182 -16 q 114 2 132 -16 q 96 45 96 20 q 114 89 96 71 q 157 106 132 106 z "},";":{"ha":311,"x_min":77,"x_max":240,"o":"m 154 516 q 197 498 179 516 q 214 456 214 481 q 197 413 214 431 q 154 395 179 395 q 111 413 129 395 q 94 456 94 431 q 111 498 94 481 q 154 516 129 516 m 77 -186 l 77 -162 q 164 -105 134 -144 q 195 -22 195 -66 q 191 -4 195 -12 q 183 1 186 1 q 157 -10 177 1 q 136 -16 147 -16 q 93 0 109 -16 q 77 44 77 16 q 98 90 77 71 q 148 109 119 109 q 212 78 184 109 q 240 -5 240 46 q 201 -110 240 -62 q 77 -186 162 -158 z "},"<":{"ha":631,"x_min":20,"x_max":608,"o":"m 20 385 l 608 640 l 608 592 l 102 373 l 608 151 l 608 102 l 20 359 l 20 385 z "},"=":{"ha":631,"x_min":20,"x_max":609,"o":"m 20 482 l 609 482 l 609 437 l 20 437 l 20 482 m 20 304 l 609 304 l 609 259 l 20 259 l 20 304 z "},">":{"ha":631,"x_min":20,"x_max":608,"o":"m 608 357 l 20 102 l 20 149 l 526 368 l 20 590 l 20 640 l 608 383 l 608 357 z "},"?":{"ha":496,"x_min":50,"x_max":452,"o":"m 248 175 l 225 175 q 243 289 229 243 q 298 414 256 334 q 341 509 331 475 q 351 575 351 542 q 314 686 351 645 q 223 726 277 726 q 149 704 176 726 q 121 656 121 682 q 138 606 121 635 q 154 562 154 576 q 141 528 154 542 q 111 515 129 515 q 69 537 88 515 q 50 601 50 560 q 103 710 50 662 q 247 758 156 758 q 412 692 359 758 q 452 585 452 644 q 434 503 452 545 q 366 405 416 461 q 269 277 287 315 q 248 175 252 240 m 240 107 q 283 89 266 107 q 301 46 301 71 q 283 3 301 21 q 240 -15 265 -15 q 197 3 215 -15 q 180 46 180 21 q 197 89 180 71 q 240 107 215 107 z "},"@":{"ha":1029,"x_min":53,"x_max":1002,"o":"m 768 523 l 705 305 q 662 150 669 183 q 654 98 654 117 q 666 68 654 80 q 695 56 677 56 q 791 96 735 56 q 887 225 847 136 q 926 412 926 315 q 881 585 926 505 q 754 706 836 664 q 572 749 672 749 q 338 682 446 749 q 168 489 231 614 q 104 228 104 363 q 160 0 104 102 q 315 -155 215 -102 q 532 -208 416 -208 q 791 -131 675 -208 q 970 94 907 -54 l 1002 94 q 824 -149 954 -56 q 529 -241 694 -241 q 288 -180 399 -241 q 115 -6 176 -119 q 53 242 53 107 q 121 511 53 387 q 311 706 189 636 q 570 777 433 777 q 773 730 682 777 q 911 593 864 683 q 959 402 959 503 q 915 204 959 302 q 801 62 870 106 q 658 17 732 17 q 595 37 616 17 q 574 92 574 56 q 584 172 574 122 q 455 45 503 74 q 369 16 406 16 q 300 51 330 16 q 270 144 270 85 q 322 321 270 222 q 458 481 374 419 q 571 526 522 526 q 632 507 608 526 q 665 451 656 488 l 683 511 l 768 523 m 577 500 q 494 458 536 500 q 389 287 433 394 q 357 160 357 208 q 376 104 357 125 q 419 83 395 83 q 486 106 451 83 q 559 180 521 130 q 614 281 597 231 q 646 422 646 368 q 626 479 646 458 q 577 500 606 500 z "},"[":{"ha":372,"x_min":92,"x_max":332,"o":"m 332 -222 l 92 -222 l 92 758 l 332 758 l 332 714 l 174 714 l 174 -179 l 332 -179 l 332 -222 z "},"\\":{"ha":311,"x_min":1,"x_max":313,"o":"m 45 777 l 313 -16 l 269 -16 l 1 777 l 45 777 z "},"]":{"ha":372,"x_min":41,"x_max":281,"o":"m 41 758 l 281 758 l 281 -222 l 41 -222 l 41 -179 l 199 -179 l 199 714 l 41 714 l 41 758 z "},"^":{"ha":525,"x_min":20,"x_max":504,"o":"m 272 755 l 504 364 l 454 364 l 262 684 l 71 364 l 20 364 l 256 755 l 272 755 z "},"_":{"ha":559,"x_min":-9,"x_max":569,"o":"m 569 -241 l -9 -241 l -9 -195 l 569 -195 l 569 -241 z "},"`":{"ha":372,"x_min":64,"x_max":244,"o":"m 64 759 l 186 759 l 244 570 l 225 570 l 64 759 z "},"{":{"ha":536,"x_min":155,"x_max":459,"o":"m 459 -222 l 459 -241 q 311 -167 368 -229 q 254 -31 254 -106 q 266 60 254 8 q 279 141 279 113 q 246 215 279 180 q 155 256 213 249 l 155 279 q 246 320 213 287 q 279 394 279 354 q 266 475 279 423 q 254 567 254 527 q 311 703 254 641 q 459 777 368 764 l 459 758 q 366 707 395 742 q 336 631 336 673 q 348 546 336 599 q 360 456 360 494 q 320 350 360 401 q 199 269 279 298 q 319 187 278 240 q 360 79 360 134 q 348 -11 360 42 q 336 -96 336 -63 q 366 -172 336 -137 q 459 -222 395 -206 z "},"|":{"ha":224,"x_min":88,"x_max":133,"o":"m 133 777 l 133 -241 l 88 -241 l 88 777 l 133 777 z "},"}":{"ha":536,"x_min":96,"x_max":401,"o":"m 96 758 l 96 777 q 245 703 188 764 q 302 566 302 642 q 289 475 302 527 q 277 394 277 423 q 310 321 277 355 q 401 279 343 287 l 401 256 q 310 215 343 249 q 277 141 277 180 q 289 60 277 113 q 302 -31 302 8 q 245 -167 302 -105 q 96 -241 188 -229 l 96 -222 q 190 -172 161 -206 q 220 -96 220 -138 q 207 -11 220 -63 q 195 79 195 42 q 235 186 195 134 q 357 267 276 238 q 236 349 278 296 q 195 456 195 401 q 207 546 195 494 q 220 631 220 599 q 190 707 220 673 q 96 758 161 742 z "},"~":{"ha":605,"x_min":11,"x_max":593,"o":"m 569 368 l 593 368 q 553 257 591 298 q 460 217 515 217 q 406 225 435 217 q 256 283 376 234 q 136 318 172 318 q 72 295 98 318 q 35 218 46 271 l 11 218 q 51 331 14 292 q 138 370 88 370 q 188 363 163 370 q 337 307 245 346 q 467 267 430 267 q 536 293 508 267 q 569 368 564 319 z "},"¢":{"ha":559,"x_min":71,"x_max":492,"o":"m 492 191 q 402 31 466 88 q 281 -13 353 -13 q 193 6 237 -13 l 116 -207 l 77 -207 l 162 26 q 98 111 118 68 q 71 247 71 170 q 156 460 71 385 q 305 517 222 517 q 338 515 316 517 l 415 724 l 454 724 l 375 505 q 450 457 430 480 q 477 394 477 427 q 464 360 477 373 q 425 348 450 348 q 378 368 395 348 q 364 413 368 380 q 355 449 362 430 l 231 104 q 281 77 261 83 q 319 71 297 71 q 383 85 353 71 q 430 118 414 99 q 475 197 446 136 l 492 191 m 202 136 l 323 472 q 291 479 309 479 q 203 438 235 479 q 158 292 158 384 q 168 217 158 251 q 202 136 177 182 z "},"×":{"ha":631,"x_min":90,"x_max":538,"o":"m 90 179 l 283 372 l 91 564 l 122 595 l 315 404 l 507 595 l 537 564 l 345 372 l 538 179 l 507 147 l 314 340 l 121 148 l 90 179 z "},"÷":{"ha":614,"x_min":13,"x_max":601,"o":"m 307 587 q 340 573 326 587 q 354 539 354 559 q 340 506 354 519 q 307 492 326 492 q 273 506 287 492 q 259 539 259 519 q 273 573 259 559 q 307 587 287 587 m 601 349 l 13 349 l 13 394 l 601 394 l 601 349 m 307 248 q 341 234 327 248 q 355 200 355 220 q 340 166 355 180 q 307 153 326 153 q 273 166 287 153 q 259 200 259 180 q 273 234 259 220 q 307 248 287 248 z "},"ँ":{"ha":0,"x_min":-439,"x_max":130,"o":"m -155 882 q -202 902 -182 882 q -222 949 -222 922 q -203 997 -222 977 q -155 1017 -184 1017 q -106 998 -125 1017 q -87 949 -87 979 q -107 901 -87 920 q -155 882 -127 882 m 130 983 q 47 830 130 893 q -155 766 -36 766 q -356 830 -272 766 q -439 983 -439 895 l -304 983 q -260 864 -304 913 q -155 814 -216 814 q -49 864 -93 814 q -5 983 -5 913 l 130 983 z "},"ं":{"ha":0,"x_min":-214,"x_max":-95,"o":"m -155 869 q -197 887 -179 869 q -214 929 -214 905 q -197 971 -214 954 q -155 989 -179 989 q -113 971 -130 989 q -95 929 -95 954 q -113 887 -95 905 q -155 869 -130 869 z "},"ः":{"ha":326,"x_min":95,"x_max":231,"o":"m 231 393 l 95 393 l 95 529 l 231 529 l 231 393 m 231 68 l 95 68 l 95 203 l 231 203 l 231 68 z "},"अ":{"ha":846,"x_min":26,"x_max":894,"o":"m 26 298 l 66 298 q 124 136 66 204 q 263 68 182 68 q 363 108 321 68 q 406 206 406 148 q 364 306 406 265 q 263 346 322 346 l 216 346 l 216 387 l 263 387 q 354 422 316 387 q 392 511 392 458 q 354 601 392 565 q 263 637 317 637 q 180 609 217 637 q 127 536 143 581 l 94 556 q 171 654 115 616 q 297 692 227 692 q 450 640 387 692 q 514 515 514 589 q 479 422 514 462 q 392 373 444 382 l 392 366 q 499 308 458 355 q 541 197 541 260 q 465 57 541 115 q 283 0 389 0 q 102 88 178 0 q 26 298 26 176 m 745 651 l 745 95 q 773 47 745 67 q 840 27 802 27 l 840 0 l 528 0 l 528 27 q 594 47 566 27 q 623 95 623 66 l 623 346 l 541 346 l 541 393 l 623 393 l 623 651 l 541 651 l 541 705 l 894 705 l 894 651 l 745 651 z "},"आ":{"ha":1177,"x_min":26,"x_max":1225,"o":"m 26 298 l 66 298 q 124 136 66 204 q 263 68 182 68 q 363 108 321 68 q 406 206 406 148 q 364 306 406 265 q 263 346 322 346 l 216 346 l 216 387 l 263 387 q 354 422 316 387 q 392 511 392 458 q 354 601 392 565 q 263 637 317 637 q 180 609 217 637 q 127 536 143 581 l 94 556 q 171 654 115 616 q 297 692 227 692 q 450 640 387 692 q 514 515 514 589 q 479 422 514 462 q 392 373 444 382 l 392 366 q 499 308 458 355 q 541 197 541 260 q 465 57 541 115 q 283 0 389 0 q 102 88 178 0 q 26 298 26 176 m 745 651 l 745 95 q 773 47 745 67 q 840 27 802 27 l 840 0 l 528 0 l 528 27 q 594 47 566 27 q 623 95 623 66 l 623 346 l 541 346 l 541 393 l 623 393 l 623 651 l 541 651 l 541 705 l 1225 705 l 1225 651 l 1077 651 l 1077 81 q 1106 43 1077 59 q 1172 27 1135 27 l 1172 0 l 860 0 l 860 27 q 926 43 898 27 q 955 81 955 58 l 955 651 l 745 651 m 846 0 z "},"इ":{"ha":583,"x_min":-4,"x_max":631,"o":"m 631 651 l 472 651 l 472 515 l 255 515 q 207 495 226 515 q 187 448 187 475 q 225 381 187 409 q 316 353 264 353 l 418 353 q 495 310 463 353 q 526 203 526 267 q 455 88 526 135 q 282 41 385 41 q 411 -20 345 -20 q 540 41 496 -20 l 560 14 q 363 -88 503 -88 q 275 -62 326 -88 q 174 9 225 -37 q 24 115 56 115 l 24 149 l 153 149 q 248 68 178 109 q 348 108 306 68 q 391 203 391 149 q 368 271 391 244 q 309 298 345 298 l 201 298 q 95 339 139 298 q 52 434 52 379 q 106 530 52 490 q 241 570 161 570 l 350 570 l 350 651 l -4 651 l -4 705 l 631 705 l 631 651 z "},"ई":{"ha":583,"x_min":-4,"x_max":631,"o":"m 631 651 l 472 651 l 472 515 l 255 515 q 207 495 226 515 q 187 448 187 475 q 225 381 187 409 q 316 353 264 353 l 418 353 q 495 310 463 353 q 526 203 526 267 q 455 88 526 135 q 282 41 385 41 q 411 -20 345 -20 q 540 41 496 -20 l 560 14 q 363 -88 503 -88 q 275 -62 326 -88 q 174 9 225 -37 q 24 115 56 115 l 24 149 l 153 149 q 248 68 178 109 q 348 108 306 68 q 391 203 391 149 q 368 271 391 244 q 309 298 345 298 l 201 298 q 95 339 139 298 q 52 434 52 379 q 106 530 52 490 q 241 570 161 570 l 350 570 l 350 651 l -4 651 l -4 705 l 631 705 l 631 651 m 559 954 l 478 954 q 409 931 435 954 q 383 875 383 909 q 410 795 383 839 q 478 719 437 752 l 342 719 q 275 795 302 752 q 248 875 248 839 q 294 968 248 932 q 410 1005 340 1005 l 559 1005 l 559 954 z "},"उ":{"ha":635,"x_min":-4,"x_max":682,"o":"m 682 651 l 412 651 q 516 602 477 640 q 555 515 555 564 q 520 432 555 469 q 433 387 486 396 l 433 380 q 545 316 501 368 q 589 197 589 265 q 511 58 589 115 q 324 0 433 0 q 114 99 201 0 q 26 339 26 199 l 66 339 q 133 157 66 233 q 290 81 199 81 q 396 118 352 81 q 439 203 439 154 q 394 310 439 267 q 283 353 349 353 l 229 353 l 229 407 l 297 407 q 392 443 352 407 q 433 529 433 478 q 399 607 433 574 q 311 651 366 641 l -4 651 l -4 705 l 682 705 l 682 651 z "},"ऊ":{"ha":959,"x_min":-4,"x_max":1006,"o":"m 1006 651 l 412 651 q 516 602 477 640 q 555 515 555 564 q 520 432 555 469 q 433 387 486 396 l 433 380 q 545 316 501 368 q 589 197 589 265 q 511 58 589 115 q 324 0 433 0 q 114 99 201 0 q 26 339 26 199 l 66 339 q 133 157 66 233 q 290 81 199 81 q 396 118 352 81 q 439 203 439 154 q 394 310 439 267 q 283 353 349 353 l 229 353 l 229 407 l 297 407 q 392 443 352 407 q 433 529 433 478 q 399 607 433 574 q 311 651 366 641 l -4 651 l -4 705 l 1006 705 l 1006 651 m 623 20 l 629 41 q 749 90 699 41 q 799 210 799 139 q 758 352 799 290 q 650 414 716 414 q 602 400 627 414 l 602 427 q 690 454 638 454 q 853 391 785 454 q 921 237 921 328 q 858 75 921 143 q 704 7 795 7 q 623 20 651 7 m 635 0 z "},"ऋ":{"ha":921,"x_min":-4,"x_max":968,"o":"m 968 651 l 562 651 l 562 434 l 642 487 q 625 549 625 525 q 651 603 625 581 q 711 624 677 624 q 756 610 741 624 q 772 570 772 597 q 754 522 772 545 q 701 477 736 498 q 831 332 775 416 q 887 176 887 249 q 830 69 887 111 q 697 27 772 27 l 697 54 q 751 95 731 54 q 772 183 772 135 q 744 300 772 235 q 661 444 716 366 l 562 373 l 562 81 q 590 43 562 59 q 656 27 619 27 l 656 0 l 345 0 l 345 27 q 411 43 382 27 q 439 81 439 58 l 439 292 l 60 34 l 39 75 l 317 271 l 236 407 q 180 478 208 454 q 127 502 153 502 q 90 495 110 502 q 46 475 69 488 l 19 502 q 84 570 44 544 q 168 597 125 597 q 260 566 219 597 q 331 475 300 536 l 406 326 l 439 346 l 439 651 l -4 651 l -4 705 l 968 705 l 968 651 z "},"ऌ":{"ha":922,"x_min":-4,"x_max":970,"o":"m 764 319 q 727 432 764 383 q 635 481 691 481 q 534 436 576 481 q 492 326 492 391 l 454 326 q 415 437 454 392 q 317 481 376 481 q 215 424 255 481 q 175 292 175 366 q 210 160 175 218 q 301 102 244 102 q 377 136 342 102 l 396 109 q 277 47 352 47 q 110 118 180 47 q 41 285 41 188 q 109 467 41 391 q 275 543 177 543 q 397 510 344 543 q 473 420 451 477 q 604 529 503 500 l 604 651 l -4 651 l -4 705 l 970 705 l 970 651 l 711 651 l 711 536 q 836 462 787 521 q 884 326 884 404 q 822 167 884 233 q 673 102 760 102 q 595 67 627 102 q 563 -14 563 33 q 595 -99 563 -62 q 671 -136 628 -136 l 814 -136 l 814 -176 l 671 -176 q 504 -132 568 -176 q 441 -14 441 -87 q 492 96 441 51 q 617 141 543 141 q 721 193 677 141 q 764 319 764 245 z "},"ऍ":{"ha":674,"x_min":-4,"x_max":722,"o":"m 722 651 l 518 651 q 613 448 613 570 q 557 290 613 356 q 423 224 501 224 q 323 244 371 224 q 247 298 276 264 l 281 332 q 369 278 327 278 q 455 327 419 278 q 491 448 491 376 q 382 651 491 559 l 193 651 l 193 231 q 235 116 193 163 q 342 68 278 68 l 545 68 q 613 49 587 68 q 640 0 640 30 q 608 -48 640 -28 q 532 -68 575 -68 l 382 -68 l 382 -41 q 425 -30 407 -41 q 444 -7 444 -20 q 415 17 444 7 q 342 27 387 27 q 151 111 231 27 q 71 312 71 195 l 71 651 l -4 651 l -4 705 l 722 705 l 722 651 m 600 985 q 516 831 600 895 q 315 768 433 768 q 114 832 197 768 q 30 985 30 896 l 165 985 q 208 861 165 913 q 315 808 250 808 q 422 861 380 808 q 464 985 464 913 l 600 985 z "},"ऎ":{"ha":674,"x_min":-18,"x_max":722,"o":"m 722 651 l 518 651 q 613 448 613 570 q 557 290 613 356 q 423 224 501 224 q 323 244 371 224 q 247 298 276 264 l 281 332 q 369 278 327 278 q 455 327 419 278 q 491 448 491 376 q 382 651 491 559 l 193 651 l 193 231 q 235 116 193 163 q 342 68 278 68 l 545 68 q 613 49 587 68 q 640 0 640 30 q 608 -48 640 -28 q 532 -68 575 -68 l 382 -68 l 382 -41 q 425 -30 407 -41 q 444 -7 444 -20 q 415 17 444 7 q 342 27 387 27 q 151 111 231 27 q 71 312 71 195 l 71 651 l -4 651 l -4 705 l 722 705 l 722 651 m 545 719 l 437 719 q 378 806 437 770 q 236 842 319 842 q 57 903 131 842 q -18 1051 -18 964 l 118 1051 q 173 931 118 981 q 304 882 227 882 q 471 837 397 882 q 545 719 545 792 z "},"ए":{"ha":674,"x_min":-4,"x_max":722,"o":"m 722 651 l 518 651 q 613 448 613 570 q 557 290 613 356 q 423 224 501 224 q 323 244 371 224 q 247 298 276 264 l 281 332 q 369 278 327 278 q 455 327 419 278 q 491 448 491 376 q 382 651 491 559 l 193 651 l 193 231 q 235 116 193 163 q 342 68 278 68 l 545 68 q 613 49 587 68 q 640 0 640 30 q 608 -48 640 -28 q 532 -68 575 -68 l 382 -68 l 382 -41 q 425 -30 407 -41 q 444 -7 444 -20 q 415 17 444 7 q 342 27 387 27 q 151 111 231 27 q 71 312 71 195 l 71 651 l -4 651 l -4 705 l 722 705 l 722 651 z "},"ऐ":{"ha":674,"x_min":-22,"x_max":722,"o":"m 722 651 l 518 651 q 613 448 613 570 q 557 290 613 356 q 423 224 501 224 q 323 244 371 224 q 247 298 276 264 l 281 332 q 369 278 327 278 q 455 327 419 278 q 491 448 491 376 q 382 651 491 559 l 193 651 l 193 231 q 235 116 193 163 q 342 68 278 68 l 545 68 q 613 49 587 68 q 640 0 640 30 q 608 -48 640 -28 q 532 -68 575 -68 l 382 -68 l 382 -41 q 425 -30 407 -41 q 444 -7 444 -20 q 415 17 444 7 q 342 27 387 27 q 151 111 231 27 q 71 312 71 195 l 71 651 l -4 651 l -4 705 l 722 705 l 722 651 m 507 719 l 372 719 q 304 745 333 719 l 87 939 q 52 959 69 954 q 5 964 35 964 l -22 964 l -22 1004 l 127 1004 q 222 964 180 1004 l 426 777 q 494 751 454 751 l 507 751 l 507 719 z "},"ऑ":{"ha":1177,"x_min":26,"x_max":1225,"o":"m 26 298 l 66 298 q 124 136 66 204 q 263 68 182 68 q 363 108 321 68 q 406 206 406 148 q 364 306 406 265 q 263 346 322 346 l 216 346 l 216 387 l 263 387 q 354 422 316 387 q 392 511 392 458 q 354 601 392 565 q 263 637 317 637 q 180 609 217 637 q 127 536 143 581 l 94 556 q 171 654 115 616 q 297 692 227 692 q 450 640 387 692 q 514 515 514 589 q 479 422 514 462 q 392 373 444 382 l 392 366 q 499 308 458 355 q 541 197 541 260 q 465 57 541 115 q 283 0 389 0 q 102 88 178 0 q 26 298 26 176 m 745 651 l 745 95 q 773 47 745 67 q 840 27 802 27 l 840 0 l 528 0 l 528 27 q 594 47 566 27 q 623 95 623 66 l 623 346 l 541 346 l 541 393 l 623 393 l 623 651 l 541 651 l 541 705 l 1225 705 l 1225 651 l 1077 651 l 1077 81 q 1106 43 1077 59 q 1172 27 1135 27 l 1172 0 l 860 0 l 860 27 q 926 43 898 27 q 955 81 955 58 l 955 651 l 745 651 m 846 0 m 1130 990 q 1047 837 1130 900 q 845 773 964 773 q 644 837 728 773 q 560 990 560 901 l 696 990 q 738 866 696 918 q 845 814 780 814 q 952 866 910 814 q 994 990 994 918 l 1130 990 z "},"ऒ":{"ha":1177,"x_min":26,"x_max":1225,"o":"m 26 298 l 66 298 q 124 136 66 204 q 263 68 182 68 q 363 108 321 68 q 406 206 406 148 q 364 306 406 265 q 263 346 322 346 l 216 346 l 216 387 l 263 387 q 354 422 316 387 q 392 511 392 458 q 354 601 392 565 q 263 637 317 637 q 180 609 217 637 q 127 536 143 581 l 94 556 q 171 654 115 616 q 297 692 227 692 q 450 640 387 692 q 514 515 514 589 q 479 422 514 462 q 392 373 444 382 l 392 366 q 499 308 458 355 q 541 197 541 260 q 465 57 541 115 q 283 0 389 0 q 102 88 178 0 q 26 298 26 176 m 745 651 l 745 95 q 773 47 745 67 q 840 27 802 27 l 840 0 l 528 0 l 528 27 q 594 47 566 27 q 623 95 623 66 l 623 346 l 541 346 l 541 393 l 623 393 l 623 651 l 541 651 l 541 705 l 1225 705 l 1225 651 l 1077 651 l 1077 81 q 1106 43 1077 59 q 1172 27 1135 27 l 1172 0 l 860 0 l 860 27 q 926 43 898 27 q 955 81 955 58 l 955 651 l 745 651 m 846 0 m 1071 719 l 962 719 q 903 806 962 770 q 762 842 844 842 q 582 903 656 842 q 508 1051 508 964 l 644 1051 q 698 931 644 981 q 829 882 753 882 q 997 837 923 882 q 1071 719 1071 792 z "},"ओ":{"ha":1177,"x_min":26,"x_max":1225,"o":"m 26 298 l 66 298 q 124 136 66 204 q 263 68 182 68 q 363 108 321 68 q 406 206 406 148 q 364 306 406 265 q 263 346 322 346 l 216 346 l 216 387 l 263 387 q 354 422 316 387 q 392 511 392 458 q 354 601 392 565 q 263 637 317 637 q 180 609 217 637 q 127 536 143 581 l 94 556 q 171 654 115 616 q 297 692 227 692 q 450 640 387 692 q 514 515 514 589 q 479 422 514 462 q 392 373 444 382 l 392 366 q 499 308 458 355 q 541 197 541 260 q 465 57 541 115 q 283 0 389 0 q 102 88 178 0 q 26 298 26 176 m 745 651 l 745 95 q 773 47 745 67 q 840 27 802 27 l 840 0 l 528 0 l 528 27 q 594 47 566 27 q 623 95 623 66 l 623 346 l 541 346 l 541 393 l 623 393 l 623 651 l 541 651 l 541 705 l 1225 705 l 1225 651 l 1077 651 l 1077 81 q 1106 43 1077 59 q 1172 27 1135 27 l 1172 0 l 860 0 l 860 27 q 926 43 898 27 q 955 81 955 58 l 955 651 l 745 651 m 846 0 m 1090 719 l 955 719 q 887 745 916 719 l 670 939 q 635 959 652 954 q 589 964 618 964 l 562 964 l 562 1004 l 711 1004 q 806 964 764 1004 l 1009 777 q 1077 751 1037 751 l 1090 751 l 1090 719 z "},"औ":{"ha":1177,"x_min":26,"x_max":1225,"o":"m 26 298 l 66 298 q 124 136 66 204 q 263 68 182 68 q 363 108 321 68 q 406 206 406 148 q 364 306 406 265 q 263 346 322 346 l 216 346 l 216 387 l 263 387 q 354 422 316 387 q 392 511 392 458 q 354 601 392 565 q 263 637 317 637 q 180 609 217 637 q 127 536 143 581 l 94 556 q 171 654 115 616 q 297 692 227 692 q 450 640 387 692 q 514 515 514 589 q 479 422 514 462 q 392 373 444 382 l 392 366 q 499 308 458 355 q 541 197 541 260 q 465 57 541 115 q 283 0 389 0 q 102 88 178 0 q 26 298 26 176 m 745 651 l 745 95 q 773 47 745 67 q 840 27 802 27 l 840 0 l 528 0 l 528 27 q 594 47 566 27 q 623 95 623 66 l 623 346 l 541 346 l 541 393 l 623 393 l 623 651 l 541 651 l 541 705 l 1225 705 l 1225 651 l 1077 651 l 1077 81 q 1106 43 1077 59 q 1172 27 1135 27 l 1172 0 l 860 0 l 860 27 q 926 43 898 27 q 955 81 955 58 l 955 651 l 745 651 m 846 0 m 1091 773 l 983 773 q 923 806 949 773 l 812 943 q 739 977 784 977 l 644 977 l 644 1017 l 843 1017 q 913 981 885 1017 l 1023 841 q 1078 814 1044 814 l 1091 814 l 1091 773 m 956 719 l 806 719 q 725 753 768 719 l 562 882 q 494 909 528 909 l 440 909 l 440 949 l 589 949 q 671 922 637 949 l 842 787 q 913 760 876 760 l 956 760 l 956 719 z "},"क":{"ha":1069,"x_min":-4,"x_max":1116,"o":"m 473 203 l 473 468 q 324 536 417 536 q 207 478 253 536 q 161 339 161 421 q 208 201 161 259 q 324 142 255 142 q 473 203 401 142 m 595 475 l 595 81 q 624 43 595 59 q 690 27 653 27 l 690 0 l 378 0 l 378 27 q 445 43 416 27 q 473 81 473 58 l 473 156 q 297 95 401 95 q 115 167 191 95 q 39 339 39 239 q 114 512 39 440 q 297 583 189 583 q 473 515 391 583 l 473 651 l -4 651 l -4 705 l 1116 705 l 1116 651 l 595 651 l 595 529 q 772 583 662 583 q 955 513 880 583 q 1029 339 1029 442 q 954 166 1029 237 q 772 95 878 95 q 623 149 691 95 l 636 183 q 745 142 683 142 q 860 200 812 142 q 907 339 907 258 q 860 478 907 421 q 745 536 813 536 q 595 475 648 536 z "},"ख":{"ha":1166,"x_min":-4,"x_max":1214,"o":"m 944 203 l 944 461 q 795 549 911 549 q 670 488 721 549 q 618 339 618 427 q 670 181 618 248 q 795 115 722 115 q 880 139 840 115 q 944 203 921 163 m 944 142 q 862 88 909 108 q 768 68 814 68 q 618 102 680 68 q 520 27 578 54 q 401 0 463 0 q 198 88 286 0 q 8 231 56 231 l 22 271 q 144 244 96 244 q 289 313 231 244 q 347 475 347 382 q 311 581 347 532 q 212 651 274 629 l -4 651 l -4 705 l 1214 705 l 1214 651 l 1066 651 l 1066 81 q 1095 43 1066 59 q 1161 27 1124 27 l 1161 0 l 849 0 l 849 27 q 916 43 887 27 q 944 81 944 58 l 944 142 m 944 529 l 944 651 l 293 651 q 419 575 370 631 q 469 448 469 519 q 398 280 469 349 q 225 210 326 210 q 350 106 281 144 q 483 68 419 68 q 591 122 525 68 q 522 218 547 159 q 496 339 496 276 q 575 521 496 446 q 768 597 654 597 q 944 529 861 597 z "},"ग":{"ha":856,"x_min":-4,"x_max":903,"o":"m 233 420 q 176 384 199 420 q 152 298 152 347 q 176 213 152 250 q 233 176 200 176 q 291 212 267 176 q 315 298 315 247 q 292 386 315 351 q 233 420 269 420 m 633 651 l 288 651 q 461 565 391 633 q 532 407 532 497 q 444 215 532 294 q 233 136 356 136 q 90 184 150 136 q 30 301 30 233 q 84 419 30 370 q 213 468 138 468 q 329 419 281 468 q 376 298 376 370 l 382 298 q 410 407 410 332 q 343 566 410 498 q 179 651 277 633 l -4 651 l -4 705 l 903 705 l 903 651 l 755 651 l 755 81 q 784 43 755 59 q 850 27 813 27 l 850 0 l 538 0 l 538 27 q 605 43 576 27 q 633 81 633 58 l 633 651 m 571 7 z "},"घ":{"ha":749,"x_min":-4,"x_max":796,"o":"m 526 651 l 330 651 q 261 618 295 651 q 228 536 228 585 q 252 464 228 494 q 309 434 276 434 l 350 434 l 350 393 l 309 393 q 214 355 254 393 q 174 264 174 317 q 228 172 174 208 q 350 136 281 136 q 445 158 401 136 q 526 224 489 180 l 526 651 m 526 176 q 412 95 479 122 q 255 68 344 68 q 103 118 169 68 q 38 244 38 168 q 84 354 38 306 q 201 414 130 401 l 201 420 q 124 455 155 425 q 92 529 92 486 q 123 601 92 568 q 201 651 155 635 l -4 651 l -4 705 l 796 705 l 796 651 l 648 651 l 648 81 q 677 43 648 59 q 743 27 706 27 l 743 0 l 431 0 l 431 27 q 498 43 469 27 q 526 81 526 58 l 526 176 z "},"ङ":{"ha":834,"x_min":-4,"x_max":882,"o":"m 882 651 l 635 651 l 635 502 l 418 502 q 321 482 360 502 q 282 434 282 463 q 323 386 282 406 q 418 366 364 366 l 499 366 q 634 321 578 366 q 689 210 689 276 q 601 62 689 123 q 391 0 513 0 q 141 109 245 0 q 24 373 38 217 l 65 380 q 174 153 77 245 q 397 61 270 61 q 518 103 469 61 q 567 203 567 144 q 535 285 567 252 q 458 319 504 319 l 343 319 q 214 357 268 319 q 160 448 160 395 q 213 524 160 492 q 343 556 266 556 l 513 556 l 513 651 l -4 651 l -4 705 l 882 705 l 882 651 m 735 357 q 693 374 711 357 q 675 416 675 392 q 693 458 675 441 q 735 476 711 476 q 777 458 760 476 q 795 416 795 441 q 777 374 795 392 q 735 357 760 357 m 766 0 z "},"च":{"ha":808,"x_min":-4,"x_max":856,"o":"m 586 149 q 477 78 538 102 q 342 54 416 54 q 150 122 230 54 q 71 285 71 191 q 126 411 71 353 q 267 502 181 470 l 16 502 l 16 543 l 532 543 l 532 502 l 423 502 q 270 445 333 502 q 206 305 206 387 q 266 166 206 224 q 410 109 326 109 q 505 131 460 109 q 586 197 549 153 l 586 651 l -4 651 l -4 705 l 856 705 l 856 651 l 708 651 l 708 81 q 737 43 708 59 q 803 27 766 27 l 803 0 l 491 0 l 491 27 q 557 43 529 27 q 586 81 586 58 l 586 149 z "},"छ":{"ha":829,"x_min":-4,"x_max":876,"o":"m 644 203 q 665 339 665 259 q 645 456 665 410 q 597 502 625 502 q 549 463 568 502 q 529 373 529 424 q 563 253 529 303 q 644 203 597 203 m 665 529 q 753 467 719 519 q 787 339 787 414 q 674 97 787 194 q 407 0 562 0 q 146 52 245 0 q 47 190 47 104 q 94 286 47 244 q 212 332 141 327 l 210 339 q 104 380 147 345 q 61 461 61 416 q 110 556 61 516 q 231 597 159 597 q 339 556 293 597 l 319 529 q 264 549 291 549 q 207 523 230 549 q 183 461 183 496 q 224 385 183 418 q 319 353 264 353 l 319 326 q 213 286 256 326 q 170 190 170 246 q 237 80 170 119 q 407 41 304 41 q 551 78 487 41 q 637 176 616 116 q 485 231 550 176 q 420 366 420 285 q 455 473 420 426 q 543 529 490 519 l 543 651 l -4 651 l -4 705 l 876 705 l 876 651 l 665 651 l 665 529 m 595 540 z "},"ज":{"ha":905,"x_min":-4,"x_max":952,"o":"m 682 448 l 452 448 q 551 374 515 425 q 587 258 587 323 q 518 95 587 162 q 350 27 448 27 q 125 153 218 27 q 31 454 31 279 l 72 454 q 151 227 83 325 q 316 129 218 129 q 422 172 379 129 q 465 278 465 216 q 418 399 465 349 q 302 448 371 448 l 275 448 l 275 489 l 682 489 l 682 651 l -4 651 l -4 705 l 952 705 l 952 651 l 804 651 l 804 81 q 833 43 804 59 q 899 27 862 27 l 899 0 l 587 0 l 587 27 q 654 43 625 27 q 682 81 682 58 l 682 448 z "},"झ":{"ha":926,"x_min":-4,"x_max":974,"o":"m 974 651 l 826 651 l 826 81 q 855 43 826 59 q 921 27 884 27 l 921 0 l 609 0 l 609 27 q 675 43 647 27 q 704 81 704 58 l 704 271 l 589 271 q 595 231 595 252 q 525 113 595 158 q 365 68 454 68 l 324 68 q 391 27 357 41 q 460 14 425 14 q 541 41 495 14 l 555 27 q 406 -41 473 -41 q 272 -17 334 -41 q 168 47 210 6 q 12 149 96 119 l 12 176 l 222 176 q 275 127 239 146 q 351 109 311 109 q 439 144 404 109 q 473 231 473 179 q 445 290 473 268 q 372 312 417 312 l 229 312 q 115 341 157 312 q 73 420 73 370 q 118 506 73 470 q 229 543 163 543 l 406 543 l 406 651 l -4 651 l -4 705 l 974 705 l 974 651 m 704 312 l 704 651 l 528 651 l 528 495 l 351 495 q 250 476 283 495 q 216 420 216 458 q 246 375 216 390 q 338 359 277 359 q 406 366 361 359 q 473 373 451 373 q 543 356 514 373 q 582 312 572 340 l 704 312 z "},"ञ":{"ha":689,"x_min":-4,"x_max":736,"o":"m 467 339 l 357 339 q 293 221 345 265 q 168 176 241 176 q 16 260 75 176 l 32 285 q 115 244 69 244 q 202 279 169 244 q 236 367 236 314 q 204 455 236 421 q 118 489 172 489 q 32 457 71 489 l 20 485 q 172 555 81 555 q 298 510 250 555 q 357 379 347 464 l 467 379 l 467 652 l -4 652 l -4 705 l 736 705 l 736 652 l 589 652 l 589 82 q 618 42 589 57 q 684 28 647 28 l 684 0 l 372 0 l 372 28 q 438 43 410 28 q 467 82 467 58 l 467 339 z "},"ट":{"ha":662,"x_min":-4,"x_max":709,"o":"m 709 651 l 567 651 l 567 461 q 391 488 465 488 q 228 425 296 488 q 160 271 160 362 q 236 118 160 182 q 418 54 311 54 q 628 142 520 54 l 648 122 q 528 32 600 64 q 377 0 456 0 q 140 79 242 0 q 38 278 38 157 q 131 461 38 386 q 357 536 224 536 q 445 529 407 536 l 445 651 l -4 651 l -4 705 l 709 705 l 709 651 z "},"ठ":{"ha":758,"x_min":-4,"x_max":806,"o":"m 806 651 l 583 651 l 583 515 l 522 515 q 665 415 612 482 q 719 271 719 349 q 627 79 719 158 q 407 0 535 0 l 353 0 q 133 80 225 0 q 41 271 41 160 q 132 463 41 383 q 353 543 223 543 l 461 543 l 461 651 l -4 651 l -4 705 l 806 705 l 806 651 m 407 502 l 353 502 q 217 432 271 502 q 163 271 163 363 q 217 110 163 180 q 353 41 271 41 l 407 41 q 543 110 489 41 q 597 271 597 180 q 543 432 597 363 q 407 502 489 502 z "},"ड":{"ha":766,"x_min":-4,"x_max":814,"o":"m 814 651 l 635 651 l 635 502 l 404 502 q 313 485 343 502 q 282 434 282 468 q 316 383 282 400 q 418 366 350 366 l 499 366 q 634 321 578 366 q 689 210 689 276 q 601 62 689 123 q 391 0 513 0 q 141 109 245 0 q 24 373 38 217 l 65 380 q 174 153 77 245 q 397 61 270 61 q 518 102 469 61 q 567 203 567 143 q 534 286 567 252 q 450 319 501 319 l 343 319 q 212 354 263 319 q 160 448 160 389 q 211 527 160 497 q 343 556 261 556 l 513 556 l 513 651 l -4 651 l -4 705 l 814 705 l 814 651 z "},"ढ":{"ha":781,"x_min":-4,"x_max":829,"o":"m 829 651 l 636 651 l 636 502 l 446 502 q 245 434 329 502 q 161 271 161 366 q 220 110 161 178 q 365 41 278 41 l 419 41 q 360 116 382 67 q 338 224 338 164 q 397 363 338 306 q 541 420 456 420 q 685 361 626 420 q 745 217 745 302 q 676 63 745 126 q 514 0 608 0 l 365 0 q 136 80 232 0 q 39 271 39 160 q 138 464 39 385 q 378 543 237 543 l 514 543 l 514 651 l -4 651 l -4 705 l 829 705 l 829 651 m 514 366 q 428 320 463 366 q 392 210 392 274 q 428 91 392 141 q 514 41 465 41 q 591 90 559 41 q 623 210 623 138 q 591 322 623 277 q 514 366 560 366 z "},"ण":{"ha":871,"x_min":-4,"x_max":918,"o":"m 377 651 l 187 651 l 187 312 q 215 207 187 250 q 282 163 243 163 q 349 205 321 163 q 377 312 377 248 l 377 651 m 648 651 l 499 651 l 499 312 q 434 176 499 231 q 282 122 370 122 q 130 176 195 122 q 65 312 65 231 l 65 651 l -4 651 l -4 705 l 918 705 l 918 651 l 770 651 l 770 81 q 799 43 770 59 q 865 27 828 27 l 865 0 l 553 0 l 553 27 q 620 43 591 27 q 648 81 648 58 l 648 651 m 564 7 z "},"त":{"ha":783,"x_min":-4,"x_max":830,"o":"m 560 454 q 370 509 494 509 q 226 447 286 509 q 167 298 167 386 q 196 191 167 245 q 275 95 225 137 l 180 0 q 80 126 116 54 q 45 278 45 199 q 141 474 45 393 q 370 556 237 556 q 560 502 494 556 l 560 651 l -4 651 l -4 705 l 830 705 l 830 651 l 682 651 l 682 81 q 711 43 682 59 q 777 27 740 27 l 777 0 l 465 0 l 465 27 q 532 43 503 27 q 560 81 560 58 l 560 454 z "},"थ":{"ha":822,"x_min":30,"x_max":869,"o":"m 382 515 l 382 570 q 359 661 382 624 q 301 699 336 699 q 244 660 268 699 q 220 570 220 621 q 244 503 220 532 q 301 475 269 475 q 382 515 337 475 m 600 170 q 492 94 558 121 q 349 68 425 68 q 122 168 214 68 q 30 407 30 268 q 165 380 104 380 q 283 399 231 380 q 355 454 335 419 q 274 434 300 434 q 150 474 201 434 q 98 570 98 515 q 159 687 98 641 q 301 732 220 732 q 444 682 383 732 q 505 556 505 632 q 421 396 505 458 q 231 334 337 333 q 165 339 199 334 q 237 196 165 256 q 410 136 309 136 q 600 217 530 136 l 600 651 l 559 651 l 559 705 l 869 705 l 869 651 l 722 651 l 722 81 q 750 43 722 59 q 817 27 779 27 l 817 0 l 505 0 l 505 27 q 571 43 543 27 q 600 81 600 58 l 600 170 z "},"द":{"ha":708,"x_min":-4,"x_max":755,"o":"m 302 27 q 116 100 193 27 q 38 274 38 173 q 133 449 38 376 q 363 522 228 522 l 472 522 l 472 651 l -4 651 l -4 705 l 755 705 l 755 651 l 594 651 l 594 475 l 363 475 q 220 418 280 475 q 160 281 160 362 q 220 145 160 201 q 363 88 280 88 q 449 105 407 88 q 533 156 492 122 q 540 203 540 194 q 513 339 540 307 l 642 339 q 662 231 662 302 q 615 55 662 136 q 486 -75 568 -26 l 465 -54 q 526 109 508 -3 q 434 48 494 70 q 302 27 374 27 m 521 543 z "},"ध":{"ha":770,"x_min":53,"x_max":818,"o":"m 548 163 q 429 81 493 109 q 290 54 364 54 q 123 110 193 54 q 53 244 53 166 q 95 360 53 310 q 202 420 137 410 l 202 427 q 100 477 141 438 q 60 563 60 517 q 115 674 60 629 q 250 719 170 719 q 361 684 317 719 q 406 597 406 648 q 384 544 406 566 q 331 522 363 522 q 278 539 300 522 q 256 583 256 557 q 276 626 256 608 q 324 644 296 644 q 351 637 343 644 q 333 667 351 656 q 290 678 314 678 q 218 647 248 678 q 189 570 189 615 q 225 484 189 521 q 311 448 262 448 l 351 448 l 351 407 l 311 407 q 225 365 261 407 q 189 264 189 322 q 234 164 189 207 q 345 122 280 122 q 455 147 401 122 q 548 217 509 172 l 548 651 l 467 651 l 467 705 l 818 705 l 818 651 l 670 651 l 670 81 q 699 43 670 59 q 765 27 728 27 l 765 0 l 453 0 l 453 27 q 519 43 491 27 q 548 81 548 58 l 548 163 z "},"न":{"ha":869,"x_min":-4,"x_max":917,"o":"m 294 95 q 390 150 350 95 q 430 285 430 205 q 390 420 430 365 q 294 475 351 475 q 199 418 239 475 q 159 285 159 362 q 199 151 159 207 q 294 95 239 95 m 647 366 q 555 421 606 399 q 444 454 505 444 q 524 385 495 431 q 552 285 552 340 q 477 122 552 189 q 294 54 402 54 q 112 122 188 54 q 37 285 37 191 q 112 447 37 379 q 294 515 188 515 q 503 492 415 515 q 647 420 591 468 l 647 651 l -4 651 l -4 705 l 917 705 l 917 651 l 769 651 l 769 81 q 798 43 769 59 q 864 27 827 27 l 864 0 l 552 0 l 552 27 q 618 43 590 27 q 647 81 647 58 l 647 366 m 351 543 z "},"ऩ":{"ha":869,"x_min":-4,"x_max":917,"o":"m 294 149 q 390 196 351 149 q 430 312 430 243 q 390 428 430 380 q 294 475 351 475 q 199 427 239 475 q 159 312 159 379 q 199 197 159 245 q 294 149 239 149 m 647 366 q 555 421 606 399 q 444 454 505 444 q 524 393 496 431 q 552 312 552 355 q 477 168 552 227 q 294 109 402 109 q 112 169 188 109 q 37 312 37 229 q 112 455 37 395 q 294 515 188 515 q 503 492 415 515 q 647 420 591 468 l 647 651 l -4 651 l -4 705 l 917 705 l 917 651 l 769 651 l 769 81 q 798 43 769 59 q 864 27 827 27 l 864 0 l 552 0 l 552 27 q 618 43 590 27 q 647 81 647 58 l 647 366 m 292 -75 q 250 -57 267 -75 q 232 -15 232 -39 q 250 27 232 9 q 292 45 267 45 q 334 27 316 45 q 351 -15 351 9 q 334 -57 351 -39 q 292 -75 316 -75 m 351 543 z "},"प":{"ha":681,"x_min":-4,"x_max":728,"o":"m 458 651 l 187 651 l 187 312 q 228 217 187 258 q 323 176 269 176 q 418 216 378 176 q 458 312 458 256 l 458 651 m 458 197 q 384 131 428 153 q 282 109 340 109 q 129 172 192 109 q 65 326 65 235 l 65 651 l -4 651 l -4 705 l 728 705 l 728 651 l 581 651 l 581 81 q 609 43 581 59 q 675 27 638 27 l 675 0 l 363 0 l 363 27 q 430 43 401 27 q 458 81 458 58 l 458 197 z "},"फ":{"ha":910,"x_min":-4,"x_max":958,"o":"m 393 651 l 190 651 l 190 285 q 220 213 190 243 q 292 183 250 183 q 364 213 334 183 q 393 285 393 243 l 393 651 m 393 176 q 244 122 327 122 q 120 169 172 122 q 68 285 68 215 l 68 651 l -4 651 l -4 705 l 958 705 l 958 651 l 515 651 l 515 529 q 637 570 562 570 q 806 507 743 570 q 868 339 868 445 q 805 171 868 234 q 637 109 741 109 q 543 136 575 109 l 549 163 q 610 149 575 149 q 696 204 661 149 q 732 339 732 259 q 697 470 732 417 q 610 522 662 522 q 515 475 556 522 l 515 81 q 544 43 515 59 q 610 27 573 27 l 610 0 l 298 0 l 298 27 q 365 43 336 27 q 393 81 393 58 l 393 176 z "},"ब":{"ha":696,"x_min":-4,"x_max":743,"o":"m 412 156 l 209 461 q 161 319 161 421 q 217 183 161 234 q 333 133 273 133 q 412 156 373 133 m 473 488 q 362 525 420 525 q 250 495 299 525 l 460 176 l 473 183 l 473 488 m 473 149 q 297 81 391 81 q 115 153 191 81 q 39 326 39 225 q 114 498 39 427 q 297 570 189 570 q 473 515 408 570 l 473 651 l -4 651 l -4 705 l 743 705 l 743 651 l 595 651 l 595 81 q 624 43 595 59 q 690 27 653 27 l 690 0 l 378 0 l 378 27 q 445 43 416 27 q 473 81 473 58 l 473 149 z "},"भ":{"ha":806,"x_min":54,"x_max":853,"o":"m 312 570 q 290 656 312 621 q 237 692 269 692 q 184 656 206 692 q 163 570 163 621 q 184 493 163 526 q 237 461 206 461 q 290 493 269 461 q 312 570 312 526 m 312 339 l 271 339 q 202 302 229 339 q 176 209 176 265 q 195 113 176 151 q 244 75 214 75 q 292 106 273 75 q 312 183 312 137 l 312 339 m 583 339 l 434 339 l 434 231 q 378 92 434 150 q 244 34 322 34 q 110 88 166 34 q 54 217 54 142 q 106 333 54 287 q 231 380 158 380 l 312 380 l 312 461 q 217 420 277 420 q 107 464 153 420 q 61 570 61 508 q 115 685 61 637 q 244 732 169 732 q 378 682 322 732 q 434 556 434 631 l 434 380 l 583 380 l 583 651 l 461 651 l 461 705 l 853 705 l 853 651 l 705 651 l 705 81 q 734 43 705 59 q 800 27 763 27 l 800 0 l 488 0 l 488 27 q 555 43 526 27 q 583 81 583 58 l 583 339 z "},"म":{"ha":796,"x_min":-4,"x_max":844,"o":"m 844 651 l 696 651 l 696 81 q 725 43 696 59 q 791 27 753 27 l 791 0 l 479 0 l 479 27 q 545 43 517 27 q 574 81 574 58 l 574 346 l 397 346 l 397 244 q 340 107 397 168 q 208 47 283 47 q 82 97 132 47 q 31 221 31 147 q 87 347 31 300 q 235 393 142 393 l 275 393 l 275 651 l -4 651 l -4 705 l 844 705 l 844 651 m 574 393 l 574 651 l 397 651 l 397 393 l 574 393 m 275 190 l 275 347 l 228 347 q 174 309 194 347 q 153 213 153 270 q 208 88 153 88 q 256 119 237 88 q 275 190 275 149 z "},"य":{"ha":773,"x_min":-4,"x_max":821,"o":"m 551 651 l 307 651 q 396 604 363 635 q 429 536 429 572 q 375 435 429 477 q 245 393 322 393 l 151 393 q 217 216 151 282 q 395 149 283 149 q 551 210 479 149 l 551 651 m 551 163 q 334 95 469 95 q 113 182 194 95 q 33 416 33 269 q 35 461 33 448 q 151 434 93 434 q 257 463 214 434 q 300 543 300 492 q 278 607 300 580 q 212 651 256 634 l -4 651 l -4 705 l 821 705 l 821 651 l 673 651 l 673 81 q 702 43 673 59 q 768 27 730 27 l 768 0 l 456 0 l 456 27 q 522 43 494 27 q 551 81 551 58 l 551 163 z "},"र":{"ha":581,"x_min":-4,"x_max":628,"o":"m 628 651 l 307 651 q 457 572 398 635 q 517 427 517 509 q 427 269 517 335 q 212 203 336 203 q 319 104 265 140 q 415 68 373 68 q 474 87 444 68 q 524 142 503 107 l 551 122 q 477 33 530 66 q 361 0 425 0 q 260 22 311 0 q 171 81 209 43 q 65 180 106 146 q 8 217 24 214 l 8 244 q 75 237 24 243 q 144 231 119 231 q 297 294 234 231 q 361 448 361 357 q 311 580 361 523 q 184 651 261 637 l -4 651 l -4 705 l 628 705 l 628 651 z "},"ऱ":{"ha":581,"x_min":-4,"x_max":628,"o":"m 628 651 l 307 651 q 457 572 398 635 q 517 427 517 509 q 427 269 517 335 q 212 203 336 203 q 319 104 265 140 q 415 68 373 68 q 474 87 444 68 q 524 142 503 107 l 551 122 q 477 33 530 66 q 361 0 425 0 q 260 22 311 0 q 171 81 209 43 q 65 180 106 146 q 8 217 24 214 l 8 244 q 75 237 24 243 q 144 231 119 231 q 297 294 234 231 q 361 448 361 357 q 311 580 361 523 q 184 651 261 637 l -4 651 l -4 705 l 628 705 l 628 651 m 102 -94 q 60 -77 77 -94 q 42 -35 42 -59 q 60 7 42 -10 q 102 25 77 25 q 144 7 126 25 q 161 -35 161 -10 q 144 -77 161 -59 q 102 -94 126 -94 z "},"ल":{"ha":891,"x_min":-4,"x_max":939,"o":"m 669 488 q 648 490 658 490 q 556 439 593 490 q 519 326 519 389 l 486 326 q 443 440 486 393 q 336 488 400 488 q 216 424 266 488 q 167 271 167 359 q 217 118 167 182 q 336 54 267 54 q 418 81 385 54 l 438 61 q 296 14 398 14 q 118 93 192 14 q 45 285 45 173 q 118 477 45 398 q 296 556 191 556 q 421 521 364 556 q 506 427 479 486 q 566 501 522 471 q 669 536 609 530 l 669 651 l -4 651 l -4 705 l 939 705 l 939 651 l 791 651 l 791 81 q 820 43 791 59 q 886 27 848 27 l 886 0 l 574 0 l 574 27 q 640 43 612 27 q 669 81 669 58 l 669 488 z "},"ळ":{"ha":894,"x_min":-4,"x_max":941,"o":"m 411 437 q 304 515 366 515 q 208 444 248 515 q 168 271 168 372 q 205 105 168 176 q 290 34 241 34 q 357 106 330 34 q 385 285 385 178 q 411 437 385 380 m 467 113 q 589 47 514 47 q 684 113 644 47 q 724 271 724 178 q 689 445 724 375 q 602 515 653 515 q 533 445 558 515 q 507 273 507 374 q 467 113 507 170 m 442 76 q 290 0 394 0 q 118 84 190 0 q 46 285 46 168 q 114 477 46 398 q 277 556 181 556 q 430 472 382 556 q 548 556 468 536 l 548 651 l -4 651 l -4 705 l 941 705 l 941 651 l 670 651 l 670 556 q 799 453 751 527 q 846 285 846 379 q 778 84 846 168 q 595 0 710 0 q 442 76 499 0 m 612 563 z "},"ऴ":{"ha":894,"x_min":-4,"x_max":941,"o":"m 411 437 q 304 515 366 515 q 208 444 248 515 q 168 271 168 372 q 205 105 168 176 q 290 34 241 34 q 357 106 330 34 q 385 285 385 178 q 411 437 385 380 m 467 113 q 589 47 514 47 q 684 113 644 47 q 724 271 724 178 q 689 445 724 375 q 602 515 653 515 q 533 445 558 515 q 507 273 507 374 q 467 113 507 170 m 442 76 q 290 0 394 0 q 118 84 190 0 q 46 285 46 168 q 114 477 46 398 q 277 556 181 556 q 430 472 382 556 q 548 556 468 536 l 548 651 l -4 651 l -4 705 l 941 705 l 941 651 l 670 651 l 670 556 q 799 453 751 527 q 846 285 846 379 q 778 84 846 168 q 595 0 710 0 q 442 76 499 0 m 612 563 m 427 -148 q 385 -130 402 -148 q 367 -88 367 -113 q 385 -46 367 -64 q 427 -28 402 -28 q 469 -46 451 -28 q 486 -88 486 -64 q 469 -130 486 -113 q 427 -148 451 -148 z "},"व":{"ha":696,"x_min":-4,"x_max":743,"o":"m 473 203 l 473 468 q 324 536 417 536 q 207 478 253 536 q 161 339 161 421 q 208 201 161 259 q 324 142 255 142 q 473 203 401 142 m 595 651 l 595 81 q 624 43 595 59 q 690 27 653 27 l 690 0 l 378 0 l 378 27 q 445 43 416 27 q 473 81 473 58 l 473 156 q 297 95 401 95 q 115 167 191 95 q 39 339 39 239 q 114 512 39 440 q 297 583 189 583 q 473 515 391 583 l 473 651 l -4 651 l -4 705 l 743 705 l 743 651 l 595 651 z "},"श":{"ha":903,"x_min":30,"x_max":951,"o":"m 328 353 q 431 396 391 353 q 472 500 472 439 q 432 609 472 567 q 328 651 393 651 q 222 608 266 651 q 179 502 179 565 q 222 396 179 439 q 328 353 266 353 m 464 377 q 288 305 379 305 q 121 363 191 305 q 50 502 50 422 q 131 641 50 583 q 328 699 212 699 q 520 609 441 699 q 600 393 600 520 q 524 182 600 269 q 342 95 448 95 q 247 122 293 95 q 353 12 309 44 q 477 -20 397 -20 l 477 -54 l 396 -54 q 262 -29 317 -54 q 179 47 208 -3 q 109 137 146 104 q 30 176 72 169 l 30 203 l 206 203 q 301 142 258 142 q 419 208 374 142 q 464 377 464 273 m 951 651 l 803 651 l 803 81 q 832 43 803 59 q 898 27 861 27 l 898 0 l 586 0 l 586 27 q 652 43 624 27 q 681 81 681 58 l 681 651 l 559 651 l 559 705 l 951 705 l 951 651 m 648 7 z "},"ष":{"ha":724,"x_min":-4,"x_max":772,"o":"m 495 197 l 190 617 l 190 298 q 237 183 190 231 q 353 136 285 136 q 495 197 441 136 m 502 651 l 224 651 l 502 271 l 502 651 m 502 163 q 312 81 433 81 q 139 145 211 81 q 68 298 68 210 l 68 651 l -4 651 l -4 705 l 772 705 l 772 651 l 624 651 l 624 81 q 653 43 624 59 q 719 27 682 27 l 719 0 l 407 0 l 407 27 q 473 43 445 27 q 502 81 502 58 l 502 163 z "},"स":{"ha":901,"x_min":-4,"x_max":949,"o":"m 679 346 q 611 339 638 339 q 504 363 555 339 q 399 251 473 288 q 211 214 326 214 q 332 94 290 120 q 415 68 375 68 q 524 143 479 68 l 550 122 q 358 0 494 0 q 250 24 300 0 q 144 109 200 47 q 3 231 49 219 l 14 267 q 139 244 85 244 q 307 300 240 244 q 374 444 374 356 q 365 504 374 475 q 337 559 355 533 q 294 606 319 585 q 237 639 269 627 q 193 652 205 652 l -4 652 l -4 705 l 949 705 l 949 652 l 802 652 l 802 82 q 830 44 802 60 q 897 28 858 28 l 897 0 l 585 0 l 585 28 q 649 41 619 28 q 679 82 679 55 l 679 346 m 679 400 l 679 652 l 300 652 q 460 568 404 630 q 517 415 517 507 q 611 386 557 386 q 679 400 640 386 z "},"ह":{"ha":682,"x_min":-4,"x_max":730,"o":"m 730 651 l 563 651 l 563 495 l 351 495 q 288 479 312 495 q 264 441 264 464 q 298 387 264 414 q 373 393 336 393 q 571 346 498 393 q 644 217 644 298 q 588 100 644 146 q 454 54 531 54 q 332 95 382 54 l 332 129 q 407 109 360 109 q 488 141 454 109 q 522 217 522 173 q 475 313 522 273 q 359 353 428 353 q 217 307 278 353 q 156 190 156 261 q 236 46 156 106 q 427 -14 315 -14 q 644 41 576 -14 l 604 -54 l 420 -54 q 131 3 227 -54 q 34 176 34 61 q 81 288 34 237 q 203 359 127 338 q 136 448 136 393 q 177 515 136 487 q 278 543 218 543 l 441 543 l 441 651 l -4 651 l -4 705 l 730 705 l 730 651 z "},"़":{"ha":0,"x_min":-640,"x_max":-521,"o":"m -581 -100 q -623 -83 -605 -100 q -640 -41 -640 -65 q -623 1 -640 -16 q -581 19 -605 19 q -538 1 -556 19 q -521 -41 -521 -16 q -538 -83 -521 -65 q -581 -100 -556 -100 z "},"ऽ":{"ha":594,"x_min":22,"x_max":564,"o":"m 22 229 l 157 229 q 198 100 157 155 q 293 46 238 46 q 402 88 363 46 q 442 197 442 130 q 422 275 442 239 q 361 340 401 311 l 157 487 q 106 539 123 511 q 90 597 90 566 q 122 666 90 637 q 198 694 154 694 l 496 694 l 496 646 l 293 646 q 244 627 264 646 q 224 581 224 609 q 240 519 224 547 q 288 468 256 491 l 496 316 q 547 260 530 291 q 564 193 564 229 q 484 63 564 117 q 293 9 404 9 q 102 75 182 9 q 22 229 22 140 m 361 705 z "},"ा":{"ha":323,"x_min":-4,"x_max":370,"o":"m 370 651 l 222 651 l 222 81 q 251 43 222 59 q 317 27 280 27 l 317 0 l 5 0 l 5 27 q 72 43 43 27 q 100 81 100 58 l 100 651 l -4 651 l -4 705 l 370 705 l 370 651 z "},"ि":{"ha":323,"x_min":-4,"x_max":819,"o":"m 370 651 l 222 651 l 222 81 q 251 43 222 59 q 317 27 280 27 l 317 0 l 5 0 l 5 27 q 72 43 43 27 q 100 81 100 58 l 100 651 l -4 651 l -4 705 l 370 705 l 370 651 m 819 719 l 697 719 q 609 892 697 821 q 392 963 520 963 q 243 922 304 963 q 182 822 182 880 q 222 719 182 764 l 100 719 q 60 822 60 764 q 155 948 60 896 q 392 1001 251 1001 q 696 919 573 1001 q 819 719 819 836 z "},"ी":{"ha":323,"x_min":-266,"x_max":370,"o":"m 370 651 l 222 651 l 222 81 q 251 43 222 59 q 317 27 280 27 l 317 0 l 5 0 l 5 27 q 72 43 43 27 q 100 81 100 58 l 100 651 l -4 651 l -4 705 l 370 705 l 370 651 m 222 719 l 100 719 l 100 758 q 61 905 100 845 q -35 966 21 966 q -112 931 -81 966 q -144 849 -144 896 q -90 719 -144 783 l -212 719 q -251 772 -235 738 q -266 842 -266 806 q -208 958 -266 911 q -62 1005 -149 1005 q 140 933 57 1005 q 222 758 222 862 l 222 719 z "},"ु":{"ha":0,"x_min":-656,"x_max":22,"o":"m -656 -102 l -534 -102 q -452 -217 -529 -170 q -270 -264 -374 -264 q -150 -227 -199 -264 q -100 -136 -100 -189 q -116 -67 -100 -94 q -155 -41 -131 -41 q -193 -65 -178 -41 q -209 -122 -209 -90 l -331 -122 q -266 -33 -315 -66 q -155 0 -217 0 q -29 -40 -80 0 q 22 -136 22 -79 q -58 -265 22 -212 q -250 -319 -138 -319 q -516 -258 -402 -319 q -656 -102 -631 -197 z "},"ू":{"ha":0,"x_min":-412,"x_max":252,"o":"m 252 -312 l 130 -312 q 47 -119 130 -198 q -155 -41 -35 -41 q -250 -83 -210 -41 q -290 -183 -290 -125 q -274 -249 -290 -220 q -236 -278 -258 -278 q -197 -251 -213 -278 q -182 -183 -182 -224 l -60 -183 q -121 -280 -71 -242 q -236 -319 -171 -319 q -360 -278 -309 -319 q -412 -183 -412 -238 q -338 -54 -412 -107 q -155 0 -263 0 q 134 -91 15 0 q 252 -312 252 -182 z "},"ृ":{"ha":0,"x_min":-446,"x_max":-53,"o":"m -53 -326 l -175 -326 q -372 -280 -298 -326 q -446 -163 -446 -235 q -372 -45 -446 -90 q -175 0 -298 0 l -53 0 l -53 -41 l -175 -41 q -281 -76 -238 -41 q -324 -163 -324 -112 q -280 -249 -324 -212 q -175 -285 -237 -285 l -53 -285 l -53 -326 z "},"ॄ":{"ha":0,"x_min":-426,"x_max":-53,"o":"m -53 -332 l -297 -332 q -388 -306 -349 -332 q -426 -241 -426 -279 q -400 -198 -426 -220 q -331 -161 -374 -175 q -398 -133 -370 -155 q -426 -80 -426 -110 q -381 -19 -426 -41 q -283 4 -336 4 l -94 4 l -94 -34 l -202 -34 q -269 -52 -241 -34 q -297 -94 -297 -69 q -275 -128 -297 -113 q -222 -142 -253 -142 l -141 -142 l -141 -180 l -209 -180 q -270 -197 -243 -180 q -297 -241 -297 -214 q -269 -281 -297 -264 q -202 -297 -241 -297 l -53 -297 l -53 -332 z "},"ॅ":{"ha":0,"x_min":-439,"x_max":130,"o":"m 130 990 q 47 837 130 900 q -155 773 -36 773 q -356 837 -272 773 q -439 990 -439 901 l -304 990 q -262 866 -304 918 q -155 814 -220 814 q -47 866 -90 814 q -5 990 -5 918 l 130 990 z "},"ॆ":{"ha":0,"x_min":-670,"x_max":-107,"o":"m -107 719 l -216 719 q -275 806 -216 770 q -416 842 -334 842 q -596 903 -522 842 q -670 1051 -670 964 l -534 1051 q -480 931 -534 981 q -349 882 -425 882 q -181 837 -255 882 q -107 719 -107 792 z "},"े":{"ha":0,"x_min":-602,"x_max":-73,"o":"m -73 719 l -209 719 q -277 745 -248 719 l -494 939 q -529 959 -511 954 q -575 964 -546 964 l -602 964 l -602 1004 l -453 1004 q -358 964 -400 1004 l -155 777 q -87 751 -127 751 l -73 751 l -73 719 z "},"ै":{"ha":0,"x_min":-670,"x_max":-19,"o":"m -19 773 l -127 773 q -187 806 -161 773 l -298 943 q -372 977 -326 977 l -467 977 l -467 1017 l -267 1017 q -197 981 -225 1017 l -87 841 q -33 814 -66 814 l -19 814 l -19 773 m -155 719 l -304 719 q -385 753 -342 719 l -548 882 q -616 909 -583 909 l -670 909 l -670 949 l -521 949 q -439 922 -473 949 l -269 787 q -197 760 -235 760 l -155 760 l -155 719 z "},"ॉ":{"ha":323,"x_min":-290,"x_max":370,"o":"m 370 651 l 222 651 l 222 81 q 251 43 222 59 q 317 27 280 27 l 317 0 l 5 0 l 5 27 q 72 43 43 27 q 100 81 100 58 l 100 651 l -4 651 l -4 705 l 370 705 l 370 651 m 279 983 q 196 830 279 893 q -5 766 113 766 q -207 830 -123 766 q -290 983 -290 895 l -155 983 q -113 859 -155 911 q -5 807 -71 807 q 102 859 60 807 q 144 983 144 911 l 279 983 z "},"ॊ":{"ha":323,"x_min":-349,"x_max":370,"o":"m 370 651 l 222 651 l 222 81 q 251 43 222 59 q 317 27 280 27 l 317 0 l 5 0 l 5 27 q 72 43 43 27 q 100 81 100 58 l 100 651 l -4 651 l -4 705 l 370 705 l 370 651 m 214 719 l 105 719 q 46 806 105 770 q -96 842 -13 842 q -275 903 -201 842 q -349 1051 -349 964 l -214 1051 q -159 931 -214 981 q -28 882 -104 882 q 140 837 66 882 q 214 719 214 792 z "},"ो":{"ha":323,"x_min":-272,"x_max":370,"o":"m 370 651 l 222 651 l 222 81 q 251 43 222 59 q 317 27 280 27 l 317 0 l 5 0 l 5 27 q 72 43 43 27 q 100 81 100 58 l 100 651 l -4 651 l -4 705 l 370 705 l 370 651 m 257 719 l 121 719 q 54 745 83 719 l -163 939 q -198 959 -181 954 q -245 964 -216 964 l -272 964 l -272 1004 l -123 1004 q -28 964 -70 1004 l 176 777 q 243 751 203 751 l 257 751 l 257 719 z "},"ौ":{"ha":323,"x_min":-271,"x_max":380,"o":"m 370 651 l 222 651 l 222 81 q 251 43 222 59 q 317 27 280 27 l 317 0 l 5 0 l 5 27 q 72 43 43 27 q 100 81 100 58 l 100 651 l -4 651 l -4 705 l 370 705 l 370 651 m 380 773 l 271 773 q 212 806 238 773 l 100 943 q 27 977 73 977 l -68 977 l -68 1017 l 132 1017 q 202 981 174 1017 l 312 841 q 366 814 333 814 l 380 814 l 380 773 m 244 719 l 95 719 q 14 753 56 719 l -149 882 q -217 909 -184 909 l -271 909 l -271 949 l -122 949 q -41 922 -75 949 l 130 787 q 202 760 164 760 l 244 760 l 244 719 z "},"्":{"ha":0,"x_min":-304,"x_max":252,"o":"m 252 -292 l 117 -292 l -182 -61 l -222 -88 l -304 -88 l -222 -20 l -87 -20 l 252 -292 z "},"ॐ":{"ha":1150,"x_min":26,"x_max":1111,"o":"m 26 339 l 66 339 q 132 154 66 233 q 297 75 198 75 q 402 111 357 75 q 446 203 446 148 q 399 314 446 269 q 283 359 352 359 l 229 359 l 229 400 l 297 400 q 393 438 353 400 q 433 529 433 475 q 393 611 433 577 q 297 644 353 644 q 229 627 261 644 q 168 576 197 610 l 134 597 q 213 668 162 644 q 338 692 264 692 q 489 646 423 692 q 555 529 555 601 q 520 436 555 475 q 433 387 485 396 l 433 380 q 546 318 503 367 q 589 203 589 270 q 510 59 589 119 q 317 0 431 0 q 109 101 192 0 q 26 339 26 202 m 636 876 q 594 894 612 876 q 576 936 576 911 q 594 978 576 960 q 636 996 612 996 q 678 978 661 996 q 696 936 696 960 q 678 894 696 911 q 636 876 661 876 m 867 882 q 797 746 867 800 q 636 692 728 692 q 475 746 545 692 q 406 882 406 800 l 528 882 q 560 776 528 820 q 636 732 592 732 q 713 775 681 732 q 745 882 745 818 l 867 882 m 704 109 l 718 142 q 840 115 755 115 q 945 169 901 115 q 989 298 989 223 q 947 422 989 370 q 840 475 905 475 q 693 414 777 475 q 568 359 609 353 l 568 407 q 711 479 623 407 q 853 549 797 549 q 1036 476 961 549 q 1111 298 1111 404 q 1041 135 1111 203 q 873 68 972 68 q 704 109 777 68 z "},"॑":{"ha":0,"x_min":-195,"x_max":-114,"o":"m -114 793 l -195 793 l -195 1010 l -114 1010 l -114 793 z "},"॒":{"ha":0,"x_min":-655,"x_max":-107,"o":"m -107 -68 l -655 -68 l -655 -14 l -107 -14 l -107 -68 z "},"॓":{"ha":0,"x_min":-274,"x_max":-38,"o":"m -38 789 l -77 789 l -274 981 l -142 981 l -38 789 z "},"॔":{"ha":0,"x_min":-270,"x_max":-34,"o":"m -34 981 l -231 789 l -270 789 l -165 981 l -34 981 z "},"क़":{"ha":1069,"x_min":-4,"x_max":1116,"o":"m 473 203 l 473 468 q 324 536 417 536 q 207 478 253 536 q 161 339 161 421 q 208 201 161 259 q 324 142 255 142 q 473 203 401 142 m 595 475 l 595 81 q 624 43 595 59 q 690 27 653 27 l 690 0 l 378 0 l 378 27 q 445 43 416 27 q 473 81 473 58 l 473 156 q 297 95 401 95 q 115 167 191 95 q 39 339 39 239 q 114 512 39 440 q 297 583 189 583 q 473 515 391 583 l 473 651 l -4 651 l -4 705 l 1116 705 l 1116 651 l 595 651 l 595 529 q 772 583 662 583 q 955 513 880 583 q 1029 339 1029 442 q 954 166 1029 237 q 772 95 878 95 q 623 149 691 95 l 636 183 q 745 142 683 142 q 860 200 812 142 q 907 339 907 258 q 860 478 907 421 q 745 536 813 536 q 595 475 648 536 m 293 -182 q 251 -164 269 -182 q 233 -122 233 -146 q 251 -80 233 -98 q 293 -62 269 -62 q 335 -80 317 -62 q 353 -122 353 -98 q 335 -164 353 -146 q 293 -182 317 -182 z "},"ख़":{"ha":1166,"x_min":-4,"x_max":1214,"o":"m 944 203 l 944 461 q 795 549 911 549 q 670 488 721 549 q 618 339 618 427 q 670 181 618 248 q 795 115 722 115 q 880 139 840 115 q 944 203 921 163 m 944 142 q 862 88 909 108 q 768 68 814 68 q 618 102 680 68 q 520 27 578 54 q 401 0 463 0 q 198 88 286 0 q 8 231 56 231 l 22 271 q 144 244 96 244 q 289 313 231 244 q 347 475 347 382 q 311 581 347 532 q 212 651 274 629 l -4 651 l -4 705 l 1214 705 l 1214 651 l 1066 651 l 1066 81 q 1095 43 1066 59 q 1161 27 1124 27 l 1161 0 l 849 0 l 849 27 q 916 43 887 27 q 944 81 944 58 l 944 142 m 944 529 l 944 651 l 293 651 q 419 575 370 631 q 469 448 469 519 q 398 280 469 349 q 225 210 326 210 q 350 106 281 144 q 483 68 419 68 q 591 122 525 68 q 522 218 547 159 q 496 339 496 276 q 575 521 496 446 q 768 597 654 597 q 944 529 861 597 m 92 -75 q 50 -58 67 -75 q 32 -16 32 -40 q 50 26 32 9 q 92 44 67 44 q 134 26 116 44 q 151 -16 151 9 q 134 -58 151 -40 q 92 -75 116 -75 z "},"ग़":{"ha":856,"x_min":-4,"x_max":903,"o":"m 233 420 q 176 384 199 420 q 152 298 152 347 q 176 213 152 250 q 233 176 200 176 q 291 212 267 176 q 315 298 315 247 q 292 386 315 351 q 233 420 269 420 m 633 651 l 288 651 q 461 565 391 633 q 532 407 532 497 q 444 215 532 294 q 233 136 356 136 q 90 184 150 136 q 30 301 30 233 q 84 419 30 370 q 213 468 138 468 q 329 419 281 468 q 376 298 376 370 l 382 298 q 410 407 410 332 q 343 566 410 498 q 179 651 277 633 l -4 651 l -4 705 l 903 705 l 903 651 l 755 651 l 755 81 q 784 43 755 59 q 850 27 813 27 l 850 0 l 538 0 l 538 27 q 605 43 576 27 q 633 81 633 58 l 633 651 m 571 7 m 252 -134 q 210 -117 228 -134 q 193 -75 193 -99 q 210 -33 193 -50 q 252 -15 228 -15 q 294 -33 277 -15 q 312 -75 312 -50 q 294 -117 312 -99 q 252 -134 277 -134 z "},"ज़":{"ha":905,"x_min":-4,"x_max":952,"o":"m 682 448 l 452 448 q 551 374 515 425 q 587 258 587 323 q 518 95 587 162 q 350 27 448 27 q 125 153 218 27 q 31 454 31 279 l 72 454 q 151 227 83 325 q 316 129 218 129 q 422 172 379 129 q 465 278 465 216 q 418 399 465 349 q 302 448 371 448 l 275 448 l 275 489 l 682 489 l 682 651 l -4 651 l -4 705 l 952 705 l 952 651 l 804 651 l 804 81 q 833 43 804 59 q 899 27 862 27 l 899 0 l 587 0 l 587 27 q 654 43 625 27 q 682 81 682 58 l 682 448 m 355 -163 q 313 -146 330 -163 q 295 -104 295 -128 q 313 -62 295 -79 q 355 -44 330 -44 q 397 -62 379 -44 q 414 -104 414 -79 q 397 -146 414 -128 q 355 -163 379 -163 z "},"ड़":{"ha":766,"x_min":-4,"x_max":814,"o":"m 814 651 l 635 651 l 635 502 l 404 502 q 313 485 343 502 q 282 434 282 468 q 316 383 282 400 q 418 366 350 366 l 499 366 q 634 321 578 366 q 689 210 689 276 q 601 62 689 123 q 391 0 513 0 q 141 109 245 0 q 24 373 38 217 l 65 380 q 174 153 77 245 q 397 61 270 61 q 518 102 469 61 q 567 203 567 143 q 534 286 567 252 q 450 319 501 319 l 343 319 q 212 354 263 319 q 160 448 160 389 q 211 527 160 497 q 343 556 261 556 l 513 556 l 513 651 l -4 651 l -4 705 l 814 705 l 814 651 m 388 -182 q 346 -165 363 -182 q 328 -123 328 -147 q 346 -81 328 -98 q 388 -63 363 -63 q 430 -81 412 -63 q 448 -123 448 -98 q 430 -165 448 -147 q 388 -182 412 -182 z "},"ढ़":{"ha":781,"x_min":-4,"x_max":829,"o":"m 829 651 l 636 651 l 636 502 l 446 502 q 245 434 329 502 q 161 271 161 366 q 220 110 161 178 q 365 41 278 41 l 419 41 q 360 116 382 67 q 338 224 338 164 q 397 363 338 306 q 541 420 456 420 q 685 361 626 420 q 745 217 745 302 q 676 63 745 126 q 514 0 608 0 l 365 0 q 136 80 232 0 q 39 271 39 160 q 138 464 39 385 q 378 543 237 543 l 514 543 l 514 651 l -4 651 l -4 705 l 829 705 l 829 651 m 514 366 q 428 320 463 366 q 392 210 392 274 q 428 91 392 141 q 514 41 465 41 q 591 90 559 41 q 623 210 623 138 q 591 322 623 277 q 514 366 560 366 m 408 -182 q 366 -164 384 -182 q 349 -122 349 -146 q 366 -80 349 -98 q 408 -62 384 -62 q 450 -80 433 -62 q 468 -122 468 -98 q 450 -164 468 -146 q 408 -182 433 -182 z "},"फ़":{"ha":910,"x_min":-4,"x_max":958,"o":"m 393 651 l 190 651 l 190 285 q 220 213 190 243 q 292 183 250 183 q 364 213 334 183 q 393 285 393 243 l 393 651 m 393 176 q 244 122 327 122 q 120 169 172 122 q 68 285 68 215 l 68 651 l -4 651 l -4 705 l 958 705 l 958 651 l 515 651 l 515 529 q 637 570 562 570 q 806 507 743 570 q 868 339 868 445 q 805 171 868 234 q 637 109 741 109 q 543 136 575 109 l 549 163 q 610 149 575 149 q 696 204 661 149 q 732 339 732 259 q 697 470 732 417 q 610 522 662 522 q 515 475 556 522 l 515 81 q 544 43 515 59 q 610 27 573 27 l 610 0 l 298 0 l 298 27 q 365 43 336 27 q 393 81 393 58 l 393 176 m 239 -182 q 197 -164 214 -182 q 179 -122 179 -146 q 197 -80 179 -98 q 239 -62 214 -62 q 281 -80 263 -62 q 298 -122 298 -98 q 281 -164 298 -146 q 239 -182 263 -182 z "},"य़":{"ha":773,"x_min":-4,"x_max":821,"o":"m 551 651 l 307 651 q 396 604 363 635 q 429 536 429 572 q 375 435 429 477 q 245 393 322 393 l 151 393 q 217 216 151 282 q 395 149 283 149 q 551 210 479 149 l 551 651 m 551 163 q 334 95 469 95 q 113 182 194 95 q 33 416 33 269 q 35 461 33 448 q 151 434 93 434 q 257 463 214 434 q 300 543 300 492 q 278 607 300 580 q 212 651 256 634 l -4 651 l -4 705 l 821 705 l 821 651 l 673 651 l 673 81 q 702 43 673 59 q 768 27 730 27 l 768 0 l 456 0 l 456 27 q 522 43 494 27 q 551 81 551 58 l 551 163 m 240 -81 q 198 -64 216 -81 q 180 -22 180 -46 q 198 20 180 3 q 240 38 216 38 q 282 20 264 38 q 300 -22 300 3 q 282 -64 300 -46 q 240 -81 264 -81 z "},"ॠ":{"ha":987,"x_min":-4,"x_max":1035,"o":"m 1035 651 l 544 651 l 544 326 l 747 441 q 771 512 747 481 q 829 543 795 543 q 868 528 853 543 q 883 488 883 513 q 861 451 883 471 q 795 407 839 431 q 828 342 795 373 q 910 312 861 312 l 917 264 q 849 228 877 264 q 822 142 822 191 q 854 56 822 92 q 930 19 887 19 q 971 27 955 19 l 985 -14 q 895 -30 941 -30 q 748 19 809 -30 q 686 136 686 67 q 726 236 686 191 q 829 298 766 282 q 753 393 762 339 l 544 278 l 544 95 q 564 47 544 68 q 612 27 585 27 l 612 0 l 354 0 l 354 27 q 402 46 382 27 q 422 95 422 66 l 422 237 l 62 54 l 42 95 l 313 231 l 263 342 q 197 462 227 422 q 144 502 168 502 q 42 461 88 502 l 15 495 q 164 556 87 556 q 288 510 233 556 q 381 372 342 464 l 415 292 l 422 298 l 422 651 l -4 651 l -4 705 l 1035 705 l 1035 651 z "},"ॡ":{"ha":922,"x_min":-4,"x_max":970,"o":"m 764 326 q 726 434 764 387 q 635 481 688 481 q 534 436 576 481 q 492 326 492 391 l 454 326 q 415 437 454 392 q 317 481 376 481 q 215 424 255 481 q 175 292 175 366 q 210 160 175 218 q 301 102 244 102 q 377 136 342 102 l 396 109 q 277 47 352 47 q 110 118 180 47 q 41 285 41 188 q 109 467 41 391 q 275 543 177 543 q 397 510 344 543 q 473 420 451 477 q 604 529 503 500 l 604 651 l -4 651 l -4 705 l 970 705 l 970 651 l 711 651 l 711 536 q 836 462 787 521 q 884 326 884 404 q 826 158 884 229 q 686 88 767 88 q 603 68 635 88 q 570 20 570 49 q 592 -18 570 -2 q 644 -34 614 -34 l 726 -34 l 726 -75 l 658 -75 q 595 -94 620 -75 q 570 -142 570 -114 q 598 -186 570 -168 q 665 -203 626 -203 l 814 -203 l 814 -244 l 651 -244 q 503 -214 565 -244 q 441 -142 441 -184 q 536 -54 441 -87 q 469 -25 497 -48 q 441 27 441 -3 q 491 101 441 73 q 604 129 542 129 q 716 186 669 129 q 764 326 764 243 z "},"ॢ":{"ha":0,"x_min":-471,"x_max":151,"o":"m 57 -160 q 30 -76 57 -110 q -38 -42 3 -42 q -111 -76 -81 -42 q -141 -156 -141 -109 l -168 -156 q -197 -75 -168 -107 q -269 -42 -225 -42 q -347 -83 -315 -42 q -378 -179 -378 -123 q -352 -276 -378 -234 q -281 -319 -325 -319 q -225 -294 -250 -319 l -212 -313 q -250 -346 -226 -334 q -297 -358 -274 -358 q -419 -305 -368 -358 q -471 -179 -471 -252 q -421 -51 -471 -104 q -298 3 -372 3 q -155 -87 -191 3 q -5 3 -125 3 q 106 -43 61 3 q 151 -156 151 -90 q 104 -272 151 -224 q -9 -319 58 -319 q -65 -343 -41 -319 q -90 -403 -90 -368 q -57 -465 -90 -438 q 20 -492 -24 -492 l 94 -492 l 94 -522 l 20 -522 q -121 -491 -64 -522 q -178 -403 -178 -460 q -141 -322 -178 -356 q -50 -289 -104 -289 q 27 -250 -3 -289 q 57 -160 57 -212 z "},"ॣ":{"ha":0,"x_min":-471,"x_max":151,"o":"m 57 -160 q 30 -76 57 -110 q -38 -42 3 -42 q -111 -76 -81 -42 q -141 -156 -141 -109 l -168 -156 q -197 -75 -168 -107 q -269 -42 -225 -42 q -347 -83 -315 -42 q -378 -179 -378 -123 q -352 -276 -378 -234 q -281 -319 -325 -319 q -225 -294 -250 -319 l -212 -313 q -250 -346 -226 -334 q -297 -358 -274 -358 q -419 -305 -368 -358 q -471 -179 -471 -252 q -421 -51 -471 -104 q -298 3 -372 3 q -155 -87 -191 3 q -5 3 -125 3 q 106 -43 61 3 q 151 -159 151 -90 q 107 -287 151 -237 q 1 -338 64 -336 q -60 -353 -35 -338 q -85 -387 -85 -368 q -30 -429 -85 -429 l 30 -429 l 30 -458 l -20 -458 q -65 -472 -45 -458 q -85 -509 -85 -486 q -65 -539 -85 -526 q -16 -552 -44 -552 l 94 -552 l 94 -582 l -73 -582 q -147 -560 -116 -582 q -178 -509 -178 -538 q -160 -473 -178 -491 q -109 -444 -142 -455 q -157 -423 -136 -438 q -178 -393 -178 -408 q -140 -334 -178 -358 q -50 -309 -102 -309 q 26 -267 -5 -309 q 57 -160 57 -225 z "},"।":{"ha":326,"x_min":95,"x_max":231,"o":"m 231 -68 l 95 -68 l 95 746 l 231 746 l 231 -68 z "},"॥":{"ha":624,"x_min":95,"x_max":529,"o":"m 529 -68 l 393 -68 l 393 746 l 529 746 l 529 -68 m 231 -68 l 95 -68 l 95 746 l 231 746 l 231 -68 z "},"०":{"ha":678,"x_min":68,"x_max":610,"o":"m 339 81 q 148 157 228 81 q 68 339 68 233 q 147 521 68 446 q 339 597 226 597 q 532 522 453 597 q 610 339 610 448 q 531 156 610 231 q 339 81 451 81 m 339 543 q 243 482 283 543 q 203 339 203 422 q 244 196 203 256 q 339 136 284 136 q 435 195 395 136 q 475 339 475 254 q 435 484 475 425 q 339 543 395 543 m 393 -68 m 393 746 z "},"१":{"ha":678,"x_min":149,"x_max":529,"o":"m 285 285 l 434 122 q 485 51 468 85 q 502 -14 502 17 q 488 -54 502 -44 l 353 -54 q 366 -14 366 -44 q 359 43 366 19 q 339 81 353 66 l 149 285 q 266 351 218 317 q 339 420 313 385 q 204 476 260 420 q 149 610 149 531 q 201 727 149 680 q 326 773 253 773 q 469 718 409 773 q 529 583 529 663 q 463 407 529 488 q 285 285 396 326 m 407 583 q 383 690 407 648 q 326 732 359 732 q 287 695 302 732 q 271 610 271 659 q 296 511 271 557 q 359 448 320 466 q 395 509 383 475 q 407 583 407 543 m 170 -68 m 170 746 z "},"२":{"ha":678,"x_min":68,"x_max":610,"o":"m 312 224 q 378 107 338 153 q 461 61 418 61 q 543 102 507 61 l 570 68 q 420 0 513 0 q 302 40 361 0 q 203 149 243 80 q 68 285 140 260 l 81 312 q 170 289 115 312 q 258 264 229 264 q 420 318 351 264 q 488 448 488 372 q 431 578 488 525 q 292 631 374 631 q 88 549 187 631 l 68 583 q 312 705 172 705 q 524 631 437 705 q 610 448 610 556 q 522 289 610 355 q 312 224 434 224 m 393 -68 m 393 746 z "},"३":{"ha":678,"x_min":68,"x_max":610,"o":"m 610 -27 q 529 -97 580 -71 q 420 -122 477 -122 q 300 -85 361 -122 q 176 27 239 -47 q 68 95 128 84 l 81 122 q 174 102 113 122 q 264 81 234 81 q 412 117 350 81 q 475 203 475 153 q 408 295 475 258 q 258 339 340 332 l 203 339 l 203 393 l 258 393 q 394 427 313 393 q 475 509 475 460 q 425 592 475 560 q 312 624 375 624 q 213 606 282 624 q 95 549 143 588 l 68 583 q 332 705 191 705 q 525 653 439 705 q 610 515 610 600 q 538 411 610 450 q 380 372 467 372 l 380 362 q 543 314 476 362 q 610 197 610 267 q 522 77 610 126 q 312 27 434 27 q 406 -34 362 -14 q 488 -54 450 -54 q 583 0 536 -54 l 610 -27 m 156 -68 m 156 746 z "},"४":{"ha":677,"x_min":64,"x_max":613,"o":"m 613 665 q 555 432 613 532 q 403 298 497 332 q 500 250 462 288 q 538 163 538 212 q 477 46 538 92 q 335 0 416 0 q 193 46 254 0 q 132 163 132 92 q 166 264 132 219 q 260 332 201 310 q 116 458 169 366 q 64 665 64 550 l 186 665 q 217 467 186 551 q 301 353 249 383 q 434 468 383 382 q 484 665 484 555 l 613 665 m 362 278 q 283 218 313 250 q 254 163 254 186 l 254 136 q 278 60 254 92 q 335 27 302 27 q 397 67 372 27 q 423 163 423 108 q 362 278 423 243 m 393 -68 m 393 746 z "},"५":{"ha":678,"x_min":41,"x_max":637,"o":"m 495 244 q 536 115 536 174 q 491 34 536 67 q 380 0 446 0 l 271 0 l 271 34 l 339 34 q 397 55 374 34 q 420 109 420 77 q 400 210 420 155 q 332 190 364 190 q 126 261 212 190 q 41 434 41 333 l 41 705 l 163 705 l 163 434 q 213 291 163 352 q 339 231 263 231 q 380 244 357 231 q 298 354 326 290 q 271 502 271 418 q 326 645 271 585 q 461 705 381 705 q 586 644 535 705 q 637 495 637 583 q 599 349 637 416 q 495 244 561 281 m 461 298 q 512 391 495 340 q 529 502 529 442 q 510 598 529 559 q 461 637 490 637 q 413 596 433 637 q 393 502 393 555 q 410 391 393 442 q 461 298 427 340 m 393 -68 m 393 746 z "},"६":{"ha":678,"x_min":41,"x_max":637,"o":"m 637 170 q 503 -40 616 43 q 237 -122 390 -122 l 237 -81 q 374 -39 309 -81 q 464 47 439 3 q 407 27 452 40 q 326 14 362 14 q 125 67 209 14 q 41 197 41 121 q 98 304 41 256 q 245 369 155 352 l 244 377 q 129 433 176 389 q 81 536 81 477 q 155 652 81 606 q 326 699 229 699 q 576 617 478 699 l 549 583 q 393 631 493 631 q 268 595 319 631 q 217 509 217 559 q 269 423 217 459 q 393 387 321 387 l 448 387 l 448 332 l 380 332 q 228 293 279 332 q 176 197 176 254 q 225 95 176 136 q 339 54 273 54 q 481 88 420 54 q 502 170 490 103 l 637 170 m 136 -68 m 136 746 z "},"७":{"ha":678,"x_min":34,"x_max":644,"o":"m 644 271 q 569 79 644 158 q 387 0 493 0 l 359 0 q 168 80 248 0 q 88 271 88 160 l 88 604 q 76 632 88 620 q 47 644 64 644 l 34 644 l 34 705 l 102 705 q 179 666 148 705 q 210 570 210 627 l 210 271 q 260 111 210 181 q 387 41 309 41 q 495 112 454 41 q 536 271 536 183 l 441 271 q 346 312 387 271 q 305 407 305 353 l 305 543 q 346 657 305 610 q 441 705 386 705 l 509 705 q 605 658 565 705 q 644 543 644 611 l 644 271 m 522 353 l 522 597 q 510 625 522 613 q 481 637 498 637 l 468 637 q 439 625 452 637 q 427 597 427 613 l 427 353 q 439 324 427 336 q 468 312 452 312 l 481 312 q 510 324 498 312 q 522 353 522 336 m 393 -68 m 393 746 z "},"८":{"ha":678,"x_min":68,"x_max":610,"o":"m 610 203 q 531 59 610 119 q 339 0 452 0 q 148 60 227 0 q 68 203 68 120 q 116 334 68 267 q 251 454 163 400 q 384 574 334 506 q 434 705 434 642 l 556 705 q 506 574 556 642 q 373 454 456 506 q 238 334 286 400 q 190 203 190 267 q 233 89 190 136 q 339 41 275 41 q 446 89 403 41 q 488 203 488 136 l 488 244 l 610 244 l 610 203 m 393 -68 m 393 746 z "},"९":{"ha":677,"x_min":77,"x_max":600,"o":"m 349 278 q 509 181 452 229 q 566 95 566 134 q 505 21 566 48 q 376 -7 445 -7 q 237 23 295 -7 q 179 95 179 54 l 288 95 q 312 47 288 68 q 369 27 336 27 q 426 46 402 27 q 450 95 450 66 q 408 152 450 119 q 281 224 366 184 q 133 339 188 267 q 77 488 77 412 q 157 644 77 583 q 342 705 236 705 q 525 643 450 705 q 600 491 600 581 q 525 338 600 399 q 349 278 450 278 m 342 651 q 232 603 277 651 q 186 488 186 555 q 232 369 186 419 q 342 319 278 319 q 447 369 404 319 q 491 488 491 418 q 448 603 491 555 q 342 651 406 651 m 393 -68 m 393 746 z "},"॰":{"ha":629,"x_min":95,"x_max":534,"o":"m 315 -1 q 160 44 225 -1 q 95 153 95 90 q 160 262 95 217 q 315 307 224 307 q 470 262 406 307 q 534 153 534 218 q 469 44 534 90 q 315 -1 404 -1 m 315 263 q 236 231 268 263 q 205 153 205 199 q 237 75 205 108 q 315 42 269 42 q 393 74 361 42 q 425 153 425 106 q 393 232 425 201 q 315 263 362 263 z "},"‌":{"ha":0,"x_min":0,"x_max":61,"o":"m 61 -332 l 0 -332 l 0 1017 l 61 1017 l 61 -332 z "},"‍":{"ha":0,"x_min":-124,"x_max":173,"o":"m 173 754 l 140 721 l 49 813 l 49 -334 l 0 -334 l 0 813 l -91 721 l -124 754 l -8 869 l -124 983 l -91 1016 l 24 900 l 140 1016 l 173 983 l 57 869 l 173 754 z "},"–":{"ha":559,"x_min":-9,"x_max":568,"o":"m 568 248 l -9 248 l -9 287 l 568 287 l 568 248 z "},"—":{"ha":1118,"x_min":-10,"x_max":1128,"o":"m 1128 248 l -10 248 l -10 288 l 1128 288 l 1128 248 z "},"‘":{"ha":372,"x_min":101,"x_max":267,"o":"m 242 758 l 242 734 q 167 671 186 700 q 152 621 152 650 q 158 595 152 604 q 172 587 164 587 q 188 591 178 587 q 212 595 203 595 q 251 579 234 595 q 267 538 267 563 q 250 495 267 511 q 196 475 227 475 q 130 506 159 475 q 101 583 101 536 q 149 700 101 647 q 242 758 181 735 z "},"’":{"ha":372,"x_min":105,"x_max":272,"o":"m 130 475 l 130 500 q 206 562 186 533 q 220 612 220 583 q 214 637 220 629 q 200 646 208 646 q 184 642 195 646 q 161 637 170 637 q 122 653 139 637 q 105 694 105 669 q 122 736 105 721 q 177 758 145 758 q 243 727 214 758 q 272 650 272 696 q 223 532 272 585 q 130 475 191 497 z "},"“":{"ha":496,"x_min":37,"x_max":465,"o":"m 178 758 l 178 735 q 109 683 130 710 q 88 623 88 655 q 94 597 88 604 q 106 589 99 589 q 125 593 113 589 q 147 597 137 597 q 186 581 170 597 q 203 540 203 564 q 182 495 203 514 q 132 476 162 476 q 66 508 96 476 q 37 586 37 539 q 73 688 37 640 q 178 758 109 735 m 438 755 l 438 735 q 366 678 383 703 q 349 619 349 653 q 354 596 349 604 q 367 589 360 589 q 385 593 373 589 q 409 597 397 597 q 448 581 431 597 q 465 542 465 565 q 444 495 465 515 q 392 475 422 475 q 327 507 356 475 q 298 584 298 538 q 335 689 298 642 q 438 755 371 736 z "},"”":{"ha":496,"x_min":37,"x_max":465,"o":"m 63 476 l 63 498 q 135 555 118 530 q 153 614 153 581 q 147 637 153 629 q 134 644 141 644 q 116 640 128 644 q 92 635 104 635 q 53 652 69 635 q 37 692 37 669 q 58 738 37 718 q 109 758 79 758 q 174 726 144 758 q 203 648 203 695 q 166 543 203 591 q 63 476 130 496 m 323 476 l 323 498 q 392 551 371 524 q 413 610 413 578 q 408 637 413 630 q 395 644 401 644 q 376 640 388 644 q 354 635 363 635 q 315 652 332 635 q 298 693 298 669 q 319 739 298 720 q 368 758 339 758 q 435 726 406 758 q 465 647 465 694 q 428 546 465 593 q 323 476 392 498 z "},"…":{"ha":1118,"x_min":125,"x_max":992,"o":"m 186 106 q 229 88 212 106 q 247 45 247 71 q 229 2 247 20 q 186 -16 212 -16 q 143 2 161 -16 q 125 45 125 20 q 143 89 125 71 q 186 106 161 106 m 559 106 q 602 88 584 106 q 620 45 620 71 q 602 2 620 20 q 559 -16 584 -16 q 516 2 534 -16 q 498 45 498 20 q 516 89 498 71 q 559 106 534 106 m 932 106 q 975 88 957 106 q 992 45 992 71 q 975 2 992 20 q 932 -16 957 -16 q 889 2 907 -16 q 871 45 871 20 q 889 89 871 71 q 932 106 906 106 z "},"−":{"ha":631,"x_min":20,"x_max":609,"o":"m 20 349 l 20 394 l 609 394 l 609 349 l 20 349 z "},"◌":{"ha":922,"x_min":95,"x_max":827,"o":"m 461 621 q 427 636 442 621 q 412 670 412 651 q 426 704 412 690 q 461 719 440 719 q 496 705 483 719 q 510 670 510 692 q 495 635 510 649 q 461 621 481 621 m 620 579 q 586 594 601 579 q 571 628 571 609 q 585 662 571 648 q 620 677 599 677 q 655 663 642 677 q 669 628 669 650 q 654 593 669 607 q 620 579 640 579 m 302 579 q 269 594 283 579 q 254 628 254 609 q 268 662 254 648 q 302 677 281 677 q 338 663 324 677 q 351 628 351 650 q 337 593 351 607 q 302 579 322 579 m 736 463 q 703 477 718 463 q 688 511 688 492 q 702 546 688 531 q 736 560 715 560 q 772 547 758 560 q 785 511 785 533 q 771 476 785 490 q 736 463 756 463 m 187 463 q 153 477 168 463 q 138 511 138 492 q 152 546 138 531 q 187 560 166 560 q 222 547 209 560 q 236 511 236 533 q 221 476 236 490 q 187 463 207 463 m 779 304 q 745 319 760 304 q 730 353 730 334 q 744 387 730 372 q 779 401 758 401 q 814 388 800 401 q 827 353 827 374 q 813 318 827 332 q 779 304 798 304 m 144 304 q 110 319 125 304 q 95 353 95 334 q 109 387 95 372 q 144 401 123 401 q 179 388 165 401 q 193 353 193 374 q 178 318 193 332 q 144 304 163 304 m 736 145 q 703 160 718 145 q 688 194 688 175 q 702 228 688 214 q 736 243 715 243 q 772 229 758 243 q 785 194 785 216 q 771 159 785 173 q 736 145 756 145 m 187 145 q 153 160 168 145 q 138 194 138 175 q 152 228 138 214 q 187 243 166 243 q 222 229 209 243 q 236 194 236 216 q 221 159 236 173 q 187 145 207 145 m 620 28 q 586 44 600 28 q 571 79 571 59 q 585 113 571 98 q 620 127 599 127 q 655 114 642 127 q 669 79 669 100 q 655 43 669 58 q 620 28 641 28 m 302 28 q 268 44 283 28 q 254 79 254 59 q 268 113 254 98 q 302 127 281 127 q 338 114 324 127 q 351 79 351 100 q 337 43 351 58 q 302 28 323 28 m 461 -14 q 427 1 442 -14 q 412 35 412 16 q 426 70 412 55 q 461 84 440 84 q 496 71 483 84 q 510 35 510 57 q 495 0 510 14 q 461 -14 481 -14 z "},"¤":{"ha":559,"x_min":15,"x_max":543,"o":"m 433 556 l 511 634 l 543 603 l 465 526 q 521 372 521 454 q 465 217 521 288 l 543 138 l 511 108 l 433 186 q 286 130 360 130 q 193 147 238 130 q 125 186 147 163 l 45 108 l 15 138 l 94 217 q 38 371 38 281 q 94 526 38 457 l 15 603 l 45 634 l 125 556 q 197 596 153 581 q 281 612 241 612 q 360 598 318 612 q 433 556 401 584 m 279 568 q 140 510 197 568 q 82 370 82 452 q 140 232 82 290 q 279 174 197 174 q 419 232 360 174 q 477 371 477 290 q 451 469 477 420 q 377 542 424 517 q 279 568 330 568 z "},"·":{"ha":279,"x_min":79,"x_max":200,"o":"m 140 431 q 183 413 165 431 q 200 370 200 395 q 182 327 200 345 q 140 309 165 309 q 97 327 115 309 q 79 370 79 345 q 97 413 79 395 q 140 431 115 431 z "},"∙":{"ha":486,"x_min":115,"x_max":370,"o":"m 243 233 q 152 271 189 233 q 115 361 115 309 q 152 450 115 412 q 243 488 189 488 q 334 452 297 488 q 370 361 370 415 q 334 270 370 307 q 243 233 297 233 z "},"§":{"ha":559,"x_min":85,"x_max":474,"o":"m 205 460 q 154 534 170 500 q 138 602 138 567 q 183 710 138 665 q 293 755 228 755 q 392 719 353 755 q 431 635 431 682 q 417 597 431 614 q 388 587 407 587 q 358 599 370 587 q 346 629 346 612 q 350 657 346 637 q 353 681 353 670 q 337 718 353 703 q 293 732 321 732 q 226 705 254 732 q 198 637 198 677 q 213 579 198 602 q 296 499 237 541 q 446 357 405 420 q 474 263 474 312 q 445 164 474 214 q 353 77 416 114 q 406 4 391 35 q 420 -62 420 -26 q 376 -174 420 -129 q 265 -218 331 -218 q 167 -181 206 -218 q 128 -96 128 -144 q 141 -61 128 -75 q 171 -47 154 -47 q 200 -60 188 -47 q 212 -95 212 -73 q 207 -127 212 -110 q 203 -155 203 -145 q 217 -180 203 -170 q 269 -197 238 -197 q 335 -169 305 -197 q 365 -107 365 -140 q 348 -46 365 -73 q 253 46 321 -5 q 113 181 150 123 q 85 275 85 225 q 115 374 85 326 q 205 460 144 423 m 223 444 q 141 322 141 393 q 161 252 141 284 q 269 147 189 208 q 335 92 307 119 q 418 212 418 143 q 395 286 418 248 q 296 383 371 325 q 223 444 251 418 z "},"¬":{"ha":631,"x_min":20,"x_max":609,"o":"m 20 479 l 609 479 l 609 258 l 566 258 l 566 435 l 20 435 l 20 479 z "},"°":{"ha":447,"x_min":54,"x_max":389,"o":"m 221 757 q 340 708 292 757 q 389 589 389 659 q 340 470 389 519 q 221 421 291 421 q 103 470 152 421 q 54 589 54 519 q 102 708 54 659 q 221 757 151 757 m 221 711 q 135 675 170 711 q 100 589 100 640 q 135 503 100 539 q 221 467 170 467 q 307 503 271 467 q 343 589 343 539 q 308 675 343 640 q 221 711 272 711 z "},"¶":{"ha":507,"x_min":-7,"x_max":508,"o":"m 435 710 l 435 -241 l 396 -241 l 396 710 l 294 710 l 294 -241 l 254 -241 l 254 328 q 98 356 150 332 q 20 427 47 379 q -7 536 -7 475 q 16 634 -7 595 q 100 713 47 686 q 238 741 153 741 l 508 741 l 508 710 l 435 710 z "},"•":{"ha":391,"x_min":61,"x_max":335,"o":"m 198 507 q 295 467 255 507 q 335 370 335 427 q 295 273 335 313 q 198 233 255 233 q 101 273 141 233 q 61 370 61 313 q 101 467 61 427 q 198 507 141 507 z "},"ऄ":{"ha":846,"x_min":26,"x_max":894,"o":"m 26 298 l 66 298 q 124 136 66 204 q 263 68 182 68 q 363 108 321 68 q 406 206 406 148 q 364 306 406 265 q 263 346 322 346 l 216 346 l 216 387 l 263 387 q 354 422 316 387 q 392 511 392 458 q 354 601 392 565 q 263 637 317 637 q 180 609 217 637 q 127 536 143 581 l 94 556 q 171 654 115 616 q 297 692 227 692 q 450 640 387 692 q 514 515 514 589 q 479 422 514 462 q 392 373 444 382 l 392 366 q 499 308 458 355 q 541 197 541 260 q 465 57 541 115 q 283 0 389 0 q 102 88 178 0 q 26 298 26 176 m 745 651 l 745 95 q 773 47 745 67 q 840 27 802 27 l 840 0 l 528 0 l 528 27 q 594 47 566 27 q 623 95 623 66 l 623 346 l 541 346 l 541 393 l 623 393 l 623 651 l 541 651 l 541 705 l 894 705 l 894 651 l 745 651 m 738 719 l 629 719 q 570 806 629 770 q 429 842 511 842 q 249 903 323 842 q 175 1051 175 964 l 311 1051 q 365 931 311 981 q 496 882 420 882 q 664 837 590 882 q 738 719 738 792 z "},"ॽ":{"ha":732,"x_min":95,"x_max":637,"o":"m 434 203 l 298 203 q 324 317 298 267 q 393 393 350 368 q 483 481 450 427 q 515 597 515 536 q 473 721 515 669 q 366 773 431 773 q 271 721 311 773 q 231 597 231 669 q 271 475 231 522 l 136 475 q 95 597 95 522 q 175 750 95 686 q 366 814 254 814 q 558 750 479 814 q 637 597 637 687 q 609 477 637 531 q 529 393 580 422 q 460 317 486 368 q 434 203 434 267 z "},"ˇ":{"ha":372,"x_min":33,"x_max":340,"o":"m 237 575 l 136 575 l 33 756 l 50 756 l 199 640 l 323 756 l 340 756 l 237 575 z "},"˚":{"ha":372,"x_min":82,"x_max":291,"o":"m 186 777 q 260 747 230 777 q 291 673 291 716 q 260 599 291 629 q 186 568 230 568 q 113 599 143 568 q 82 673 82 629 q 112 747 82 716 q 186 777 142 777 m 186 740 q 139 721 158 740 q 119 673 119 701 q 139 626 119 646 q 186 606 158 606 q 234 626 214 606 q 253 673 253 646 q 234 721 253 701 q 186 740 214 740 z "},"ı":{"ha":311,"x_min":33,"x_max":283,"o":"m 207 515 l 207 113 q 214 51 207 66 q 234 27 221 35 q 283 20 248 20 l 283 0 l 41 0 l 41 20 q 90 27 77 20 q 110 50 102 34 q 117 113 117 66 l 117 306 q 112 411 117 387 q 100 435 108 429 q 77 442 92 442 q 41 434 62 442 l 33 454 l 183 515 l 207 515 z "},"A":{"ha":808,"x_min":9,"x_max":795,"o":"m 511 248 l 225 248 l 175 131 q 156 66 156 88 q 172 37 156 50 q 242 20 189 24 l 242 0 l 9 0 l 9 20 q 68 41 55 28 q 130 148 96 68 l 391 758 l 410 758 l 668 141 q 724 45 699 67 q 795 20 749 23 l 795 0 l 503 0 l 503 20 q 563 35 547 22 q 578 66 578 47 q 556 141 578 90 l 511 248 m 496 288 l 371 587 l 242 288 l 496 288 z "},"B":{"ha":746,"x_min":18,"x_max":684,"o":"m 517 378 q 631 326 593 361 q 684 203 684 275 q 649 97 684 147 q 554 23 614 46 q 368 0 493 0 l 18 0 l 18 20 l 46 20 q 113 50 93 20 q 125 131 125 68 l 125 609 q 110 696 125 678 q 46 720 88 720 l 18 720 l 18 741 l 338 741 q 482 727 428 741 q 607 657 564 707 q 650 543 650 608 q 616 443 650 487 q 517 378 583 399 m 231 408 q 276 401 250 404 q 334 399 302 399 q 453 417 413 399 q 515 470 494 434 q 536 547 536 505 q 483 658 536 612 q 329 704 430 704 q 231 692 274 704 l 231 408 m 231 54 q 355 39 294 39 q 506 83 454 39 q 558 193 558 127 q 534 276 558 237 q 458 339 511 316 q 327 362 405 362 q 269 361 293 362 q 231 357 245 359 l 231 54 z "},"C":{"ha":746,"x_min":41,"x_max":707,"o":"m 673 758 l 690 505 l 673 505 q 577 668 640 618 q 426 718 514 718 q 293 681 352 718 q 199 561 233 643 q 165 357 165 479 q 197 183 165 257 q 294 71 229 110 q 441 31 359 31 q 569 62 514 31 q 690 184 624 93 l 707 174 q 577 29 651 75 q 401 -17 503 -17 q 116 119 217 -17 q 41 359 41 221 q 90 562 41 469 q 227 706 140 655 q 417 758 314 758 q 575 718 497 758 q 608 706 598 706 q 634 716 623 706 q 654 758 648 731 l 673 758 z "},"D":{"ha":808,"x_min":19,"x_max":765,"o":"m 19 0 l 19 20 l 47 20 q 113 50 94 20 q 125 131 125 68 l 125 609 q 111 696 125 679 q 47 720 89 720 l 19 720 l 19 741 l 321 741 q 573 703 486 741 q 712 577 659 665 q 765 374 765 489 q 671 116 765 220 q 350 0 566 0 l 19 0 m 231 54 q 347 38 300 38 q 557 127 473 38 q 640 368 640 216 q 557 610 640 522 q 342 699 473 699 q 231 683 293 699 l 231 54 z "},"E":{"ha":683,"x_min":23,"x_max":657,"o":"m 234 700 l 234 408 l 396 408 q 481 427 460 408 q 513 515 509 452 l 533 515 l 533 257 l 513 257 q 497 326 505 311 q 465 357 488 346 q 396 368 443 368 l 234 368 l 234 123 q 238 63 234 74 q 253 47 242 53 q 295 41 264 41 l 420 41 q 511 49 483 41 q 566 83 540 58 q 635 186 600 117 l 657 186 l 593 0 l 23 0 l 23 20 l 49 20 q 99 33 75 20 q 122 59 116 41 q 129 130 129 77 l 129 612 q 115 699 129 682 q 49 720 95 720 l 23 720 l 23 741 l 593 741 l 602 578 l 581 578 q 555 659 569 637 q 514 692 541 680 q 437 700 492 700 l 234 700 z "},"F":{"ha":622,"x_min":18,"x_max":576,"o":"m 229 700 l 229 409 l 363 409 q 432 429 410 409 q 460 511 453 450 l 480 511 l 480 260 l 460 260 q 449 323 460 303 q 419 353 438 343 q 363 363 401 363 l 229 363 l 229 131 q 236 57 229 75 q 259 33 241 43 q 309 20 283 20 l 336 20 l 336 0 l 18 0 l 18 20 l 44 20 q 111 47 90 20 q 124 131 124 64 l 124 609 q 117 684 124 665 q 94 707 111 697 q 44 720 71 720 l 18 720 l 18 741 l 569 741 l 576 578 l 557 578 q 524 654 543 629 q 477 689 505 678 q 392 700 450 700 l 229 700 z "},"G":{"ha":808,"x_min":39,"x_max":791,"o":"m 686 758 l 705 524 l 686 524 q 612 655 657 611 q 441 719 545 719 q 227 607 300 719 q 165 382 165 513 q 206 189 165 276 q 313 61 247 102 q 450 20 379 20 q 529 31 490 20 q 602 61 567 41 l 602 275 q 594 348 602 331 q 568 374 585 366 q 505 383 550 383 l 505 404 l 791 404 l 791 383 l 778 383 q 720 355 735 383 q 709 275 709 334 l 709 49 q 585 -1 646 15 q 449 -17 524 -17 q 123 121 234 -17 q 39 359 39 224 q 86 546 39 456 q 239 710 142 652 q 431 758 321 758 q 505 751 472 758 q 598 722 538 744 q 640 710 629 710 q 657 720 650 710 q 666 758 665 729 l 686 758 z "},"H":{"ha":808,"x_min":19,"x_max":785,"o":"m 230 397 l 574 397 l 574 609 q 567 684 574 665 q 544 707 562 697 q 494 720 520 720 l 468 720 l 468 741 l 785 741 l 785 720 l 758 720 q 709 707 732 720 q 685 681 691 699 q 679 609 679 663 l 679 131 q 686 57 679 75 q 708 33 691 43 q 758 20 732 20 l 785 20 l 785 0 l 468 0 l 468 20 l 494 20 q 560 47 539 20 q 574 131 574 64 l 574 357 l 230 357 l 230 131 q 237 57 230 75 q 260 33 242 43 q 309 20 283 20 l 336 20 l 336 0 l 19 0 l 19 20 l 45 20 q 112 47 91 20 q 125 131 125 64 l 125 609 q 118 684 125 665 q 96 707 113 697 q 45 720 71 720 l 19 720 l 19 741 l 336 741 l 336 720 l 309 720 q 260 707 283 720 q 236 681 243 699 q 230 609 230 663 l 230 397 z "},"I":{"ha":372,"x_min":28,"x_max":345,"o":"m 345 20 l 345 0 l 28 0 l 28 20 l 54 20 q 121 47 100 20 q 134 131 134 64 l 134 609 q 127 684 134 665 q 104 707 121 697 q 54 720 80 720 l 28 720 l 28 741 l 345 741 l 345 720 l 318 720 q 252 693 273 720 q 239 609 239 676 l 239 131 q 245 57 239 75 q 269 33 251 43 q 318 20 292 20 l 345 20 z "},"J":{"ha":435,"x_min":23,"x_max":429,"o":"m 111 720 l 111 741 l 429 741 l 429 720 l 401 720 q 336 693 357 720 q 323 609 323 676 l 323 248 q 304 112 323 164 q 241 22 286 60 q 133 -17 197 -17 q 53 8 82 -17 q 23 66 23 34 q 37 107 23 94 q 79 124 55 124 q 110 113 96 124 q 145 52 124 101 q 178 22 158 22 q 205 40 192 22 q 218 104 218 58 l 218 609 q 211 684 218 665 q 188 707 205 697 q 138 720 164 720 l 111 720 z "},"K":{"ha":808,"x_min":18,"x_max":817,"o":"m 334 410 l 607 139 q 722 48 674 72 q 817 20 769 24 l 817 0 l 465 0 l 465 20 q 510 31 496 20 q 524 55 524 41 q 519 78 524 68 q 485 117 514 88 l 229 370 l 229 131 q 237 57 229 75 q 259 33 242 43 q 309 20 283 20 l 334 20 l 334 0 l 18 0 l 18 20 l 45 20 q 111 47 91 20 q 125 131 125 64 l 125 609 q 117 684 125 665 q 95 707 112 697 q 45 720 71 720 l 18 720 l 18 741 l 334 741 l 334 720 l 309 720 q 259 707 283 720 q 236 681 242 699 q 229 609 229 664 l 229 382 q 304 452 240 393 q 500 650 466 601 q 515 688 515 672 q 503 711 515 701 q 465 720 492 720 l 448 720 l 448 741 l 720 741 l 720 720 q 676 713 696 720 q 628 690 656 707 q 558 635 600 673 q 447 523 546 624 l 334 410 z "},"L":{"ha":683,"x_min":22,"x_max":659,"o":"m 641 205 l 659 201 l 595 0 l 22 0 l 22 20 l 50 20 q 117 51 97 20 q 129 132 129 68 l 129 609 q 113 696 129 679 q 50 720 92 720 l 22 720 l 22 741 l 357 741 l 357 720 q 275 709 298 721 q 242 680 251 698 q 234 597 234 663 l 234 132 q 242 69 234 86 q 262 52 249 58 q 348 47 276 47 l 401 47 q 521 59 487 47 q 584 104 555 72 q 641 205 612 136 z "},"M":{"ha":994,"x_min":18,"x_max":970,"o":"m 458 0 l 172 623 l 172 128 q 186 43 172 60 q 250 20 206 20 l 276 20 l 276 0 l 18 0 l 18 20 l 45 20 q 111 49 92 20 q 123 128 123 66 l 123 612 q 113 683 123 661 q 84 709 105 699 q 18 720 64 720 l 18 741 l 228 741 l 497 161 l 761 741 l 970 741 l 970 720 l 945 720 q 878 692 897 720 q 866 612 866 674 l 866 128 q 881 43 866 60 q 945 20 901 20 l 970 20 l 970 0 l 656 0 l 656 20 l 682 20 q 749 49 730 20 q 761 128 761 66 l 761 623 l 475 0 l 458 0 z "},"N":{"ha":808,"x_min":-15,"x_max":791,"o":"m -15 741 l 186 741 l 639 185 l 639 612 q 623 697 639 680 q 559 720 604 720 l 534 720 l 534 741 l 791 741 l 791 720 l 766 720 q 699 692 718 720 q 687 612 687 674 l 687 -12 l 667 -12 l 179 584 l 179 128 q 194 43 179 60 q 258 20 214 20 l 284 20 l 284 0 l 26 0 l 26 20 l 52 20 q 119 49 100 20 q 131 128 131 66 l 131 643 q 82 693 99 681 q 33 715 66 705 q -15 720 18 720 l -15 741 z "},"O":{"ha":808,"x_min":39,"x_max":764,"o":"m 409 758 q 659 648 553 758 q 764 374 764 538 q 658 94 764 205 q 400 -17 551 -17 q 143 92 248 -17 q 39 373 39 200 q 159 661 39 549 q 409 758 264 758 m 399 718 q 239 644 299 718 q 164 375 164 552 q 242 96 164 194 q 399 22 301 22 q 571 103 503 22 q 640 359 640 184 q 564 643 640 550 q 399 718 505 718 z "},"P":{"ha":622,"x_min":18,"x_max":583,"o":"m 229 347 l 229 131 q 245 44 229 61 q 307 20 265 20 l 336 20 l 336 0 l 18 0 l 18 20 l 46 20 q 113 51 94 20 q 125 131 125 68 l 125 609 q 110 696 125 679 q 46 720 88 720 l 18 720 l 18 741 l 290 741 q 447 720 389 741 q 543 651 504 699 q 583 536 583 602 q 523 388 583 445 q 354 332 463 332 q 296 335 327 332 q 229 347 264 339 m 229 378 q 281 370 258 372 q 319 367 303 367 q 417 411 376 367 q 458 525 458 455 q 438 614 458 572 q 382 675 418 655 q 301 696 347 696 q 229 686 273 696 l 229 378 z "},"Q":{"ha":808,"x_min":39,"x_max":765,"o":"m 492 -8 q 613 -150 548 -104 q 760 -201 677 -195 l 760 -219 q 599 -189 684 -216 q 436 -112 513 -161 q 304 -8 359 -63 q 180 59 225 24 q 76 189 113 112 q 39 372 39 267 q 147 648 39 538 q 408 758 254 758 q 659 647 553 758 q 765 370 765 537 q 689 131 765 234 q 492 -8 614 28 m 401 715 q 241 644 301 715 q 164 372 164 555 q 242 95 164 192 q 401 20 302 20 q 566 95 503 20 q 640 356 640 183 q 600 579 640 488 q 517 682 568 649 q 401 715 465 715 z "},"R":{"ha":746,"x_min":19,"x_max":755,"o":"m 755 0 l 558 0 l 307 346 q 262 345 279 345 q 247 346 255 345 q 230 346 239 346 l 230 131 q 245 44 230 61 q 307 20 266 20 l 336 20 l 336 0 l 19 0 l 19 20 l 47 20 q 114 51 94 20 q 125 131 125 68 l 125 609 q 111 696 125 679 q 47 720 89 720 l 19 720 l 19 741 l 289 741 q 463 723 407 741 q 558 660 519 706 q 597 550 597 614 q 552 431 597 481 q 414 360 508 381 l 567 148 q 657 51 620 75 q 755 20 695 26 l 755 0 m 230 380 q 248 380 240 380 q 260 380 256 380 q 420 426 366 380 q 474 543 474 472 q 431 655 474 612 q 315 699 387 699 q 230 688 284 699 l 230 380 z "},"S":{"ha":622,"x_min":70,"x_max":562,"o":"m 513 758 l 513 501 l 492 501 q 457 618 483 575 q 385 688 432 662 q 288 713 338 713 q 194 679 231 713 q 157 600 157 644 q 180 538 157 566 q 341 429 214 497 q 483 344 445 374 q 541 274 521 314 q 562 189 562 233 q 496 44 562 105 q 329 -17 431 -17 q 268 -12 296 -17 q 198 8 251 -9 q 130 25 144 25 q 109 17 117 25 q 97 -17 101 9 l 77 -17 l 77 237 l 97 237 q 135 118 111 157 q 209 52 159 78 q 317 26 258 26 q 425 62 385 26 q 465 147 465 98 q 450 202 465 174 q 403 254 435 230 q 287 323 382 270 q 152 408 192 376 q 91 478 111 440 q 70 562 70 517 q 131 700 70 642 q 287 758 192 758 q 412 728 346 758 q 455 715 442 715 q 478 723 469 715 q 492 758 487 732 l 513 758 z "},"T":{"ha":683,"x_min":34,"x_max":655,"o":"m 647 741 l 655 567 l 634 567 q 618 632 629 612 q 573 679 601 664 q 499 694 545 694 l 395 694 l 395 128 q 410 43 395 60 q 473 20 430 20 l 499 20 l 499 0 l 185 0 l 185 20 l 212 20 q 278 49 258 20 q 290 128 290 66 l 290 694 l 201 694 q 127 686 149 694 q 79 647 99 676 q 55 567 58 617 l 34 567 l 43 741 l 647 741 z "},"U":{"ha":808,"x_min":6,"x_max":795,"o":"m 533 720 l 533 741 l 795 741 l 795 720 l 768 720 q 701 684 724 720 q 689 605 689 667 l 689 304 q 667 132 689 193 q 580 26 645 71 q 404 -18 515 -18 q 220 24 283 -18 q 131 138 157 66 q 113 320 113 186 l 113 609 q 95 699 113 677 q 34 720 76 720 l 6 720 l 6 741 l 326 741 l 326 720 l 298 720 q 232 691 252 720 q 218 609 218 671 l 218 287 q 226 188 218 243 q 255 101 234 132 q 315 50 276 70 q 410 29 354 29 q 540 61 483 29 q 618 142 597 93 q 640 309 640 192 l 640 609 q 625 696 640 679 q 562 720 604 720 l 533 720 z "},"V":{"ha":808,"x_min":9,"x_max":793,"o":"m 793 741 l 793 720 q 734 695 755 713 q 683 613 705 668 l 425 -17 l 405 -17 l 127 621 q 97 682 106 671 q 63 708 83 699 q 9 720 43 718 l 9 741 l 312 741 l 312 720 q 246 703 261 715 q 231 671 231 690 q 256 585 231 643 l 444 151 l 618 580 q 644 668 644 643 q 628 698 644 684 q 575 718 612 713 q 566 720 572 719 l 566 741 l 793 741 z "},"W":{"ha":1055,"x_min":15,"x_max":1046,"o":"m 1046 741 l 1046 720 q 1000 710 1018 720 q 965 671 981 699 q 931 580 954 652 l 724 -17 l 703 -17 l 534 456 l 366 -17 l 347 -17 l 127 597 q 96 679 102 667 q 66 710 85 700 q 15 720 47 720 l 15 741 l 289 741 l 289 720 l 276 720 q 232 707 247 720 q 216 675 216 694 q 240 587 216 656 l 386 172 l 509 525 l 487 587 l 469 637 q 444 685 458 665 q 427 703 437 696 q 399 717 413 713 q 366 720 389 720 l 366 741 l 654 741 l 654 720 l 635 720 q 590 707 604 720 q 576 671 576 694 q 601 574 576 644 l 743 172 l 883 580 q 907 673 907 648 q 900 697 907 686 q 880 713 892 708 q 825 720 859 720 l 825 741 l 1046 741 z "},"X":{"ha":808,"x_min":8,"x_max":794,"o":"m 456 410 l 615 173 q 713 49 682 75 q 794 20 745 23 l 794 0 l 477 0 l 477 20 q 524 26 508 21 q 543 42 535 32 q 550 62 550 52 q 545 87 550 75 q 515 136 541 96 l 389 326 l 234 127 q 205 84 210 95 q 200 62 200 74 q 215 33 200 45 q 271 20 229 22 l 271 0 l 8 0 l 8 20 q 56 32 36 23 q 121 70 90 46 q 191 144 151 94 l 366 364 l 220 578 q 119 691 160 665 q 23 720 77 718 l 23 741 l 366 741 l 366 720 q 306 706 321 718 q 290 678 290 693 q 315 619 290 658 l 429 450 l 561 616 q 589 656 584 646 q 594 679 594 667 q 587 699 594 690 q 567 715 579 710 q 515 720 554 720 l 515 741 l 777 741 l 777 720 q 726 710 746 718 q 673 676 697 698 q 604 597 648 655 l 456 410 z "},"Y":{"ha":808,"x_min":10,"x_max":791,"o":"m 533 741 l 791 741 l 791 720 l 777 720 q 735 708 763 720 q 686 672 708 695 q 631 595 663 648 l 452 314 l 452 128 q 467 43 452 60 q 533 20 488 20 l 557 20 l 557 0 l 242 0 l 242 20 l 269 20 q 335 49 315 20 q 347 128 347 66 l 347 304 l 144 614 q 95 682 108 668 q 42 715 83 696 q 10 720 31 720 l 10 741 l 327 741 l 327 720 l 311 720 q 263 708 285 720 q 242 672 242 696 q 275 601 242 652 l 430 363 l 575 591 q 608 667 608 642 q 600 694 608 682 q 577 713 592 707 q 533 720 562 720 l 533 741 z "},"Z":{"ha":683,"x_min":14,"x_max":652,"o":"m 643 741 l 157 45 l 460 45 q 568 75 530 45 q 634 199 605 106 l 652 196 l 617 0 l 14 0 l 14 20 l 489 696 l 252 696 q 167 683 193 696 q 126 646 140 671 q 101 555 113 622 l 80 555 l 96 741 l 643 741 z "},"a":{"ha":496,"x_min":40,"x_max":494,"o":"m 318 72 q 222 3 241 13 q 159 -10 192 -10 q 74 25 107 -10 q 40 119 40 60 q 56 182 40 155 q 134 252 79 219 q 318 332 189 284 l 318 351 q 294 454 318 426 q 225 481 271 481 q 171 463 191 481 q 150 420 150 444 l 151 389 q 138 350 151 363 q 105 336 125 336 q 72 351 85 336 q 59 389 59 365 q 107 475 59 436 q 242 515 155 515 q 351 492 309 515 q 399 439 383 475 q 408 343 408 416 l 408 174 q 411 86 408 102 q 420 64 414 70 q 435 59 427 59 q 450 63 444 59 q 494 102 461 70 l 494 72 q 377 -9 433 -9 q 335 9 351 -9 q 318 72 319 27 m 318 108 l 318 298 q 212 252 236 265 q 150 201 169 228 q 132 144 132 175 q 155 79 132 105 q 209 53 178 53 q 318 108 250 53 z "},"b":{"ha":559,"x_min":-3,"x_max":520,"o":"m 172 414 q 329 515 245 515 q 463 449 406 515 q 520 269 520 383 q 432 55 520 136 q 262 -16 356 -16 q 174 0 219 -16 q 82 48 129 16 l 82 566 q 78 671 82 651 q 65 697 74 690 q 43 705 56 705 q 5 696 28 705 l -3 715 l 147 777 l 172 777 l 172 414 m 172 379 l 172 80 q 230 38 200 52 q 290 24 259 24 q 383 79 340 24 q 426 238 426 134 q 383 386 426 334 q 286 437 340 437 q 228 422 256 437 q 172 379 205 412 z "},"c":{"ha":496,"x_min":38,"x_max":460,"o":"m 460 190 q 380 38 439 91 q 250 -16 321 -16 q 101 56 165 -16 q 38 250 38 127 q 108 441 38 368 q 277 515 178 515 q 398 476 351 515 q 446 395 446 437 q 432 361 446 374 q 395 349 418 349 q 346 369 363 349 q 334 413 337 380 q 312 462 331 445 q 259 478 292 478 q 171 438 204 478 q 127 296 127 385 q 171 138 127 207 q 290 70 214 70 q 385 106 343 70 q 444 197 416 132 l 460 190 z "},"d":{"ha":559,"x_min":37,"x_max":562,"o":"m 388 56 q 316 1 351 18 q 241 -16 281 -16 q 98 53 159 -16 q 37 229 37 122 q 105 426 37 337 q 279 515 172 515 q 388 473 345 515 l 388 566 q 384 671 388 651 q 371 697 380 690 q 349 705 363 705 q 312 696 335 705 l 304 715 l 454 777 l 478 777 l 478 198 q 482 91 478 111 q 495 64 486 71 q 517 56 505 56 q 555 66 531 56 l 562 46 l 413 -16 l 388 -16 l 388 56 m 388 94 l 388 352 q 369 420 385 389 q 325 466 352 450 q 273 481 298 481 q 186 438 224 481 q 137 273 137 382 q 185 103 137 162 q 292 45 233 45 q 388 94 342 45 z "},"e":{"ha":496,"x_min":41,"x_max":465,"o":"m 119 312 q 173 137 119 200 q 301 74 228 74 q 387 101 351 74 q 448 193 423 127 l 465 182 q 398 46 453 108 q 260 -16 343 -16 q 105 55 170 -16 q 41 243 41 125 q 107 444 41 372 q 273 515 173 515 q 411 460 357 515 q 465 312 465 405 l 119 312 m 119 343 l 351 343 q 339 411 348 391 q 298 459 326 441 q 242 477 271 477 q 161 441 197 477 q 119 343 125 406 z "},"f":{"ha":372,"x_min":43,"x_max":486,"o":"m 231 460 l 231 132 q 245 43 231 62 q 300 20 266 20 l 345 20 l 345 0 l 46 0 l 46 20 l 68 20 q 109 31 91 20 q 134 60 127 41 q 140 132 140 79 l 140 460 l 43 460 l 43 500 l 140 500 l 140 533 q 164 660 140 608 q 238 743 189 711 q 349 775 287 775 q 454 738 406 775 q 486 683 486 713 q 472 652 486 667 q 441 637 458 637 q 415 647 429 637 q 380 686 401 656 q 343 726 360 715 q 306 736 326 736 q 263 723 281 736 q 238 681 245 709 q 231 536 231 653 l 231 500 l 359 500 l 359 460 l 231 460 z "},"g":{"ha":559,"x_min":33,"x_max":539,"o":"m 169 182 q 98 245 123 205 q 74 334 74 285 q 130 461 74 408 q 273 515 186 515 q 397 480 345 515 l 503 480 q 530 479 526 480 q 536 474 534 477 q 539 456 539 469 q 536 437 539 442 q 530 432 534 434 q 503 431 526 431 l 438 431 q 469 330 469 391 q 415 211 469 260 q 271 161 361 161 q 195 172 234 161 q 163 136 172 151 q 155 109 155 120 q 163 91 155 100 q 199 79 172 83 q 275 75 214 77 q 421 67 388 72 q 502 30 472 60 q 532 -46 532 -1 q 475 -161 532 -108 q 252 -241 389 -241 q 74 -194 147 -241 q 33 -137 33 -167 q 39 -111 33 -124 q 77 -55 49 -91 q 133 4 81 -50 q 93 35 105 21 q 81 65 81 48 q 97 110 81 84 q 169 182 113 136 m 264 488 q 196 456 223 488 q 169 357 169 424 q 205 224 169 271 q 278 188 234 188 q 346 219 319 188 q 373 317 373 250 q 335 452 373 404 q 264 488 307 488 m 163 0 q 124 -52 138 -28 q 111 -96 111 -76 q 143 -142 111 -122 q 301 -176 197 -176 q 446 -141 399 -176 q 492 -67 492 -106 q 465 -26 492 -39 q 352 -13 436 -15 q 163 0 229 -9 z "},"h":{"ha":559,"x_min":7,"x_max":552,"o":"m 182 777 l 182 410 q 278 496 242 477 q 349 515 313 515 q 422 491 391 515 q 467 418 452 468 q 477 290 477 382 l 477 113 q 486 48 477 66 q 504 27 491 35 q 552 20 517 20 l 552 0 l 307 0 l 307 20 l 318 20 q 366 30 353 20 q 385 62 380 41 q 387 113 387 71 l 387 290 q 379 397 387 372 q 352 436 370 423 q 307 449 333 449 q 251 435 280 449 q 182 377 222 420 l 182 113 q 188 49 182 62 q 209 28 193 37 q 262 20 224 20 l 262 0 l 15 0 l 15 20 q 67 30 48 20 q 84 51 78 35 q 91 113 91 66 l 91 566 q 87 671 91 651 q 74 697 83 690 q 52 705 66 705 q 15 696 41 705 l 7 715 l 157 777 l 182 777 z "},"i":{"ha":311,"x_min":33,"x_max":283,"o":"m 162 777 q 201 760 185 777 q 217 721 217 744 q 201 682 217 699 q 162 665 185 665 q 123 682 139 665 q 106 721 106 699 q 122 760 106 744 q 162 777 138 777 m 208 515 l 208 113 q 214 51 208 66 q 234 27 221 35 q 283 20 248 20 l 283 0 l 41 0 l 41 20 q 90 27 77 20 q 110 50 102 34 q 117 113 117 66 l 117 306 q 112 411 117 387 q 100 435 108 429 q 77 442 92 442 q 41 434 62 442 l 33 454 l 183 515 l 208 515 z "},"j":{"ha":311,"x_min":-85,"x_max":218,"o":"m 161 777 q 201 761 185 777 q 218 721 218 744 q 201 681 218 698 q 161 665 185 665 q 122 681 138 665 q 106 721 106 698 q 122 761 106 744 q 161 777 138 777 m 209 515 l 209 12 q 154 -179 209 -117 q 12 -241 100 -241 q -62 -223 -38 -241 q -85 -186 -85 -205 q -72 -153 -85 -167 q -41 -140 -59 -140 q -12 -147 -26 -140 q 24 -174 -3 -151 q 68 -198 50 -198 q 94 -188 81 -198 q 113 -154 106 -178 q 119 -52 119 -130 l 119 304 q 113 410 119 387 q 102 435 110 429 q 79 442 94 442 q 42 434 64 442 l 35 454 l 185 515 l 209 515 z "},"k":{"ha":559,"x_min":9,"x_max":566,"o":"m 183 777 l 183 279 l 310 395 q 357 441 351 432 q 361 455 361 448 q 352 474 361 466 q 323 483 343 481 l 323 500 l 540 500 l 540 483 q 465 469 495 481 q 400 424 435 456 l 272 306 l 400 144 q 472 58 454 77 q 518 25 498 33 q 566 20 532 20 l 566 0 l 323 0 l 323 20 q 351 26 343 20 q 358 42 358 32 q 336 83 358 55 l 183 279 l 183 113 q 190 48 183 64 q 209 27 197 33 q 264 20 222 20 l 264 0 l 9 0 l 9 20 q 66 29 47 20 q 84 47 78 35 q 92 110 92 66 l 92 565 q 89 671 92 652 q 76 698 85 690 q 53 705 67 705 q 18 696 41 705 l 9 715 l 158 777 l 183 777 z "},"l":{"ha":311,"x_min":33,"x_max":288,"o":"m 207 777 l 207 113 q 214 51 207 66 q 235 27 220 35 q 288 20 249 20 l 288 0 l 43 0 l 43 20 q 90 27 77 20 q 109 50 102 34 q 116 113 116 66 l 116 567 q 112 671 116 652 q 100 697 109 690 q 79 705 92 705 q 43 696 64 705 l 33 715 l 182 777 l 207 777 z "},"m":{"ha":869,"x_min":9,"x_max":865,"o":"m 183 408 q 248 471 238 463 q 301 503 273 492 q 357 515 329 515 q 438 488 404 515 q 483 408 472 460 q 578 494 539 474 q 658 515 617 515 q 729 494 698 515 q 777 427 760 474 q 789 328 789 396 l 789 113 q 796 49 789 66 q 817 28 802 37 q 865 20 831 20 l 865 0 l 618 0 l 618 20 l 629 20 q 679 32 661 20 q 696 60 691 41 q 699 113 699 69 l 699 328 q 684 414 699 389 q 616 450 663 450 q 557 435 587 450 q 487 381 528 420 l 486 375 l 487 351 l 487 113 q 493 49 487 62 q 514 28 498 37 q 568 20 530 20 l 568 0 l 315 0 l 315 20 q 372 30 357 20 q 394 59 388 39 q 397 113 397 68 l 397 328 q 379 416 397 389 q 312 451 355 451 q 254 435 282 451 q 183 381 208 411 l 183 113 q 190 49 183 64 q 211 27 197 35 q 264 20 224 20 l 264 0 l 18 0 l 18 20 q 65 27 52 20 q 86 51 79 35 q 94 113 94 66 l 94 304 q 88 410 94 387 q 77 435 85 429 q 54 442 68 442 q 18 434 39 442 l 9 454 l 160 515 l 183 515 l 183 408 z "},"n":{"ha":559,"x_min":7,"x_max":554,"o":"m 180 409 q 349 515 269 515 q 419 494 389 515 q 466 427 448 474 q 477 326 477 394 l 477 113 q 486 49 477 66 q 505 27 492 35 q 554 20 518 20 l 554 0 l 307 0 l 307 20 l 317 20 q 366 30 352 20 q 385 62 380 41 q 388 113 388 70 l 388 318 q 370 417 388 386 q 310 448 352 448 q 180 376 245 448 l 180 113 q 186 50 180 62 q 208 27 195 35 q 262 20 221 20 l 262 0 l 15 0 l 15 20 l 26 20 q 77 39 64 20 q 91 113 91 58 l 91 298 q 87 408 91 389 q 74 435 83 428 q 52 442 66 442 q 15 434 36 442 l 7 454 l 157 515 l 180 515 l 180 409 z "},"o":{"ha":559,"x_min":38,"x_max":520,"o":"m 279 515 q 462 429 393 515 q 520 259 520 355 q 488 123 520 192 q 399 20 456 55 q 273 -16 343 -16 q 94 75 161 -16 q 38 245 38 151 q 72 382 38 314 q 161 482 106 450 q 279 515 217 515 m 262 479 q 204 462 234 479 q 157 402 175 445 q 139 291 139 359 q 182 103 139 182 q 297 24 226 24 q 384 67 350 24 q 418 217 418 111 q 361 427 418 351 q 262 479 323 479 z "},"p":{"ha":559,"x_min":-4,"x_max":521,"o":"m -1 450 l 153 513 l 174 513 l 174 396 q 251 488 212 462 q 334 515 290 515 q 459 456 409 515 q 521 268 521 384 q 446 54 521 138 q 292 -16 385 -16 q 222 -4 252 -16 q 174 29 201 4 l 174 -123 q 180 -189 174 -175 q 202 -211 186 -203 q 258 -219 217 -219 l 258 -239 l -4 -239 l -4 -219 l 9 -219 q 61 -208 40 -220 q 77 -188 71 -201 q 83 -120 83 -175 l 83 353 q 78 414 83 401 q 64 434 74 427 q 39 441 55 441 q 5 433 26 441 l -1 450 m 174 363 l 174 177 q 178 97 174 116 q 216 42 186 66 q 291 18 245 18 q 379 60 346 18 q 424 217 424 116 q 374 393 424 332 q 290 435 338 435 q 239 422 264 435 q 174 363 219 413 z "},"q":{"ha":559,"x_min":37,"x_max":559,"o":"m 477 515 l 477 -128 q 484 -190 477 -176 q 505 -211 491 -203 q 559 -219 519 -219 l 559 -239 l 307 -239 l 307 -219 l 317 -219 q 363 -210 348 -219 q 381 -189 374 -204 q 388 -128 388 -173 l 388 87 q 301 6 338 28 q 224 -16 264 -16 q 94 51 151 -16 q 37 228 37 117 q 113 435 37 355 q 294 515 188 515 q 352 506 326 515 q 399 480 378 497 q 459 515 430 495 l 477 515 m 388 121 l 388 356 q 377 420 388 397 q 339 460 366 444 q 277 477 312 477 q 173 425 216 477 q 129 267 129 373 q 173 114 129 167 q 281 62 218 62 q 338 76 313 62 q 388 121 363 90 z "},"r":{"ha":372,"x_min":7,"x_max":379,"o":"m 181 515 l 181 402 q 310 515 244 515 q 360 496 340 515 q 379 454 379 478 q 365 418 379 433 q 332 404 351 404 q 288 422 312 404 q 254 441 264 441 q 232 430 243 441 q 181 357 208 408 l 181 117 q 192 54 181 75 q 217 30 199 39 q 269 20 235 20 l 269 0 l 13 0 l 13 20 q 69 32 51 20 q 88 60 83 41 q 91 113 91 68 l 91 307 q 87 410 91 393 q 75 435 84 427 q 51 442 65 442 q 13 434 34 442 l 7 454 l 158 515 l 181 515 z "},"s":{"ha":435,"x_min":55,"x_max":396,"o":"m 358 515 l 358 345 l 340 345 q 287 454 319 425 q 204 483 254 483 q 142 463 166 483 q 119 418 119 442 q 136 366 119 387 q 205 318 153 343 l 285 279 q 396 136 396 225 q 344 26 396 68 q 229 -16 292 -16 q 124 1 183 -16 q 94 7 106 7 q 75 -7 82 7 l 57 -7 l 57 171 l 75 171 q 133 56 90 94 q 230 17 176 17 q 291 39 267 17 q 315 92 315 61 q 288 156 315 130 q 183 220 262 181 q 79 292 104 260 q 55 370 55 323 q 97 473 55 432 q 206 515 139 515 q 278 503 236 515 q 315 494 306 494 q 329 498 323 494 q 340 515 334 502 l 358 515 z "},"t":{"ha":311,"x_min":11,"x_max":312,"o":"m 180 665 l 180 500 l 297 500 l 297 462 l 180 462 l 180 138 q 194 72 180 89 q 230 55 208 55 q 264 66 248 55 q 291 100 281 77 l 312 100 q 258 19 293 46 q 186 -8 223 -8 q 137 6 161 -8 q 102 45 113 20 q 90 125 90 71 l 90 462 l 11 462 l 11 480 q 72 520 41 492 q 128 589 104 549 q 163 665 141 609 l 180 665 z "},"u":{"ha":559,"x_min":1,"x_max":557,"o":"m 473 500 l 473 197 q 477 91 473 111 q 491 64 481 71 q 511 56 500 56 q 550 66 528 56 l 557 46 l 408 -16 l 383 -16 l 383 91 q 285 3 319 21 q 214 -16 251 -16 q 141 9 172 -16 q 98 72 110 33 q 85 180 85 110 l 85 403 q 78 452 85 438 q 56 473 71 466 q 1 480 41 480 l 1 500 l 176 500 l 176 165 q 201 74 176 96 q 259 52 225 52 q 313 66 283 52 q 383 123 342 81 l 383 406 q 368 464 383 449 q 303 480 352 479 l 303 500 l 473 500 z "},"v":{"ha":559,"x_min":9,"x_max":549,"o":"m 9 500 l 245 500 l 245 480 l 229 480 q 197 470 208 480 q 186 441 186 459 q 197 396 186 422 l 313 120 l 430 407 q 443 453 443 437 q 438 466 443 460 q 423 477 433 474 q 385 480 414 480 l 385 500 l 549 500 l 549 480 q 509 469 520 477 q 475 414 490 452 l 298 -16 l 275 -16 l 96 407 q 74 449 85 436 q 46 471 63 462 q 9 480 37 475 l 9 500 z "},"w":{"ha":808,"x_min":7,"x_max":797,"o":"m 7 500 l 217 500 l 217 480 q 179 469 188 477 q 170 446 170 461 q 179 405 170 429 l 286 117 l 393 351 l 366 425 q 331 471 352 458 q 286 480 319 478 l 286 500 l 524 500 l 524 480 q 469 466 485 478 q 458 438 458 457 q 462 416 458 427 l 575 128 l 681 405 q 692 452 692 435 q 681 471 692 463 q 640 480 671 479 l 640 500 l 797 500 l 797 480 q 727 416 749 473 l 560 -16 l 538 -16 l 413 304 l 267 -16 l 247 -16 l 86 405 q 55 459 71 445 q 7 480 40 473 l 7 500 z "},"x":{"ha":559,"x_min":15,"x_max":545,"o":"m 15 500 l 250 500 l 250 480 q 219 472 228 480 q 210 452 210 465 q 229 412 210 439 q 247 385 235 403 l 282 328 l 323 385 q 363 452 363 438 q 353 472 363 464 q 323 480 344 480 l 323 500 l 492 500 l 492 480 q 446 465 466 478 q 373 385 419 446 l 304 293 l 429 114 q 494 35 475 48 q 545 20 514 21 l 545 0 l 309 0 l 309 20 q 348 31 334 20 q 358 51 358 38 q 323 114 358 63 l 250 221 l 170 114 q 133 55 133 64 q 145 32 133 42 q 182 20 157 21 l 182 0 l 18 0 l 18 20 q 53 33 38 22 q 123 114 74 49 l 228 254 l 133 391 q 70 465 92 450 q 15 480 48 480 l 15 500 z "},"y":{"ha":559,"x_min":7,"x_max":553,"o":"m 7 500 l 239 500 l 239 480 l 228 480 q 191 469 203 480 q 179 443 179 458 q 197 384 179 421 l 319 132 l 431 408 q 440 452 440 430 q 436 467 440 462 q 422 476 432 473 q 390 480 413 480 l 390 500 l 553 500 l 553 480 q 522 471 532 477 q 497 446 511 465 q 479 405 492 439 l 275 -94 q 198 -204 245 -167 q 106 -241 150 -241 q 53 -223 74 -241 q 32 -180 32 -204 q 47 -143 32 -157 q 88 -130 62 -130 q 138 -141 106 -130 q 165 -150 159 -150 q 200 -133 181 -150 q 239 -67 220 -116 l 275 20 l 96 397 q 69 439 87 414 q 47 465 56 458 q 7 480 35 473 l 7 500 z "},"z":{"ha":496,"x_min":22,"x_max":478,"o":"m 469 153 l 463 0 l 22 0 l 22 20 l 354 462 l 191 462 q 121 455 138 462 q 94 429 105 448 q 77 361 80 401 l 56 361 l 59 500 l 478 500 l 478 480 l 143 37 l 326 37 q 403 46 382 37 q 436 80 424 56 q 451 153 445 97 l 469 153 z "},"€":{"ha":559,"x_min":-13,"x_max":539,"o":"m 463 402 l 149 402 q 147 357 147 379 l 449 357 l 436 315 l 149 315 q 195 122 153 199 q 326 33 243 33 q 448 71 399 33 q 522 155 477 93 l 539 144 q 454 39 492 71 q 304 -13 391 -13 q 109 91 178 -13 q 43 315 53 176 l -13 315 l 0 357 l 41 357 l 41 366 q 41 402 41 382 l -13 402 l 0 445 l 46 445 q 134 659 64 574 q 340 755 214 755 q 525 707 433 755 l 525 545 l 504 545 q 340 720 490 720 q 203 629 254 720 q 153 445 164 557 l 475 445 l 463 402 z "},"‚":{"ha":372,"x_min":111,"x_max":273,"o":"m 111 -186 l 111 -162 q 198 -105 167 -144 q 229 -22 229 -66 q 224 -4 229 -12 q 216 1 220 1 q 190 -10 210 1 q 170 -16 180 -16 q 127 0 142 -16 q 111 44 111 16 q 132 90 111 71 q 181 109 152 109 q 245 78 218 109 q 273 -5 273 46 q 234 -110 273 -62 q 111 -186 195 -158 z "},"ƒ":{"ha":559,"x_min":1,"x_max":545,"o":"m 375 477 l 472 477 l 463 441 l 368 441 q 274 55 340 295 q 162 -190 222 -131 q 68 -235 116 -235 q 19 -219 37 -235 q 1 -178 1 -202 q 14 -143 1 -157 q 43 -130 26 -130 q 68 -139 58 -130 q 79 -160 79 -149 q 71 -180 79 -172 q 66 -191 66 -187 q 70 -199 66 -195 q 79 -203 73 -203 q 100 -197 90 -203 q 132 -162 116 -188 q 164 -66 147 -136 q 212 161 168 -54 q 279 441 215 180 l 182 441 l 190 477 q 258 486 244 481 q 281 503 272 491 q 314 576 296 522 q 391 725 354 692 q 471 758 427 758 q 525 739 505 758 q 545 696 545 721 q 534 665 545 677 q 508 654 524 654 q 484 664 494 654 q 474 684 474 673 q 480 703 474 693 q 486 718 486 713 q 481 728 486 724 q 467 732 476 732 q 435 719 450 732 q 410 673 416 701 q 375 477 395 607 z "},"„":{"ha":496,"x_min":37,"x_max":465,"o":"m 63 -172 l 63 -150 q 135 -93 118 -119 q 153 -35 153 -68 q 147 -12 153 -19 q 134 -4 141 -4 q 116 -8 128 -4 q 92 -13 104 -13 q 53 4 69 -13 q 37 43 37 20 q 58 90 37 70 q 109 109 79 109 q 174 78 144 109 q 203 -1 203 47 q 166 -105 203 -58 q 63 -172 130 -153 m 323 -172 l 323 -150 q 392 -97 371 -125 q 413 -38 413 -70 q 408 -11 413 -18 q 395 -4 401 -4 q 376 -8 388 -4 q 354 -13 363 -13 q 315 4 332 -13 q 298 45 298 21 q 319 90 298 71 q 368 109 339 109 q 435 77 406 109 q 465 -1 465 45 q 428 -103 465 -56 q 323 -172 392 -150 z "},"†":{"ha":559,"x_min":55,"x_max":504,"o":"m 286 -230 l 266 -230 q 248 153 264 8 q 211 359 237 262 q 251 411 239 384 q 266 489 262 437 q 194 470 231 486 q 111 446 136 446 q 70 461 85 446 q 55 498 55 475 q 71 536 55 521 q 111 552 87 552 q 136 549 125 552 q 194 525 142 547 q 266 508 227 511 q 262 542 265 530 q 245 589 258 559 q 216 695 216 659 q 234 746 216 726 q 277 766 252 766 q 319 745 300 766 q 337 695 337 725 q 332 662 337 679 q 308 594 327 641 q 286 508 288 547 q 358 525 325 511 q 421 548 412 546 q 446 551 433 551 q 488 536 472 551 q 504 498 504 521 q 488 461 504 476 q 448 446 472 446 q 357 471 418 446 q 320 485 332 482 q 286 489 309 488 q 301 410 289 438 q 340 359 313 382 q 304 161 315 260 q 286 -230 294 63 z "},"‡":{"ha":559,"x_min":76,"x_max":483,"o":"m 290 533 q 303 479 294 497 q 340 440 313 462 q 301 361 313 400 q 290 264 290 323 q 301 172 290 210 q 340 93 312 135 q 304 53 315 71 q 290 0 294 35 q 320 6 311 3 q 359 21 330 9 q 433 40 406 40 q 469 26 455 40 q 483 -8 483 13 q 469 -44 483 -30 q 433 -58 455 -58 q 363 -38 410 -58 q 323 -24 338 -28 q 290 -20 312 -21 q 296 -64 294 -54 q 308 -94 299 -75 q 335 -184 335 -155 q 319 -225 335 -209 q 280 -241 304 -241 q 241 -224 257 -241 q 225 -182 225 -208 q 229 -155 225 -170 q 250 -93 233 -141 q 267 -20 264 -58 q 229 -24 243 -21 q 189 -40 215 -28 q 127 -58 147 -58 q 91 -45 104 -58 q 77 -10 77 -32 q 92 26 77 12 q 130 40 106 40 q 191 22 151 40 q 233 7 218 11 q 267 4 244 5 q 252 54 262 37 q 215 93 242 71 q 251 158 240 126 q 268 271 268 208 q 250 382 268 335 q 215 440 240 412 q 252 477 241 460 q 267 533 262 495 q 235 529 245 531 q 188 511 226 526 q 124 496 151 496 q 90 510 103 496 q 76 545 76 524 q 89 578 76 564 q 123 591 102 591 q 195 572 149 591 q 237 558 222 562 q 267 553 246 555 q 263 588 267 577 q 239 659 257 610 q 226 691 227 687 q 224 715 224 701 q 240 760 224 743 q 279 777 256 777 q 317 761 302 777 q 332 713 332 745 q 329 686 332 696 q 309 636 326 675 q 290 553 292 597 q 324 558 313 555 q 366 573 334 560 q 434 591 407 591 q 469 578 456 591 q 483 544 483 564 q 469 509 483 522 q 432 495 455 495 q 363 513 406 495 q 324 528 335 526 q 290 533 313 531 z "},"ˆ":{"ha":372,"x_min":33,"x_max":340,"o":"m 136 756 l 237 756 l 340 575 l 323 575 l 174 692 l 49 575 l 33 575 l 136 756 z "},"‰":{"ha":1118,"x_min":35,"x_max":1082,"o":"m 666 758 l 136 -30 l 87 -30 l 617 758 l 666 758 m 193 758 q 272 733 235 758 q 330 661 309 708 q 351 557 351 614 q 305 412 351 465 q 195 359 258 359 q 117 384 155 359 q 57 454 79 408 q 35 558 35 500 q 57 662 35 614 q 115 734 78 710 q 193 758 152 758 m 191 728 q 163 720 174 728 q 136 672 145 704 q 123 555 123 630 q 149 414 123 454 q 194 387 167 387 q 237 416 219 387 q 264 562 264 458 q 237 700 264 660 q 191 728 218 728 m 562 368 q 638 343 601 368 q 697 272 675 319 q 718 170 718 225 q 697 65 718 111 q 637 -5 676 19 q 560 -30 599 -30 q 451 23 498 -30 q 403 168 403 77 q 425 273 403 225 q 485 344 446 321 q 562 368 524 368 m 559 338 q 530 328 543 338 q 500 278 511 312 q 490 164 490 244 q 515 26 490 66 q 559 0 533 0 q 604 27 586 0 q 631 165 631 68 q 604 311 631 268 q 559 338 586 338 m 923 368 q 1000 344 960 368 q 1061 275 1040 320 q 1082 175 1082 230 q 1062 64 1082 109 q 1003 -5 1042 20 q 924 -30 964 -30 q 847 -6 884 -30 q 789 63 810 18 q 768 164 768 109 q 788 275 768 228 q 849 345 809 322 q 923 368 889 368 m 923 338 q 880 313 896 338 q 855 166 855 273 q 880 27 855 66 q 925 0 898 0 q 954 10 942 0 q 984 62 973 26 q 994 180 994 98 q 968 311 994 273 q 923 338 949 338 z "},"Š":{"ha":622,"x_min":70,"x_max":562,"o":"m 513 758 l 513 501 l 492 501 q 457 618 483 575 q 385 688 432 662 q 288 713 338 713 q 194 679 231 713 q 157 600 157 644 q 180 538 157 566 q 341 429 214 497 q 483 344 445 374 q 541 274 521 314 q 562 189 562 233 q 496 44 562 105 q 329 -17 431 -17 q 268 -12 296 -17 q 198 8 251 -9 q 130 25 144 25 q 109 17 117 25 q 97 -17 101 9 l 77 -17 l 77 237 l 97 237 q 135 118 111 157 q 209 52 159 78 q 317 26 258 26 q 425 62 385 26 q 465 147 465 98 q 450 202 465 174 q 403 254 435 230 q 287 323 382 270 q 152 408 192 376 q 91 478 111 440 q 70 562 70 517 q 131 700 70 642 q 287 758 192 758 q 412 728 346 758 q 455 715 442 715 q 478 723 469 715 q 492 758 487 732 l 513 758 m 359 798 l 258 798 l 155 979 l 172 979 l 321 863 l 446 979 l 463 979 l 359 798 z "},"‹":{"ha":372,"x_min":65,"x_max":307,"o":"m 307 -4 l 276 -4 l 65 254 l 276 510 l 307 510 l 174 254 l 307 -4 z "},"Œ":{"ha":994,"x_min":41,"x_max":962,"o":"m 603 700 l 603 408 l 703 408 q 792 434 766 408 q 817 515 818 460 l 838 515 l 838 257 l 817 257 q 789 346 812 324 q 703 368 766 368 l 603 368 l 603 123 q 608 66 603 79 q 626 46 614 53 q 668 41 634 41 l 725 41 q 817 48 791 41 q 870 81 842 56 q 941 186 911 118 l 962 186 l 903 0 l 639 0 q 545 -1 562 0 q 454 -5 539 -1 q 375 -9 395 -9 q 207 38 283 -9 q 85 175 130 85 q 41 369 41 264 q 118 617 41 510 q 387 747 210 747 q 493 743 399 747 q 639 741 570 741 l 897 741 l 903 578 l 886 578 q 863 659 873 642 q 821 693 849 681 q 743 700 802 700 l 603 700 m 498 569 q 488 662 498 640 q 458 696 477 685 q 389 712 431 712 q 270 672 321 712 q 193 550 218 632 q 167 365 167 468 q 190 200 167 280 q 263 75 212 121 q 387 30 315 30 q 454 44 429 30 q 488 83 479 58 q 498 186 498 108 l 498 569 z "},"Ž":{"ha":683,"x_min":14,"x_max":652,"o":"m 643 741 l 157 45 l 460 45 q 568 75 530 45 q 634 199 605 106 l 652 196 l 617 0 l 14 0 l 14 20 l 489 696 l 252 696 q 167 683 193 696 q 126 646 140 671 q 101 555 113 622 l 80 555 l 96 741 l 643 741 m 401 798 l 300 798 l 197 979 l 214 979 l 363 863 l 488 979 l 505 979 l 401 798 z "},"˜":{"ha":372,"x_min":12,"x_max":361,"o":"m 29 599 l 12 599 q 43 707 14 673 q 115 741 72 741 q 155 733 137 741 q 225 694 180 724 q 292 665 270 665 q 323 679 309 665 q 344 741 336 694 l 361 741 q 347 660 361 690 q 308 613 334 630 q 257 597 283 597 q 150 640 214 597 q 104 669 116 664 q 80 673 92 673 q 45 654 58 673 q 29 599 39 645 z "},"™":{"ha":1096,"x_min":16,"x_max":1077,"o":"m 28 741 l 425 741 l 437 631 l 418 631 q 390 689 413 670 q 313 707 367 707 l 272 707 l 272 391 q 283 333 272 346 q 330 319 294 321 l 330 300 l 125 300 l 125 319 q 171 334 161 323 q 180 391 180 346 l 180 707 l 138 707 q 65 690 87 707 q 35 631 43 673 l 16 631 l 28 741 m 631 741 l 780 428 l 925 741 l 1077 741 l 1077 720 q 1036 714 1046 720 q 1021 696 1026 709 q 1017 646 1017 684 l 1017 391 q 1027 333 1017 345 q 1077 319 1038 321 l 1077 300 l 860 300 l 860 319 q 903 326 892 320 q 920 343 914 332 q 925 391 925 355 l 925 659 l 758 300 l 740 300 l 572 654 l 572 391 q 576 343 572 354 q 591 326 581 332 q 623 319 601 319 l 642 319 l 642 300 l 475 300 l 475 319 q 516 325 505 319 q 532 342 527 330 q 536 391 536 353 l 536 646 q 532 698 536 687 q 516 714 528 709 q 475 720 505 720 l 475 741 l 631 741 z "},"š":{"ha":435,"x_min":55,"x_max":396,"o":"m 358 515 l 358 345 l 340 345 q 287 454 319 425 q 204 483 254 483 q 142 463 166 483 q 119 418 119 442 q 136 366 119 387 q 205 318 153 343 l 285 279 q 396 136 396 225 q 344 26 396 68 q 229 -16 292 -16 q 124 1 183 -16 q 94 7 106 7 q 75 -7 82 7 l 57 -7 l 57 171 l 75 171 q 133 56 90 94 q 230 17 176 17 q 291 39 267 17 q 315 92 315 61 q 288 156 315 130 q 183 220 262 181 q 79 292 104 260 q 55 370 55 323 q 97 473 55 432 q 206 515 139 515 q 278 503 236 515 q 315 494 306 494 q 329 498 323 494 q 340 515 334 502 l 358 515 m 268 575 l 168 575 l 64 756 l 81 756 l 230 640 l 355 756 l 372 756 l 268 575 z "},"›":{"ha":372,"x_min":63,"x_max":309,"o":"m 63 510 l 94 510 l 309 252 l 94 -4 l 63 -4 l 195 252 l 63 510 z "},"œ":{"ha":808,"x_min":37,"x_max":770,"o":"m 471 313 q 470 292 470 299 q 488 185 470 241 q 543 102 507 130 q 622 75 578 75 q 699 102 665 75 q 752 194 732 130 l 770 184 q 702 32 751 79 q 585 -16 653 -16 q 494 10 532 -16 q 438 73 457 36 q 361 7 404 29 q 264 -16 317 -16 q 102 55 168 -16 q 37 242 37 125 q 104 441 37 367 q 267 515 172 515 q 369 491 326 515 q 438 429 412 467 q 506 495 470 475 q 592 515 541 515 q 723 461 673 515 q 770 313 770 408 l 471 313 m 248 485 q 201 470 228 485 q 159 421 174 456 q 138 294 138 376 q 195 73 138 153 q 278 24 228 24 q 358 64 326 24 q 391 206 391 104 q 354 409 391 334 q 248 485 317 485 m 471 349 l 663 349 q 650 421 663 387 q 616 463 640 448 q 567 479 593 479 q 503 446 530 479 q 471 349 475 413 z "},"ž":{"ha":496,"x_min":22,"x_max":478,"o":"m 469 153 l 463 0 l 22 0 l 22 20 l 354 462 l 191 462 q 121 455 138 462 q 94 429 105 448 q 77 361 80 401 l 56 361 l 59 500 l 478 500 l 478 480 l 143 37 l 326 37 q 403 46 382 37 q 436 80 424 56 q 451 153 445 97 l 469 153 m 307 575 l 207 575 l 103 756 l 120 756 l 269 640 l 394 756 l 411 756 l 307 575 z "},"Ÿ":{"ha":808,"x_min":10,"x_max":791,"o":"m 533 741 l 791 741 l 791 720 l 777 720 q 735 708 763 720 q 686 672 708 695 q 631 595 663 648 l 452 314 l 452 128 q 467 43 452 60 q 533 20 488 20 l 557 20 l 557 0 l 242 0 l 242 20 l 269 20 q 335 49 315 20 q 347 128 347 66 l 347 304 l 144 614 q 95 682 108 668 q 42 715 83 696 q 10 720 31 720 l 10 741 l 327 741 l 327 720 l 311 720 q 263 708 285 720 q 242 672 242 696 q 275 601 242 652 l 430 363 l 575 591 q 608 667 608 642 q 600 694 608 682 q 577 713 592 707 q 533 720 562 720 l 533 741 m 511 932 q 552 915 535 932 q 570 873 570 898 q 552 831 570 848 q 511 814 535 814 q 469 831 486 814 q 451 873 451 848 q 469 915 451 898 q 511 932 486 932 m 318 932 q 360 915 343 932 q 378 873 378 898 q 360 831 378 848 q 319 814 342 814 q 276 831 294 814 q 259 873 259 848 q 276 915 259 898 q 318 932 294 932 z "}," ":{"ha":279,"x_min":0,"x_max":0,"o":""},"¡":{"ha":372,"x_min":125,"x_max":248,"o":"m 186 532 q 230 514 212 532 q 248 471 248 496 q 230 429 248 446 q 186 411 212 411 q 144 429 161 411 q 127 471 127 446 q 144 514 127 496 q 186 532 161 532 m 176 321 l 197 321 l 245 -122 q 248 -165 248 -151 q 230 -220 248 -199 q 186 -241 212 -241 q 143 -221 161 -241 q 125 -158 125 -200 q 127 -122 125 -145 l 176 321 z "},"£":{"ha":559,"x_min":33,"x_max":533,"o":"m 395 359 l 254 359 q 254 323 254 334 q 247 228 254 271 q 220 127 239 184 q 343 90 328 93 q 399 83 371 83 q 472 104 444 83 q 514 170 500 125 l 533 165 q 477 32 522 77 q 376 -13 432 -13 q 310 0 340 -13 q 199 74 279 14 q 152 9 177 31 q 97 -13 126 -13 q 52 6 70 -13 q 33 58 33 24 q 58 118 33 94 q 123 142 83 142 q 144 141 132 142 q 170 138 155 140 q 171 163 170 153 q 171 180 171 173 q 159 359 171 228 l 54 359 l 54 412 l 159 412 q 153 520 153 493 q 179 642 153 587 q 253 726 205 697 q 354 755 300 755 q 458 719 423 755 q 492 644 492 682 q 479 613 492 627 q 450 600 466 600 q 416 620 429 600 q 407 663 410 630 q 389 710 405 695 q 341 726 372 726 q 270 692 298 726 q 242 572 242 658 q 248 471 242 533 q 254 412 252 430 l 395 412 l 395 359 m 163 94 q 139 105 151 102 q 116 109 127 109 q 78 96 92 109 q 64 61 64 83 q 75 30 64 41 q 100 18 85 18 q 135 35 118 18 q 163 94 153 52 z "},"¥":{"ha":559,"x_min":1,"x_max":559,"o":"m 326 232 l 559 232 l 559 192 l 326 192 l 326 133 q 332 55 326 72 q 351 35 337 43 q 397 22 371 22 l 419 22 l 419 0 l 138 0 l 138 22 l 155 22 q 212 37 194 22 q 231 68 225 47 q 233 133 233 78 l 233 192 l 1 192 l 1 232 l 233 232 l 233 311 l 224 330 l 1 330 l 1 370 l 207 370 l 91 641 q 51 704 71 688 q 1 720 32 719 l 1 741 l 242 741 l 242 720 q 190 707 203 717 q 176 686 176 697 q 186 654 176 677 l 303 370 l 419 646 q 431 686 431 673 q 419 709 431 698 q 385 718 412 715 q 370 720 379 718 l 370 741 l 559 741 l 559 720 q 511 707 526 720 q 464 635 488 688 l 347 370 l 559 370 l 559 330 l 330 330 l 326 321 l 326 232 z "},"¦":{"ha":224,"x_min":88,"x_max":133,"o":"m 133 777 l 133 371 l 88 371 l 88 777 l 133 777 m 133 164 l 133 -241 l 88 -241 l 88 164 l 133 164 z "},"¨":{"ha":372,"x_min":31,"x_max":342,"o":"m 283 730 q 325 712 307 730 q 342 671 342 695 q 325 629 342 646 q 283 612 307 612 q 241 629 258 612 q 223 671 223 646 q 241 712 223 695 q 283 730 258 730 m 90 730 q 133 712 115 730 q 150 671 150 695 q 132 629 150 646 q 91 612 115 612 q 48 629 66 612 q 31 671 31 646 q 48 712 31 695 q 90 730 66 730 z "},"©":{"ha":850,"x_min":38,"x_max":812,"o":"m 425 758 q 615 707 522 758 q 760 564 708 657 q 812 370 812 471 q 761 178 812 270 q 617 34 710 85 q 425 -17 525 -17 q 232 34 324 -17 q 89 178 140 85 q 38 370 38 270 q 90 564 38 471 q 235 707 142 657 q 425 758 328 758 m 425 724 q 251 678 336 724 q 119 547 167 632 q 71 370 71 463 q 118 195 71 279 q 249 63 165 111 q 425 16 333 16 q 601 63 517 16 q 732 195 685 111 q 779 370 779 279 q 731 547 779 463 q 599 678 684 632 q 425 724 514 724 m 616 619 l 627 466 l 606 466 q 544 563 587 531 q 441 595 500 595 q 361 576 396 595 q 304 527 326 558 q 276 465 287 503 q 265 382 265 426 q 315 212 265 267 q 446 157 365 157 q 616 245 553 157 l 637 235 q 427 125 561 125 q 247 195 318 125 q 175 367 175 266 q 251 546 175 472 q 446 620 328 620 q 489 616 472 620 q 547 599 505 613 q 568 595 562 595 q 583 599 576 595 q 595 619 589 604 l 616 619 z "},"ª":{"ha":309,"x_min":-3,"x_max":307,"o":"m 186 644 q 171 722 186 704 q 127 741 157 741 q 89 729 102 741 q 77 692 77 717 q 67 656 77 667 q 45 645 58 645 q 23 654 32 645 q 14 677 14 663 q 45 731 14 707 q 142 755 76 755 q 219 739 192 755 q 254 704 246 722 q 261 644 261 686 l 261 525 q 262 492 261 496 q 268 481 264 485 q 275 477 272 477 q 307 494 283 477 l 307 468 q 253 433 267 439 q 225 427 239 427 q 201 438 212 427 q 186 479 191 450 q 122 443 151 455 q 68 430 92 430 q 18 451 39 430 q -3 497 -3 471 q 9 539 -3 522 q 67 590 25 564 q 186 644 96 607 m 186 623 q 96 575 120 602 q 73 523 73 549 q 86 490 73 505 q 121 476 100 476 q 149 482 133 476 q 186 500 165 488 l 186 623 z "},"«":{"ha":559,"x_min":35,"x_max":524,"o":"m 277 -4 l 246 -4 l 35 254 l 246 510 l 277 510 l 144 254 l 277 -4 m 524 -4 l 492 -4 l 277 254 l 492 510 l 524 510 l 391 254 l 524 -4 z "},"­":{"ha":372,"x_min":45,"x_max":328,"o":"m 45 292 l 328 292 l 328 210 l 45 210 l 45 292 z "},"®":{"ha":850,"x_min":38,"x_max":812,"o":"m 425 758 q 615 707 522 758 q 760 564 708 657 q 812 370 812 471 q 761 178 812 270 q 617 34 710 85 q 425 -17 525 -17 q 232 34 324 -17 q 89 178 140 85 q 38 370 38 270 q 90 564 38 471 q 235 707 142 657 q 425 758 328 758 m 425 724 q 251 678 336 724 q 119 547 167 632 q 71 370 71 463 q 118 195 71 279 q 249 63 165 111 q 425 16 333 16 q 601 63 517 16 q 732 195 685 111 q 779 370 779 279 q 731 547 779 463 q 599 678 684 632 q 425 724 514 724 m 211 608 l 421 608 q 542 572 500 608 q 584 486 584 536 q 556 413 584 444 q 463 365 528 382 l 576 202 q 614 162 597 173 q 642 154 624 155 l 642 136 l 542 136 l 382 357 l 340 357 l 340 189 q 356 162 343 170 q 405 154 368 154 l 405 136 l 204 136 l 204 154 q 241 160 231 154 q 257 178 252 167 q 261 229 261 187 l 261 515 q 259 562 261 555 q 245 582 256 575 q 211 589 235 589 l 211 608 m 340 380 q 434 393 405 380 q 480 428 464 406 q 496 480 496 451 q 465 554 496 524 q 386 584 434 584 q 340 575 366 584 l 340 380 z "},"¯":{"ha":559,"x_min":-9,"x_max":569,"o":"m 569 798 l -9 798 l -9 844 l 569 844 l 569 798 z "},"±":{"ha":614,"x_min":4,"x_max":593,"o":"m 4 77 l 4 121 l 276 121 l 276 349 l 4 349 l 4 394 l 276 394 l 276 665 l 320 665 l 320 394 l 593 394 l 593 349 l 320 349 l 320 121 l 593 121 l 593 77 l 4 77 z "},"²":{"ha":335,"x_min":11,"x_max":314,"o":"m 314 446 l 281 363 l 11 363 l 11 378 q 190 549 146 483 q 217 627 217 589 q 195 683 217 661 q 138 706 172 706 q 83 690 106 706 q 47 642 60 673 l 23 642 q 65 725 31 695 q 155 755 100 755 q 249 724 213 755 q 286 653 286 692 q 259 576 286 617 q 98 415 218 512 l 200 415 q 263 421 248 415 q 290 446 279 428 l 314 446 z "},"³":{"ha":335,"x_min":24,"x_max":286,"o":"m 30 671 q 74 730 50 711 q 155 755 109 755 q 235 730 205 755 q 264 675 264 705 q 206 591 264 638 q 266 550 245 576 q 286 492 286 524 q 239 395 286 435 q 104 354 192 354 q 38 368 58 354 q 24 389 24 376 q 33 406 24 398 q 56 413 42 413 q 100 400 71 413 q 150 387 130 387 q 202 409 180 387 q 224 459 224 430 q 210 506 224 484 q 172 537 195 528 q 114 550 140 550 l 98 550 l 98 565 q 169 591 140 565 q 197 650 197 616 q 179 693 197 676 q 131 710 161 710 q 51 662 85 710 l 30 671 z "},"´":{"ha":372,"x_min":129,"x_max":309,"o":"m 309 759 l 147 570 l 129 570 l 186 759 l 309 759 z "},"µ":{"ha":644,"x_min":73,"x_max":597,"o":"m 107 500 l 197 500 l 197 209 q 206 101 197 130 q 233 65 214 79 q 274 52 252 52 q 403 125 338 52 l 403 500 l 493 500 l 493 143 q 497 71 493 88 q 510 51 501 58 q 530 43 519 43 q 554 56 545 43 q 574 111 568 73 l 597 111 q 563 15 592 45 q 489 -16 533 -16 q 424 16 446 -16 q 403 88 408 40 q 314 8 355 33 q 231 -16 273 -16 q 181 -4 203 -16 q 147 31 166 5 q 146 6 146 14 q 165 -125 146 -37 q 172 -181 172 -158 q 157 -224 172 -208 q 121 -241 141 -241 q 87 -225 100 -241 q 73 -182 73 -210 q 89 -92 73 -157 q 101 -35 100 -48 q 108 63 108 21 q 107 104 108 66 l 107 500 z "},"¸":{"ha":372,"x_min":102,"x_max":271,"o":"m 197 9 l 230 9 l 203 -35 q 254 -64 237 -43 q 271 -114 271 -85 q 238 -183 271 -153 q 153 -213 205 -213 q 102 -209 133 -213 l 102 -186 q 128 -188 117 -188 q 175 -170 156 -188 q 195 -127 195 -151 q 182 -99 195 -111 q 151 -87 170 -87 q 136 -88 145 -87 l 197 9 z "},"¹":{"ha":335,"x_min":74,"x_max":260,"o":"m 74 708 l 186 755 l 205 755 l 205 433 q 209 392 205 399 q 217 385 212 387 q 260 380 226 380 l 260 363 l 83 363 l 83 380 q 127 384 118 380 q 136 393 133 387 q 138 433 138 399 l 138 637 q 136 688 138 675 q 130 700 134 696 q 119 704 126 704 q 83 693 109 704 l 74 708 z "},"º":{"ha":347,"x_min":16,"x_max":334,"o":"m 177 755 q 289 709 245 755 q 334 595 334 663 q 285 479 334 528 q 170 430 237 430 q 60 474 105 430 q 16 587 16 519 q 61 709 16 662 q 177 755 106 755 m 161 732 q 113 708 133 732 q 93 629 93 683 q 130 488 93 543 q 186 458 152 458 q 238 482 217 458 q 258 559 258 506 q 220 699 258 644 q 161 732 195 732 z "},"»":{"ha":559,"x_min":35,"x_max":524,"o":"m 281 510 l 313 510 l 524 252 l 313 -4 l 281 -4 l 415 252 l 281 510 m 35 510 l 66 510 l 281 252 l 66 -4 l 35 -4 l 168 252 l 35 510 z "},"¼":{"ha":838,"x_min":73,"x_max":819,"o":"m 73 708 l 185 755 l 204 755 l 204 433 q 208 392 204 399 q 216 385 210 387 q 259 380 225 380 l 259 363 l 82 363 l 82 380 q 125 384 117 380 q 135 393 132 387 q 138 433 138 399 l 138 637 q 135 688 138 675 q 129 700 133 696 q 119 704 125 704 q 82 693 108 704 l 73 708 m 705 755 l 195 -29 l 146 -29 l 656 755 l 705 755 m 819 122 l 819 78 l 760 78 l 760 -22 l 696 -22 l 696 78 l 509 78 l 509 118 l 715 372 l 760 372 l 760 122 l 819 122 m 696 122 l 696 295 l 555 122 l 696 122 z "},"½":{"ha":838,"x_min":73,"x_max":816,"o":"m 73 708 l 185 755 l 204 755 l 204 433 q 208 392 204 399 q 216 385 210 387 q 259 380 225 380 l 259 363 l 82 363 l 82 380 q 125 384 117 380 q 135 393 132 387 q 138 433 138 399 l 138 637 q 135 688 138 675 q 129 700 133 696 q 119 704 125 704 q 82 693 108 704 l 73 708 m 692 755 l 182 -29 l 133 -29 l 644 755 l 692 755 m 816 62 l 783 -22 l 513 -22 l 513 -5 q 692 165 648 100 q 719 243 719 205 q 696 299 719 277 q 640 322 673 322 q 585 306 608 322 q 549 258 562 290 l 525 258 q 567 341 532 311 q 656 372 602 372 q 751 340 715 372 q 787 269 787 308 q 761 192 787 233 q 600 31 720 128 l 702 31 q 764 37 749 31 q 791 62 780 43 l 816 62 z "},"¾":{"ha":838,"x_min":23,"x_max":819,"o":"m 697 755 l 189 -29 l 140 -29 l 650 755 l 697 755 m 29 671 q 73 730 49 711 q 155 755 108 755 q 234 730 205 755 q 262 675 262 705 q 205 591 262 638 q 264 550 245 576 q 284 492 284 524 q 238 395 284 435 q 103 354 191 354 q 37 368 58 354 q 23 389 23 376 q 32 406 23 398 q 55 413 41 413 q 99 400 71 413 q 149 387 128 387 q 201 409 180 387 q 223 459 223 430 q 192 525 223 498 q 96 550 161 551 l 96 565 q 167 591 138 565 q 196 650 196 616 q 178 693 196 676 q 130 710 160 710 q 50 662 83 710 l 29 671 m 819 122 l 819 78 l 760 78 l 760 -22 l 697 -22 l 697 78 l 509 78 l 509 118 l 715 372 l 760 372 l 760 122 l 819 122 m 697 122 l 697 295 l 555 122 l 697 122 z "},"¿":{"ha":496,"x_min":49,"x_max":450,"o":"m 247 532 q 290 515 272 532 q 307 472 307 497 q 290 429 307 446 q 247 411 272 411 q 204 429 222 411 q 186 472 186 446 q 204 515 186 497 q 247 532 222 532 m 241 342 l 262 342 q 249 234 259 274 q 193 100 238 195 q 148 -58 148 5 q 184 -170 148 -130 q 277 -209 220 -209 q 352 -186 324 -209 q 379 -137 379 -164 q 362 -91 379 -120 q 345 -44 345 -62 q 358 -13 345 -26 q 389 0 371 0 q 431 -23 412 0 q 450 -83 450 -45 q 396 -194 450 -146 q 251 -241 343 -241 q 103 -190 158 -241 q 49 -68 49 -139 q 64 15 49 -23 q 146 136 88 68 q 221 240 205 203 q 241 342 237 277 z "},"À":{"ha":808,"x_min":9,"x_max":795,"o":"m 511 248 l 225 248 l 175 131 q 156 66 156 88 q 172 37 156 50 q 242 20 189 24 l 242 0 l 9 0 l 9 20 q 68 41 55 28 q 130 148 96 68 l 391 758 l 410 758 l 668 141 q 724 45 699 67 q 795 20 749 23 l 795 0 l 503 0 l 503 20 q 563 35 547 22 q 578 66 578 47 q 556 141 578 90 l 511 248 m 496 288 l 371 587 l 242 288 l 496 288 m 280 981 l 402 981 l 460 793 l 441 793 l 280 981 z "},"Á":{"ha":808,"x_min":9,"x_max":795,"o":"m 511 248 l 225 248 l 175 131 q 156 66 156 88 q 172 37 156 50 q 242 20 189 24 l 242 0 l 9 0 l 9 20 q 68 41 55 28 q 130 148 96 68 l 391 758 l 410 758 l 668 141 q 724 45 699 67 q 795 20 749 23 l 795 0 l 503 0 l 503 20 q 563 35 547 22 q 578 66 578 47 q 556 141 578 90 l 511 248 m 496 288 l 371 587 l 242 288 l 496 288 m 524 981 l 362 793 l 344 793 l 401 981 l 524 981 z "},"Â":{"ha":808,"x_min":9,"x_max":795,"o":"m 511 248 l 225 248 l 175 131 q 156 66 156 88 q 172 37 156 50 q 242 20 189 24 l 242 0 l 9 0 l 9 20 q 68 41 55 28 q 130 148 96 68 l 391 758 l 410 758 l 668 141 q 724 45 699 67 q 795 20 749 23 l 795 0 l 503 0 l 503 20 q 563 35 547 22 q 578 66 578 47 q 556 141 578 90 l 511 248 m 496 288 l 371 587 l 242 288 l 496 288 m 351 979 l 452 979 l 555 798 l 538 798 l 389 914 l 264 798 l 248 798 l 351 979 z "},"Ã":{"ha":808,"x_min":9,"x_max":795,"o":"m 511 248 l 225 248 l 175 131 q 156 66 156 88 q 172 37 156 50 q 242 20 189 24 l 242 0 l 9 0 l 9 20 q 68 41 55 28 q 130 148 96 68 l 391 758 l 410 758 l 668 141 q 724 45 699 67 q 795 20 749 23 l 795 0 l 503 0 l 503 20 q 563 35 547 22 q 578 66 578 47 q 556 141 578 90 l 511 248 m 496 288 l 371 587 l 242 288 l 496 288 m 245 800 l 228 800 q 259 908 230 874 q 330 941 288 941 q 371 934 353 941 q 441 895 396 924 q 508 865 486 865 q 538 880 525 865 q 559 941 552 895 l 576 941 q 563 861 576 890 q 524 814 549 831 q 473 798 498 798 q 366 841 430 798 q 319 869 332 865 q 296 874 307 874 q 260 854 273 874 q 245 800 254 846 z "},"Ä":{"ha":808,"x_min":9,"x_max":795,"o":"m 511 248 l 225 248 l 175 131 q 156 66 156 88 q 172 37 156 50 q 242 20 189 24 l 242 0 l 9 0 l 9 20 q 68 41 55 28 q 130 148 96 68 l 391 758 l 410 758 l 668 141 q 724 45 699 67 q 795 20 749 23 l 795 0 l 503 0 l 503 20 q 563 35 547 22 q 578 66 578 47 q 556 141 578 90 l 511 248 m 496 288 l 371 587 l 242 288 l 496 288 m 497 932 q 539 915 522 932 q 556 873 556 898 q 539 831 556 848 q 497 814 522 814 q 455 831 473 814 q 437 873 437 848 q 455 915 437 898 q 497 932 473 932 m 304 932 q 347 915 330 932 q 364 873 364 898 q 347 831 364 848 q 305 814 329 814 q 263 831 280 814 q 245 873 245 848 q 263 915 245 898 q 304 932 280 932 z "},"Å":{"ha":808,"x_min":9,"x_max":795,"o":"m 511 248 l 225 248 l 175 131 q 156 66 156 88 q 172 37 156 50 q 242 20 189 24 l 242 0 l 9 0 l 9 20 q 68 41 55 28 q 130 148 96 68 l 391 758 l 410 758 l 668 141 q 724 45 699 67 q 795 20 749 23 l 795 0 l 503 0 l 503 20 q 563 35 547 22 q 578 66 578 47 q 556 141 578 90 l 511 248 m 496 288 l 371 587 l 242 288 l 496 288 m 399 928 q 473 898 443 928 q 504 825 504 867 q 473 750 504 781 q 399 720 443 720 q 326 750 356 720 q 295 825 295 781 q 325 898 295 867 q 399 928 355 928 m 399 891 q 352 872 371 891 q 332 825 332 852 q 352 777 332 797 q 399 758 371 758 q 447 777 427 758 q 466 825 466 797 q 447 872 466 852 q 399 891 427 891 z "},"Æ":{"ha":994,"x_min":-13,"x_max":963,"o":"m 561 700 l 561 408 l 701 408 q 789 431 764 408 q 819 515 815 454 l 839 515 l 839 258 l 819 258 q 802 331 813 312 q 764 361 791 350 q 701 368 751 368 l 561 368 l 561 122 q 565 63 561 73 q 580 47 568 54 q 623 41 592 41 l 723 41 q 815 51 783 41 q 877 88 847 60 q 942 186 917 125 l 963 186 l 904 0 l 349 0 l 349 20 l 376 20 q 443 47 421 20 q 456 130 456 64 l 456 287 l 239 287 l 172 159 q 134 65 134 87 q 150 37 134 50 q 220 20 167 24 l 220 0 l -13 0 l -13 20 q 28 31 11 21 q 65 66 45 41 q 117 150 85 92 l 342 570 q 384 676 384 648 q 369 703 384 693 q 290 720 351 717 l 290 741 l 896 741 l 904 578 l 886 578 q 858 663 878 634 q 816 694 844 684 q 741 700 800 700 l 561 700 m 456 700 l 261 326 l 456 326 l 456 700 z "},"Ç":{"ha":746,"x_min":41,"x_max":707,"o":"m 673 758 l 690 505 l 673 505 q 577 668 640 618 q 426 718 514 718 q 293 681 352 718 q 199 561 233 643 q 165 357 165 479 q 197 183 165 257 q 294 71 229 110 q 441 31 359 31 q 569 62 514 31 q 690 184 624 93 l 707 174 q 577 29 651 75 q 401 -17 503 -17 q 116 119 217 -17 q 41 359 41 221 q 90 562 41 469 q 227 706 140 655 q 417 758 314 758 q 575 718 497 758 q 608 706 598 706 q 634 716 623 706 q 654 758 648 731 l 673 758 m 381 9 l 414 9 l 387 -35 q 437 -64 420 -43 q 454 -114 454 -85 q 422 -183 454 -153 q 337 -213 389 -213 q 286 -209 317 -213 l 286 -186 q 312 -188 301 -188 q 359 -170 340 -188 q 378 -127 378 -151 q 366 -99 378 -111 q 334 -87 353 -87 q 320 -88 329 -87 l 381 9 z "},"È":{"ha":683,"x_min":23,"x_max":657,"o":"m 234 700 l 234 408 l 396 408 q 481 427 460 408 q 513 515 509 452 l 533 515 l 533 257 l 513 257 q 497 326 505 311 q 465 357 488 346 q 396 368 443 368 l 234 368 l 234 123 q 238 63 234 74 q 253 47 242 53 q 295 41 264 41 l 420 41 q 511 49 483 41 q 566 83 540 58 q 635 186 600 117 l 657 186 l 593 0 l 23 0 l 23 20 l 49 20 q 99 33 75 20 q 122 59 116 41 q 129 130 129 77 l 129 612 q 115 699 129 682 q 49 720 95 720 l 23 720 l 23 741 l 593 741 l 602 578 l 581 578 q 555 659 569 637 q 514 692 541 680 q 437 700 492 700 l 234 700 m 222 981 l 344 981 l 401 793 l 382 793 l 222 981 z "},"É":{"ha":683,"x_min":23,"x_max":657,"o":"m 234 700 l 234 408 l 396 408 q 481 427 460 408 q 513 515 509 452 l 533 515 l 533 257 l 513 257 q 497 326 505 311 q 465 357 488 346 q 396 368 443 368 l 234 368 l 234 123 q 238 63 234 74 q 253 47 242 53 q 295 41 264 41 l 420 41 q 511 49 483 41 q 566 83 540 58 q 635 186 600 117 l 657 186 l 593 0 l 23 0 l 23 20 l 49 20 q 99 33 75 20 q 122 59 116 41 q 129 130 129 77 l 129 612 q 115 699 129 682 q 49 720 95 720 l 23 720 l 23 741 l 593 741 l 602 578 l 581 578 q 555 659 569 637 q 514 692 541 680 q 437 700 492 700 l 234 700 m 466 981 l 304 793 l 286 793 l 344 981 l 466 981 z "},"Ê":{"ha":683,"x_min":23,"x_max":657,"o":"m 234 700 l 234 408 l 396 408 q 481 427 460 408 q 513 515 509 452 l 533 515 l 533 257 l 513 257 q 497 326 505 311 q 465 357 488 346 q 396 368 443 368 l 234 368 l 234 123 q 238 63 234 74 q 253 47 242 53 q 295 41 264 41 l 420 41 q 511 49 483 41 q 566 83 540 58 q 635 186 600 117 l 657 186 l 593 0 l 23 0 l 23 20 l 49 20 q 99 33 75 20 q 122 59 116 41 q 129 130 129 77 l 129 612 q 115 699 129 682 q 49 720 95 720 l 23 720 l 23 741 l 593 741 l 602 578 l 581 578 q 555 659 569 637 q 514 692 541 680 q 437 700 492 700 l 234 700 m 293 979 l 394 979 l 498 798 l 481 798 l 332 914 l 206 798 l 190 798 l 293 979 z "},"Ë":{"ha":683,"x_min":23,"x_max":657,"o":"m 234 700 l 234 408 l 396 408 q 481 427 460 408 q 513 515 509 452 l 533 515 l 533 257 l 513 257 q 497 326 505 311 q 465 357 488 346 q 396 368 443 368 l 234 368 l 234 123 q 238 63 234 74 q 253 47 242 53 q 295 41 264 41 l 420 41 q 511 49 483 41 q 566 83 540 58 q 635 186 600 117 l 657 186 l 593 0 l 23 0 l 23 20 l 49 20 q 99 33 75 20 q 122 59 116 41 q 129 130 129 77 l 129 612 q 115 699 129 682 q 49 720 95 720 l 23 720 l 23 741 l 593 741 l 602 578 l 581 578 q 555 659 569 637 q 514 692 541 680 q 437 700 492 700 l 234 700 m 439 932 q 481 915 464 932 q 498 873 498 898 q 481 831 498 848 q 439 814 464 814 q 397 831 415 814 q 380 873 380 848 q 397 915 380 898 q 439 932 415 932 m 247 932 q 289 915 272 932 q 307 873 307 898 q 289 831 307 848 q 248 814 271 814 q 205 831 222 814 q 188 873 188 848 q 205 915 188 898 q 247 932 222 932 z "},"Ì":{"ha":372,"x_min":28,"x_max":345,"o":"m 345 20 l 345 0 l 28 0 l 28 20 l 54 20 q 121 47 100 20 q 134 131 134 64 l 134 609 q 127 684 134 665 q 104 707 121 697 q 54 720 80 720 l 28 720 l 28 741 l 345 741 l 345 720 l 318 720 q 252 693 273 720 q 239 609 239 676 l 239 131 q 245 57 239 75 q 269 33 251 43 q 318 20 292 20 l 345 20 m 65 981 l 187 981 l 245 793 l 226 793 l 65 981 z "},"Í":{"ha":372,"x_min":28,"x_max":345,"o":"m 345 20 l 345 0 l 28 0 l 28 20 l 54 20 q 121 47 100 20 q 134 131 134 64 l 134 609 q 127 684 134 665 q 104 707 121 697 q 54 720 80 720 l 28 720 l 28 741 l 345 741 l 345 720 l 318 720 q 252 693 273 720 q 239 609 239 676 l 239 131 q 245 57 239 75 q 269 33 251 43 q 318 20 292 20 l 345 20 m 309 981 l 147 793 l 129 793 l 186 981 l 309 981 z "},"Î":{"ha":372,"x_min":28,"x_max":345,"o":"m 345 20 l 345 0 l 28 0 l 28 20 l 54 20 q 121 47 100 20 q 134 131 134 64 l 134 609 q 127 684 134 665 q 104 707 121 697 q 54 720 80 720 l 28 720 l 28 741 l 345 741 l 345 720 l 318 720 q 252 693 273 720 q 239 609 239 676 l 239 131 q 245 57 239 75 q 269 33 251 43 q 318 20 292 20 l 345 20 m 136 979 l 237 979 l 340 798 l 323 798 l 174 914 l 49 798 l 33 798 l 136 979 z "},"Ï":{"ha":372,"x_min":28,"x_max":345,"o":"m 345 20 l 345 0 l 28 0 l 28 20 l 54 20 q 121 47 100 20 q 134 131 134 64 l 134 609 q 127 684 134 665 q 104 707 121 697 q 54 720 80 720 l 28 720 l 28 741 l 345 741 l 345 720 l 318 720 q 252 693 273 720 q 239 609 239 676 l 239 131 q 245 57 239 75 q 269 33 251 43 q 318 20 292 20 l 345 20 m 283 932 q 325 915 307 932 q 342 873 342 898 q 325 831 342 848 q 283 814 307 814 q 241 831 258 814 q 223 873 223 848 q 241 915 223 898 q 283 932 258 932 m 90 932 q 133 915 115 932 q 150 873 150 898 q 132 831 150 848 q 91 814 115 814 q 48 831 66 814 q 31 873 31 848 q 48 915 31 898 q 90 932 66 932 z "},"Ð":{"ha":808,"x_min":19,"x_max":764,"o":"m 19 0 l 19 20 l 47 20 q 114 51 94 20 q 125 131 125 68 l 125 370 l 19 370 l 19 410 l 125 410 l 125 609 q 111 696 125 679 q 47 720 89 720 l 19 720 l 19 741 l 321 741 q 575 701 492 741 q 711 576 657 662 q 764 375 764 490 q 664 109 764 218 q 349 0 564 0 l 19 0 m 231 55 q 347 39 300 39 q 557 128 473 39 q 640 370 640 217 q 557 611 640 523 q 343 700 473 700 q 231 684 294 700 l 231 410 l 446 410 l 446 370 l 231 370 l 231 55 z "},"Ñ":{"ha":808,"x_min":-15,"x_max":791,"o":"m -15 741 l 186 741 l 639 185 l 639 612 q 623 697 639 680 q 559 720 604 720 l 534 720 l 534 741 l 791 741 l 791 720 l 766 720 q 699 692 718 720 q 687 612 687 674 l 687 -12 l 667 -12 l 179 584 l 179 128 q 194 43 179 60 q 258 20 214 20 l 284 20 l 284 0 l 26 0 l 26 20 l 52 20 q 119 49 100 20 q 131 128 131 66 l 131 643 q 82 693 99 681 q 33 715 66 705 q -15 720 18 720 l -15 741 m 244 800 l 227 800 q 258 908 229 874 q 330 941 287 941 q 370 934 352 941 q 440 895 395 924 q 507 865 485 865 q 538 880 524 865 q 559 941 551 895 l 576 941 q 562 861 576 890 q 523 814 549 831 q 472 798 498 798 q 365 841 429 798 q 319 869 331 865 q 295 874 307 874 q 260 854 273 874 q 244 800 254 846 z "},"Ò":{"ha":808,"x_min":39,"x_max":764,"o":"m 409 758 q 659 648 553 758 q 764 374 764 538 q 658 94 764 205 q 400 -17 551 -17 q 143 92 248 -17 q 39 373 39 200 q 159 661 39 549 q 409 758 264 758 m 399 718 q 239 644 299 718 q 164 375 164 552 q 242 96 164 194 q 399 22 301 22 q 571 103 503 22 q 640 359 640 184 q 564 643 640 550 q 399 718 505 718 m 279 981 l 401 981 l 458 793 l 439 793 l 279 981 z "},"Ó":{"ha":808,"x_min":39,"x_max":764,"o":"m 409 758 q 659 648 553 758 q 764 374 764 538 q 658 94 764 205 q 400 -17 551 -17 q 143 92 248 -17 q 39 373 39 200 q 159 661 39 549 q 409 758 264 758 m 399 718 q 239 644 299 718 q 164 375 164 552 q 242 96 164 194 q 399 22 301 22 q 571 103 503 22 q 640 359 640 184 q 564 643 640 550 q 399 718 505 718 m 523 981 l 361 793 l 343 793 l 401 981 l 523 981 z "},"Ô":{"ha":808,"x_min":39,"x_max":764,"o":"m 409 758 q 659 648 553 758 q 764 374 764 538 q 658 94 764 205 q 400 -17 551 -17 q 143 92 248 -17 q 39 373 39 200 q 159 661 39 549 q 409 758 264 758 m 399 718 q 239 644 299 718 q 164 375 164 552 q 242 96 164 194 q 399 22 301 22 q 571 103 503 22 q 640 359 640 184 q 564 643 640 550 q 399 718 505 718 m 350 979 l 451 979 l 555 798 l 538 798 l 389 914 l 263 798 l 247 798 l 350 979 z "},"Õ":{"ha":808,"x_min":39,"x_max":764,"o":"m 409 758 q 659 648 553 758 q 764 374 764 538 q 658 94 764 205 q 400 -17 551 -17 q 143 92 248 -17 q 39 373 39 200 q 159 661 39 549 q 409 758 264 758 m 399 718 q 239 644 299 718 q 164 375 164 552 q 242 96 164 194 q 399 22 301 22 q 571 103 503 22 q 640 359 640 184 q 564 643 640 550 q 399 718 505 718 m 243 800 l 227 800 q 257 908 229 874 q 329 941 286 941 q 370 934 351 941 q 439 895 395 924 q 507 865 484 865 q 537 880 524 865 q 558 941 551 895 l 575 941 q 562 861 575 890 q 523 814 548 831 q 471 798 497 798 q 364 841 429 798 q 318 869 330 865 q 294 874 306 874 q 259 854 272 874 q 243 800 253 846 z "},"Ö":{"ha":808,"x_min":39,"x_max":764,"o":"m 409 758 q 659 648 553 758 q 764 374 764 538 q 658 94 764 205 q 400 -17 551 -17 q 143 92 248 -17 q 39 373 39 200 q 159 661 39 549 q 409 758 264 758 m 399 718 q 239 644 299 718 q 164 375 164 552 q 242 96 164 194 q 399 22 301 22 q 571 103 503 22 q 640 359 640 184 q 564 643 640 550 q 399 718 505 718 m 496 932 q 538 915 521 932 q 555 873 555 898 q 538 831 555 848 q 496 814 521 814 q 454 831 472 814 q 437 873 437 848 q 454 915 437 898 q 496 932 472 932 m 304 932 q 346 915 329 932 q 363 873 363 898 q 346 831 363 848 q 304 814 328 814 q 262 831 279 814 q 245 873 245 848 q 262 915 245 898 q 304 932 279 932 z "},"Ø":{"ha":808,"x_min":40,"x_max":765,"o":"m 626 676 l 698 764 l 729 741 l 656 649 q 739 524 713 587 q 765 375 765 460 q 631 72 765 188 q 406 -17 529 -17 q 288 3 350 -17 q 180 61 226 24 l 110 -26 l 77 0 l 150 90 q 40 378 40 203 q 147 648 40 538 q 405 758 254 758 q 626 676 528 758 m 581 620 q 401 718 517 718 q 321 707 351 718 q 248 654 281 690 q 185 537 205 606 q 165 380 165 467 q 205 158 165 254 l 581 620 m 601 581 l 227 119 q 290 53 256 74 q 399 22 339 22 q 492 40 456 22 q 561 93 529 57 q 616 194 593 129 q 639 358 639 260 q 629 483 639 425 q 601 581 621 525 z "},"Ù":{"ha":808,"x_min":6,"x_max":795,"o":"m 533 720 l 533 741 l 795 741 l 795 720 l 768 720 q 701 684 724 720 q 689 605 689 667 l 689 304 q 667 132 689 193 q 580 26 645 71 q 404 -18 515 -18 q 220 24 283 -18 q 131 138 157 66 q 113 320 113 186 l 113 609 q 95 699 113 677 q 34 720 76 720 l 6 720 l 6 741 l 326 741 l 326 720 l 298 720 q 232 691 252 720 q 218 609 218 671 l 218 287 q 226 188 218 243 q 255 101 234 132 q 315 50 276 70 q 410 29 354 29 q 540 61 483 29 q 618 142 597 93 q 640 309 640 192 l 640 609 q 625 696 640 679 q 562 720 604 720 l 533 720 m 307 981 l 429 981 l 486 793 l 467 793 l 307 981 z "},"Ú":{"ha":808,"x_min":6,"x_max":795,"o":"m 533 720 l 533 741 l 795 741 l 795 720 l 768 720 q 701 684 724 720 q 689 605 689 667 l 689 304 q 667 132 689 193 q 580 26 645 71 q 404 -18 515 -18 q 220 24 283 -18 q 131 138 157 66 q 113 320 113 186 l 113 609 q 95 699 113 677 q 34 720 76 720 l 6 720 l 6 741 l 326 741 l 326 720 l 298 720 q 232 691 252 720 q 218 609 218 671 l 218 287 q 226 188 218 243 q 255 101 234 132 q 315 50 276 70 q 410 29 354 29 q 540 61 483 29 q 618 142 597 93 q 640 309 640 192 l 640 609 q 625 696 640 679 q 562 720 604 720 l 533 720 m 524 981 l 363 793 l 345 793 l 402 981 l 524 981 z "},"Û":{"ha":808,"x_min":6,"x_max":795,"o":"m 533 720 l 533 741 l 795 741 l 795 720 l 768 720 q 701 684 724 720 q 689 605 689 667 l 689 304 q 667 132 689 193 q 580 26 645 71 q 404 -18 515 -18 q 220 24 283 -18 q 131 138 157 66 q 113 320 113 186 l 113 609 q 95 699 113 677 q 34 720 76 720 l 6 720 l 6 741 l 326 741 l 326 720 l 298 720 q 232 691 252 720 q 218 609 218 671 l 218 287 q 226 188 218 243 q 255 101 234 132 q 315 50 276 70 q 410 29 354 29 q 540 61 483 29 q 618 142 597 93 q 640 309 640 192 l 640 609 q 625 696 640 679 q 562 720 604 720 l 533 720 m 377 979 l 478 979 l 582 798 l 565 798 l 416 914 l 290 798 l 274 798 l 377 979 z "},"Ü":{"ha":808,"x_min":6,"x_max":795,"o":"m 533 720 l 533 741 l 795 741 l 795 720 l 768 720 q 701 684 724 720 q 689 605 689 667 l 689 304 q 667 132 689 193 q 580 26 645 71 q 404 -18 515 -18 q 220 24 283 -18 q 131 138 157 66 q 113 320 113 186 l 113 609 q 95 699 113 677 q 34 720 76 720 l 6 720 l 6 741 l 326 741 l 326 720 l 298 720 q 232 691 252 720 q 218 609 218 671 l 218 287 q 226 188 218 243 q 255 101 234 132 q 315 50 276 70 q 410 29 354 29 q 540 61 483 29 q 618 142 597 93 q 640 309 640 192 l 640 609 q 625 696 640 679 q 562 720 604 720 l 533 720 m 524 932 q 566 915 549 932 q 583 873 583 898 q 566 831 583 848 q 524 814 549 814 q 482 831 500 814 q 465 873 465 848 q 482 915 465 898 q 524 932 500 932 m 332 932 q 374 915 357 932 q 391 873 391 898 q 374 831 391 848 q 332 814 356 814 q 290 831 307 814 q 273 873 273 848 q 290 915 273 898 q 332 932 307 932 z "},"Ý":{"ha":808,"x_min":10,"x_max":791,"o":"m 533 741 l 791 741 l 791 720 l 777 720 q 735 708 763 720 q 686 672 708 695 q 631 595 663 648 l 452 314 l 452 128 q 467 43 452 60 q 533 20 488 20 l 557 20 l 557 0 l 242 0 l 242 20 l 269 20 q 335 49 315 20 q 347 128 347 66 l 347 304 l 144 614 q 95 682 108 668 q 42 715 83 696 q 10 720 31 720 l 10 741 l 327 741 l 327 720 l 311 720 q 263 708 285 720 q 242 672 242 696 q 275 601 242 652 l 430 363 l 575 591 q 608 667 608 642 q 600 694 608 682 q 577 713 592 707 q 533 720 562 720 l 533 741 m 544 981 l 382 793 l 364 793 l 422 981 l 544 981 z "},"Þ":{"ha":622,"x_min":20,"x_max":578,"o":"m 229 572 l 270 572 q 392 566 351 572 q 490 530 451 555 q 554 464 529 505 q 578 371 578 422 q 563 293 578 329 q 520 232 547 258 q 460 191 494 206 q 372 169 426 176 q 267 166 352 166 l 229 166 l 229 133 q 248 41 229 62 q 313 20 267 20 l 335 20 l 335 0 l 20 0 l 20 20 l 41 20 q 113 51 91 20 q 124 131 124 66 l 124 605 q 118 682 124 667 q 92 708 112 696 q 41 720 71 720 l 20 720 l 20 741 l 335 741 l 335 720 l 313 720 q 262 707 290 720 q 237 681 245 700 q 229 608 229 662 l 229 572 m 229 530 l 229 205 l 254 205 q 357 220 320 205 q 430 279 406 241 q 453 370 453 318 q 436 445 453 410 q 392 499 419 479 q 330 525 364 518 q 256 530 309 530 l 229 530 z "},"ß":{"ha":559,"x_min":19,"x_max":523,"o":"m 19 0 l 19 20 q 66 31 52 22 q 85 56 80 40 q 91 123 91 71 l 91 528 q 142 720 91 663 q 286 777 193 777 q 426 726 374 777 q 478 599 478 676 q 449 500 478 541 q 374 448 427 471 q 485 372 448 427 q 523 231 523 318 q 473 64 523 136 q 340 -7 424 -7 q 264 19 292 -7 q 235 81 235 45 q 247 117 235 104 q 279 129 259 129 q 312 117 300 129 q 323 85 323 105 q 321 68 323 77 q 318 49 318 55 q 326 31 318 39 q 349 24 334 24 q 402 52 381 24 q 430 170 430 91 q 390 351 430 284 q 269 422 350 417 l 269 454 q 357 488 327 454 q 387 602 387 522 q 358 708 387 675 q 281 741 329 741 q 210 706 237 741 q 182 566 182 671 l 182 0 l 19 0 z "},"à":{"ha":496,"x_min":40,"x_max":494,"o":"m 318 72 q 222 3 241 13 q 159 -10 192 -10 q 74 25 107 -10 q 40 119 40 60 q 56 182 40 155 q 134 252 79 219 q 318 332 189 284 l 318 351 q 294 454 318 426 q 225 481 271 481 q 171 463 191 481 q 150 420 150 444 l 151 389 q 138 350 151 363 q 105 336 125 336 q 72 351 85 336 q 59 389 59 365 q 107 475 59 436 q 242 515 155 515 q 351 492 309 515 q 399 439 383 475 q 408 343 408 416 l 408 174 q 411 86 408 102 q 420 64 414 70 q 435 59 427 59 q 450 63 444 59 q 494 102 461 70 l 494 72 q 377 -9 433 -9 q 335 9 351 -9 q 318 72 319 27 m 318 108 l 318 298 q 212 252 236 265 q 150 201 169 228 q 132 144 132 175 q 155 79 132 105 q 209 53 178 53 q 318 108 250 53 m 142 759 l 264 759 l 321 570 l 302 570 l 142 759 z "},"á":{"ha":496,"x_min":40,"x_max":494,"o":"m 318 72 q 222 3 241 13 q 159 -10 192 -10 q 74 25 107 -10 q 40 119 40 60 q 56 182 40 155 q 134 252 79 219 q 318 332 189 284 l 318 351 q 294 454 318 426 q 225 481 271 481 q 171 463 191 481 q 150 420 150 444 l 151 389 q 138 350 151 363 q 105 336 125 336 q 72 351 85 336 q 59 389 59 365 q 107 475 59 436 q 242 515 155 515 q 351 492 309 515 q 399 439 383 475 q 408 343 408 416 l 408 174 q 411 86 408 102 q 420 64 414 70 q 435 59 427 59 q 450 63 444 59 q 494 102 461 70 l 494 72 q 377 -9 433 -9 q 335 9 351 -9 q 318 72 319 27 m 318 108 l 318 298 q 212 252 236 265 q 150 201 169 228 q 132 144 132 175 q 155 79 132 105 q 209 53 178 53 q 318 108 250 53 m 372 759 l 211 570 l 193 570 l 250 759 l 372 759 z "},"â":{"ha":496,"x_min":40,"x_max":494,"o":"m 318 72 q 222 3 241 13 q 159 -10 192 -10 q 74 25 107 -10 q 40 119 40 60 q 56 182 40 155 q 134 252 79 219 q 318 332 189 284 l 318 351 q 294 454 318 426 q 225 481 271 481 q 171 463 191 481 q 150 420 150 444 l 151 389 q 138 350 151 363 q 105 336 125 336 q 72 351 85 336 q 59 389 59 365 q 107 475 59 436 q 242 515 155 515 q 351 492 309 515 q 399 439 383 475 q 408 343 408 416 l 408 174 q 411 86 408 102 q 420 64 414 70 q 435 59 427 59 q 450 63 444 59 q 494 102 461 70 l 494 72 q 377 -9 433 -9 q 335 9 351 -9 q 318 72 319 27 m 318 108 l 318 298 q 212 252 236 265 q 150 201 169 228 q 132 144 132 175 q 155 79 132 105 q 209 53 178 53 q 318 108 250 53 m 199 756 l 300 756 l 404 575 l 387 575 l 238 692 l 113 575 l 96 575 l 199 756 z "},"ã":{"ha":496,"x_min":40,"x_max":494,"o":"m 318 72 q 222 3 241 13 q 159 -10 192 -10 q 74 25 107 -10 q 40 119 40 60 q 56 182 40 155 q 134 252 79 219 q 318 332 189 284 l 318 351 q 294 454 318 426 q 225 481 271 481 q 171 463 191 481 q 150 420 150 444 l 151 389 q 138 350 151 363 q 105 336 125 336 q 72 351 85 336 q 59 389 59 365 q 107 475 59 436 q 242 515 155 515 q 351 492 309 515 q 399 439 383 475 q 408 343 408 416 l 408 174 q 411 86 408 102 q 420 64 414 70 q 435 59 427 59 q 450 63 444 59 q 494 102 461 70 l 494 72 q 377 -9 433 -9 q 335 9 351 -9 q 318 72 319 27 m 318 108 l 318 298 q 212 252 236 265 q 150 201 169 228 q 132 144 132 175 q 155 79 132 105 q 209 53 178 53 q 318 108 250 53 m 93 599 l 76 599 q 107 707 78 673 q 178 741 136 741 q 219 733 201 741 q 289 694 244 724 q 356 665 334 665 q 387 679 373 665 q 408 741 400 694 l 425 741 q 411 660 425 690 q 372 613 397 630 q 321 597 347 597 q 214 640 278 597 q 168 669 180 664 q 144 673 155 673 q 109 654 121 673 q 93 599 102 645 z "},"ä":{"ha":496,"x_min":40,"x_max":494,"o":"m 318 72 q 222 3 241 13 q 159 -10 192 -10 q 74 25 107 -10 q 40 119 40 60 q 56 182 40 155 q 134 252 79 219 q 318 332 189 284 l 318 351 q 294 454 318 426 q 225 481 271 481 q 171 463 191 481 q 150 420 150 444 l 151 389 q 138 350 151 363 q 105 336 125 336 q 72 351 85 336 q 59 389 59 365 q 107 475 59 436 q 242 515 155 515 q 351 492 309 515 q 399 439 383 475 q 408 343 408 416 l 408 174 q 411 86 408 102 q 420 64 414 70 q 435 59 427 59 q 450 63 444 59 q 494 102 461 70 l 494 72 q 377 -9 433 -9 q 335 9 351 -9 q 318 72 319 27 m 318 108 l 318 298 q 212 252 236 265 q 150 201 169 228 q 132 144 132 175 q 155 79 132 105 q 209 53 178 53 q 318 108 250 53 m 346 730 q 388 712 370 730 q 405 671 405 695 q 388 629 405 646 q 346 612 370 612 q 304 629 321 612 q 286 671 286 646 q 304 712 286 695 q 346 730 321 730 m 153 730 q 196 712 178 730 q 213 671 213 695 q 195 629 213 646 q 154 612 178 612 q 112 629 129 612 q 94 671 94 646 q 112 712 94 695 q 153 730 129 730 z "},"å":{"ha":496,"x_min":40,"x_max":494,"o":"m 318 72 q 222 3 241 13 q 159 -10 192 -10 q 74 25 107 -10 q 40 119 40 60 q 56 182 40 155 q 134 252 79 219 q 318 332 189 284 l 318 351 q 294 454 318 426 q 225 481 271 481 q 171 463 191 481 q 150 420 150 444 l 151 389 q 138 350 151 363 q 105 336 125 336 q 72 351 85 336 q 59 389 59 365 q 107 475 59 436 q 242 515 155 515 q 351 492 309 515 q 399 439 383 475 q 408 343 408 416 l 408 174 q 411 86 408 102 q 420 64 414 70 q 435 59 427 59 q 450 63 444 59 q 494 102 461 70 l 494 72 q 377 -9 433 -9 q 335 9 351 -9 q 318 72 319 27 m 318 108 l 318 298 q 212 252 236 265 q 150 201 169 228 q 132 144 132 175 q 155 79 132 105 q 209 53 178 53 q 318 108 250 53 m 250 779 q 324 748 294 779 q 355 675 355 718 q 324 600 355 631 q 250 570 294 570 q 176 600 207 570 q 146 675 146 631 q 176 748 146 718 q 250 779 206 779 m 250 741 q 202 722 222 741 q 183 675 183 703 q 202 627 183 647 q 250 608 222 608 q 297 627 278 608 q 317 675 317 647 q 297 722 317 703 q 250 741 278 741 z "},"æ":{"ha":746,"x_min":40,"x_max":712,"o":"m 401 309 q 400 269 400 281 q 439 113 400 159 q 540 66 479 66 q 636 100 593 66 q 694 186 663 121 l 712 175 q 627 27 692 86 q 510 -16 581 -16 q 409 10 451 -16 q 349 72 389 23 q 318 49 342 67 q 276 17 287 23 q 221 -7 250 2 q 161 -16 192 -16 q 75 21 111 -16 q 40 110 40 58 q 64 191 40 157 q 157 259 87 224 q 307 326 242 303 l 307 376 q 286 459 307 435 q 227 484 264 484 q 171 466 191 484 q 150 427 150 448 q 145 367 150 380 q 131 346 141 353 q 106 339 121 339 q 74 351 85 339 q 58 391 58 369 q 77 448 58 419 q 140 496 97 476 q 240 515 183 515 q 342 496 308 515 q 388 448 376 477 q 443 496 414 481 q 534 515 481 515 q 663 463 613 515 q 712 309 712 410 l 401 309 m 401 345 l 607 345 q 578 445 606 414 q 506 477 550 477 q 432 443 463 477 q 401 345 401 408 m 333 100 q 314 164 321 125 q 307 242 307 204 l 307 290 q 172 220 234 267 q 132 141 132 189 q 157 71 132 98 q 220 43 183 43 q 264 55 241 43 q 333 100 288 66 z "},"ç":{"ha":496,"x_min":38,"x_max":460,"o":"m 460 190 q 380 38 439 91 q 250 -16 321 -16 q 101 56 165 -16 q 38 250 38 127 q 108 441 38 368 q 277 515 178 515 q 398 476 351 515 q 446 395 446 437 q 432 361 446 374 q 395 349 418 349 q 346 369 363 349 q 334 413 337 380 q 312 462 331 445 q 259 478 292 478 q 171 438 204 478 q 127 296 127 385 q 171 138 127 207 q 290 70 214 70 q 385 106 343 70 q 444 197 416 132 l 460 190 m 257 9 l 290 9 l 262 -35 q 313 -64 296 -43 q 330 -114 330 -85 q 298 -183 330 -153 q 213 -213 265 -213 q 162 -209 193 -213 l 162 -186 q 188 -188 177 -188 q 235 -170 216 -188 q 254 -127 254 -151 q 242 -99 254 -111 q 210 -87 229 -87 q 196 -88 205 -87 l 257 9 z "},"è":{"ha":496,"x_min":41,"x_max":465,"o":"m 119 312 q 173 137 119 200 q 301 74 228 74 q 387 101 351 74 q 448 193 423 127 l 465 182 q 398 46 453 108 q 260 -16 343 -16 q 105 55 170 -16 q 41 243 41 125 q 107 444 41 372 q 273 515 173 515 q 411 460 357 515 q 465 312 465 405 l 119 312 m 119 343 l 351 343 q 339 411 348 391 q 298 459 326 441 q 242 477 271 477 q 161 441 197 477 q 119 343 125 406 m 155 759 l 277 759 l 335 570 l 316 570 l 155 759 z "},"é":{"ha":496,"x_min":41,"x_max":465,"o":"m 119 312 q 173 137 119 200 q 301 74 228 74 q 387 101 351 74 q 448 193 423 127 l 465 182 q 398 46 453 108 q 260 -16 343 -16 q 105 55 170 -16 q 41 243 41 125 q 107 444 41 372 q 273 515 173 515 q 411 460 357 515 q 465 312 465 405 l 119 312 m 119 343 l 351 343 q 339 411 348 391 q 298 459 326 441 q 242 477 271 477 q 161 441 197 477 q 119 343 125 406 m 380 759 l 218 570 l 200 570 l 258 759 l 380 759 z "},"ê":{"ha":496,"x_min":41,"x_max":465,"o":"m 119 312 q 173 137 119 200 q 301 74 228 74 q 387 101 351 74 q 448 193 423 127 l 465 182 q 398 46 453 108 q 260 -16 343 -16 q 105 55 170 -16 q 41 243 41 125 q 107 444 41 372 q 273 515 173 515 q 411 460 357 515 q 465 312 465 405 l 119 312 m 119 343 l 351 343 q 339 411 348 391 q 298 459 326 441 q 242 477 271 477 q 161 441 197 477 q 119 343 125 406 m 220 756 l 321 756 l 425 575 l 408 575 l 258 692 l 133 575 l 117 575 l 220 756 z "},"ë":{"ha":496,"x_min":41,"x_max":465,"o":"m 119 312 q 173 137 119 200 q 301 74 228 74 q 387 101 351 74 q 448 193 423 127 l 465 182 q 398 46 453 108 q 260 -16 343 -16 q 105 55 170 -16 q 41 243 41 125 q 107 444 41 372 q 273 515 173 515 q 411 460 357 515 q 465 312 465 405 l 119 312 m 119 343 l 351 343 q 339 411 348 391 q 298 459 326 441 q 242 477 271 477 q 161 441 197 477 q 119 343 125 406 m 366 730 q 408 712 391 730 q 425 671 425 695 q 408 629 425 646 q 366 612 391 612 q 324 629 342 612 q 307 671 307 646 q 324 712 307 695 q 366 730 342 730 m 174 730 q 216 712 199 730 q 233 671 233 695 q 216 629 233 646 q 174 612 198 612 q 132 629 149 612 q 115 671 115 646 q 132 712 115 695 q 174 730 149 730 z "},"ì":{"ha":311,"x_min":33,"x_max":283,"o":"m 207 515 l 207 113 q 214 51 207 66 q 234 27 221 35 q 283 20 248 20 l 283 0 l 41 0 l 41 20 q 90 27 77 20 q 110 50 102 34 q 117 113 117 66 l 117 306 q 112 411 117 387 q 100 435 108 429 q 77 442 92 442 q 41 434 62 442 l 33 454 l 183 515 l 207 515 m 43 759 l 165 759 l 222 570 l 203 570 l 43 759 z "},"í":{"ha":311,"x_min":33,"x_max":283,"o":"m 207 515 l 207 113 q 214 51 207 66 q 234 27 221 35 q 283 20 248 20 l 283 0 l 41 0 l 41 20 q 90 27 77 20 q 110 50 102 34 q 117 113 117 66 l 117 306 q 112 411 117 387 q 100 435 108 429 q 77 442 92 442 q 41 434 62 442 l 33 454 l 183 515 l 207 515 m 273 759 l 111 570 l 93 570 l 151 759 l 273 759 z "},"î":{"ha":311,"x_min":7,"x_max":315,"o":"m 207 515 l 207 113 q 214 51 207 66 q 234 27 221 35 q 283 20 248 20 l 283 0 l 41 0 l 41 20 q 90 27 77 20 q 110 50 102 34 q 117 113 117 66 l 117 306 q 112 411 117 387 q 100 435 108 429 q 77 442 92 442 q 41 434 62 442 l 33 454 l 183 515 l 207 515 m 111 756 l 212 756 l 315 575 l 298 575 l 149 692 l 24 575 l 7 575 l 111 756 z "},"ï":{"ha":311,"x_min":2,"x_max":313,"o":"m 207 515 l 207 113 q 214 51 207 66 q 234 27 221 35 q 283 20 248 20 l 283 0 l 41 0 l 41 20 q 90 27 77 20 q 110 50 102 34 q 117 113 117 66 l 117 306 q 112 411 117 387 q 100 435 108 429 q 77 442 92 442 q 41 434 62 442 l 33 454 l 183 515 l 207 515 m 254 730 q 295 712 278 730 q 313 671 313 695 q 295 629 313 646 q 254 612 278 612 q 212 629 229 612 q 194 671 194 646 q 212 712 194 695 q 254 730 229 730 m 61 730 q 103 712 86 730 q 121 671 121 695 q 103 629 121 646 q 62 612 85 612 q 19 629 37 612 q 2 671 2 646 q 19 712 2 695 q 61 730 37 730 z "},"ð":{"ha":559,"x_min":37,"x_max":518,"o":"m 256 638 l 121 564 l 105 595 l 232 667 q 178 718 196 703 q 130 753 159 733 l 144 777 q 279 692 210 743 l 415 768 l 433 738 l 309 667 q 465 468 412 576 q 518 259 518 359 q 487 119 518 183 q 398 20 455 56 q 273 -16 342 -16 q 106 57 175 -16 q 37 241 37 130 q 113 440 37 356 q 267 511 177 511 q 315 503 293 511 q 359 478 332 498 q 256 638 315 568 m 262 477 q 174 433 209 477 q 138 283 138 389 q 160 146 138 209 q 220 53 182 83 q 298 23 258 23 q 383 66 349 23 q 417 205 417 109 q 374 403 417 329 q 262 477 331 477 z "},"ñ":{"ha":559,"x_min":7,"x_max":554,"o":"m 180 409 q 349 515 269 515 q 419 494 389 515 q 466 427 448 474 q 477 326 477 394 l 477 113 q 486 49 477 66 q 505 27 492 35 q 554 20 518 20 l 554 0 l 307 0 l 307 20 l 317 20 q 366 30 352 20 q 385 62 380 41 q 388 113 388 70 l 388 318 q 370 417 388 386 q 310 448 352 448 q 180 376 245 448 l 180 113 q 186 50 180 62 q 208 27 195 35 q 262 20 221 20 l 262 0 l 15 0 l 15 20 l 26 20 q 77 39 64 20 q 91 113 91 58 l 91 298 q 87 408 91 389 q 74 435 83 428 q 52 442 66 442 q 15 434 36 442 l 7 454 l 157 515 l 180 515 l 180 409 m 123 599 l 106 599 q 137 707 108 673 q 208 741 165 741 q 249 733 231 741 q 319 694 274 724 q 386 665 363 665 q 416 679 403 665 q 437 741 430 694 l 454 741 q 441 660 454 690 q 402 613 427 630 q 351 597 376 597 q 243 640 308 597 q 197 669 210 664 q 174 673 185 673 q 138 654 151 673 q 123 599 132 645 z "},"ò":{"ha":559,"x_min":38,"x_max":520,"o":"m 279 515 q 462 429 393 515 q 520 259 520 355 q 488 123 520 192 q 399 20 456 55 q 273 -16 343 -16 q 94 75 161 -16 q 38 245 38 151 q 72 382 38 314 q 161 482 106 450 q 279 515 217 515 m 262 479 q 204 462 234 479 q 157 402 175 445 q 139 291 139 359 q 182 103 139 182 q 297 24 226 24 q 384 67 350 24 q 418 217 418 111 q 361 427 418 351 q 262 479 323 479 m 164 759 l 286 759 l 344 570 l 325 570 l 164 759 z "},"ó":{"ha":559,"x_min":38,"x_max":520,"o":"m 279 515 q 462 429 393 515 q 520 259 520 355 q 488 123 520 192 q 399 20 456 55 q 273 -16 343 -16 q 94 75 161 -16 q 38 245 38 151 q 72 382 38 314 q 161 482 106 450 q 279 515 217 515 m 262 479 q 204 462 234 479 q 157 402 175 445 q 139 291 139 359 q 182 103 139 182 q 297 24 226 24 q 384 67 350 24 q 418 217 418 111 q 361 427 418 351 q 262 479 323 479 m 395 759 l 233 570 l 215 570 l 273 759 l 395 759 z "},"ô":{"ha":559,"x_min":38,"x_max":520,"o":"m 279 515 q 462 429 393 515 q 520 259 520 355 q 488 123 520 192 q 399 20 456 55 q 273 -16 343 -16 q 94 75 161 -16 q 38 245 38 151 q 72 382 38 314 q 161 482 106 450 q 279 515 217 515 m 262 479 q 204 462 234 479 q 157 402 175 445 q 139 291 139 359 q 182 103 139 182 q 297 24 226 24 q 384 67 350 24 q 418 217 418 111 q 361 427 418 351 q 262 479 323 479 m 235 756 l 336 756 l 440 575 l 423 575 l 274 692 l 149 575 l 132 575 l 235 756 z "},"õ":{"ha":559,"x_min":38,"x_max":520,"o":"m 279 515 q 462 429 393 515 q 520 259 520 355 q 488 123 520 192 q 399 20 456 55 q 273 -16 343 -16 q 94 75 161 -16 q 38 245 38 151 q 72 382 38 314 q 161 482 106 450 q 279 515 217 515 m 262 479 q 204 462 234 479 q 157 402 175 445 q 139 291 139 359 q 182 103 139 182 q 297 24 226 24 q 384 67 350 24 q 418 217 418 111 q 361 427 418 351 q 262 479 323 479 m 122 599 l 105 599 q 136 707 107 673 q 208 741 165 741 q 248 733 230 741 q 318 694 273 724 q 385 665 363 665 q 416 679 402 665 q 437 741 429 694 l 454 741 q 440 660 454 690 q 401 613 427 630 q 350 597 376 597 q 243 640 307 597 q 197 669 209 664 q 173 673 184 673 q 138 654 151 673 q 122 599 132 645 z "},"ö":{"ha":559,"x_min":38,"x_max":520,"o":"m 279 515 q 462 429 393 515 q 520 259 520 355 q 488 123 520 192 q 399 20 456 55 q 273 -16 343 -16 q 94 75 161 -16 q 38 245 38 151 q 72 382 38 314 q 161 482 106 450 q 279 515 217 515 m 262 479 q 204 462 234 479 q 157 402 175 445 q 139 291 139 359 q 182 103 139 182 q 297 24 226 24 q 384 67 350 24 q 418 217 418 111 q 361 427 418 351 q 262 479 323 479 m 375 730 q 417 712 399 730 q 434 671 434 695 q 417 629 434 646 q 375 612 399 612 q 333 629 351 612 q 315 671 315 646 q 333 712 315 695 q 375 730 351 730 m 182 730 q 225 712 208 730 q 242 671 242 695 q 224 629 242 646 q 183 612 207 612 q 141 629 158 612 q 123 671 123 646 q 141 712 123 695 q 182 730 158 730 z "},"ø":{"ha":559,"x_min":21,"x_max":538,"o":"m 440 454 l 513 534 l 538 511 l 464 428 q 522 258 522 354 q 490 124 522 193 q 402 20 458 55 q 277 -16 347 -16 q 196 -1 231 -16 q 121 47 161 13 l 47 -37 l 21 -13 l 98 74 q 56 157 71 108 q 41 248 41 205 q 74 379 41 313 q 162 480 106 446 q 284 515 218 515 q 365 500 329 515 q 440 454 401 486 m 385 393 q 330 460 357 441 q 267 479 302 479 q 177 435 213 479 q 142 290 142 391 q 163 147 142 222 l 385 393 m 399 357 l 180 111 q 234 42 208 61 q 298 24 261 24 q 387 67 353 24 q 421 220 421 111 q 399 357 421 286 z "},"ù":{"ha":559,"x_min":1,"x_max":557,"o":"m 473 500 l 473 197 q 477 91 473 111 q 491 64 481 71 q 511 56 500 56 q 550 66 528 56 l 557 46 l 408 -16 l 383 -16 l 383 91 q 285 3 319 21 q 214 -16 251 -16 q 141 9 172 -16 q 98 72 110 33 q 85 180 85 110 l 85 403 q 78 452 85 438 q 56 473 71 466 q 1 480 41 480 l 1 500 l 176 500 l 176 165 q 201 74 176 96 q 259 52 225 52 q 313 66 283 52 q 383 123 342 81 l 383 406 q 368 464 383 449 q 303 480 352 479 l 303 500 l 473 500 m 168 759 l 290 759 l 347 570 l 328 570 l 168 759 z "},"ú":{"ha":559,"x_min":1,"x_max":557,"o":"m 473 500 l 473 197 q 477 91 473 111 q 491 64 481 71 q 511 56 500 56 q 550 66 528 56 l 557 46 l 408 -16 l 383 -16 l 383 91 q 285 3 319 21 q 214 -16 251 -16 q 141 9 172 -16 q 98 72 110 33 q 85 180 85 110 l 85 403 q 78 452 85 438 q 56 473 71 466 q 1 480 41 480 l 1 500 l 176 500 l 176 165 q 201 74 176 96 q 259 52 225 52 q 313 66 283 52 q 383 123 342 81 l 383 406 q 368 464 383 449 q 303 480 352 479 l 303 500 l 473 500 m 382 759 l 220 570 l 202 570 l 260 759 l 382 759 z "},"û":{"ha":559,"x_min":1,"x_max":557,"o":"m 473 500 l 473 197 q 477 91 473 111 q 491 64 481 71 q 511 56 500 56 q 550 66 528 56 l 557 46 l 408 -16 l 383 -16 l 383 91 q 285 3 319 21 q 214 -16 251 -16 q 141 9 172 -16 q 98 72 110 33 q 85 180 85 110 l 85 403 q 78 452 85 438 q 56 473 71 466 q 1 480 41 480 l 1 500 l 176 500 l 176 165 q 201 74 176 96 q 259 52 225 52 q 313 66 283 52 q 383 123 342 81 l 383 406 q 368 464 383 449 q 303 480 352 479 l 303 500 l 473 500 m 231 756 l 332 756 l 435 575 l 418 575 l 269 692 l 144 575 l 127 575 l 231 756 z "},"ü":{"ha":559,"x_min":1,"x_max":557,"o":"m 473 500 l 473 197 q 477 91 473 111 q 491 64 481 71 q 511 56 500 56 q 550 66 528 56 l 557 46 l 408 -16 l 383 -16 l 383 91 q 285 3 319 21 q 214 -16 251 -16 q 141 9 172 -16 q 98 72 110 33 q 85 180 85 110 l 85 403 q 78 452 85 438 q 56 473 71 466 q 1 480 41 480 l 1 500 l 176 500 l 176 165 q 201 74 176 96 q 259 52 225 52 q 313 66 283 52 q 383 123 342 81 l 383 406 q 368 464 383 449 q 303 480 352 479 l 303 500 l 473 500 m 375 730 q 417 712 399 730 q 434 671 434 695 q 417 629 434 646 q 375 612 399 612 q 333 629 351 612 q 315 671 315 646 q 333 712 315 695 q 375 730 351 730 m 182 730 q 225 712 208 730 q 242 671 242 695 q 224 629 242 646 q 183 612 207 612 q 141 629 158 612 q 123 671 123 646 q 141 712 123 695 q 182 730 158 730 z "},"ý":{"ha":559,"x_min":7,"x_max":553,"o":"m 7 500 l 239 500 l 239 480 l 228 480 q 191 469 203 480 q 179 443 179 458 q 197 384 179 421 l 319 132 l 431 408 q 440 452 440 430 q 436 467 440 462 q 422 476 432 473 q 390 480 413 480 l 390 500 l 553 500 l 553 480 q 522 471 532 477 q 497 446 511 465 q 479 405 492 439 l 275 -94 q 198 -204 245 -167 q 106 -241 150 -241 q 53 -223 74 -241 q 32 -180 32 -204 q 47 -143 32 -157 q 88 -130 62 -130 q 138 -141 106 -130 q 165 -150 159 -150 q 200 -133 181 -150 q 239 -67 220 -116 l 275 20 l 96 397 q 69 439 87 414 q 47 465 56 458 q 7 480 35 473 l 7 500 m 399 759 l 238 570 l 220 570 l 277 759 l 399 759 z "},"þ":{"ha":559,"x_min":-4,"x_max":521,"o":"m -1 714 l 153 777 l 174 777 l 174 396 q 251 488 212 462 q 334 515 290 515 q 459 456 409 515 q 521 268 521 384 q 446 54 521 138 q 292 -16 385 -16 q 222 -4 252 -16 q 174 29 201 4 l 174 -123 q 180 -188 174 -174 q 202 -210 186 -201 q 258 -218 217 -218 l 258 -239 l -4 -239 l -4 -218 l 9 -218 q 61 -207 40 -219 q 77 -188 71 -201 q 83 -120 83 -174 l 83 616 q 78 678 83 665 q 64 698 74 692 q 39 705 55 705 q 5 696 26 705 l -1 714 m 174 363 l 174 177 q 178 97 174 116 q 216 42 186 66 q 291 18 245 18 q 379 60 346 18 q 424 217 424 116 q 374 393 424 332 q 290 435 338 435 q 239 422 264 435 q 174 363 219 413 z "},"ÿ":{"ha":559,"x_min":7,"x_max":553,"o":"m 7 500 l 239 500 l 239 480 l 228 480 q 191 469 203 480 q 179 443 179 458 q 197 384 179 421 l 319 132 l 431 408 q 440 452 440 430 q 436 467 440 462 q 422 476 432 473 q 390 480 413 480 l 390 500 l 553 500 l 553 480 q 522 471 532 477 q 497 446 511 465 q 479 405 492 439 l 275 -94 q 198 -204 245 -167 q 106 -241 150 -241 q 53 -223 74 -241 q 32 -180 32 -204 q 47 -143 32 -157 q 88 -130 62 -130 q 138 -141 106 -130 q 165 -150 159 -150 q 200 -133 181 -150 q 239 -67 220 -116 l 275 20 l 96 397 q 69 439 87 414 q 47 465 56 458 q 7 480 35 473 l 7 500 m 396 730 q 438 712 420 730 q 455 671 455 695 q 438 629 455 646 q 396 612 420 612 q 354 629 372 612 q 336 671 336 646 q 354 712 336 695 q 396 730 372 730 m 203 730 q 246 712 229 730 q 263 671 263 695 q 245 629 263 646 q 204 612 228 612 q 162 629 179 612 q 144 671 144 646 q 162 712 144 695 q 203 730 179 730 z "},"₨":{"ha":1166,"x_min":19,"x_max":1127,"o":"m 755 0 l 558 0 l 307 346 q 262 345 279 345 q 247 346 255 345 q 230 346 239 346 l 230 131 q 245 44 230 61 q 307 20 266 20 l 336 20 l 336 0 l 19 0 l 19 20 l 47 20 q 114 51 94 20 q 125 131 125 68 l 125 609 q 111 696 125 679 q 47 720 89 720 l 19 720 l 19 741 l 289 741 q 463 723 407 741 q 558 660 519 706 q 597 550 597 614 q 552 431 597 481 q 414 360 508 381 l 567 148 q 657 51 620 75 q 755 20 695 26 l 755 0 m 230 380 q 248 380 240 380 q 260 380 256 380 q 420 426 366 380 q 474 543 474 472 q 431 655 474 612 q 315 699 387 699 q 230 688 284 699 l 230 380 m 1089 515 l 1089 345 l 1072 345 q 1018 454 1050 425 q 935 483 985 483 q 873 463 897 483 q 850 418 850 442 q 867 366 850 387 q 937 318 884 343 l 1016 279 q 1127 136 1127 225 q 1075 26 1127 68 q 960 -16 1023 -16 q 855 1 914 -16 q 825 7 837 7 q 806 -7 813 7 l 788 -7 l 788 171 l 806 171 q 864 56 821 94 q 961 17 907 17 q 1022 39 998 17 q 1046 92 1046 61 q 1019 156 1046 130 q 914 220 993 181 q 810 292 835 260 q 786 370 786 323 q 828 473 786 432 q 937 515 870 515 q 1009 503 967 515 q 1046 494 1037 494 q 1060 498 1055 494 q 1072 515 1065 502 l 1089 515 z "},"ॻ":{"ha":856,"x_min":-4,"x_max":903,"o":"m 233 420 q 176 384 199 420 q 152 298 152 347 q 176 213 152 250 q 233 176 200 176 q 291 212 267 176 q 315 298 315 247 q 292 386 315 351 q 233 420 269 420 m 633 651 l 288 651 q 461 565 391 633 q 532 407 532 497 q 444 215 532 294 q 233 136 356 136 q 90 184 150 136 q 30 301 30 233 q 84 419 30 370 q 213 468 138 468 q 329 419 281 468 q 376 298 376 370 l 382 298 q 410 407 410 332 q 343 566 410 498 q 179 651 277 633 l -4 651 l -4 705 l 903 705 l 903 651 l 755 651 l 755 81 q 784 43 755 59 q 850 27 813 27 l 850 0 l 538 0 l 538 27 q 605 43 576 27 q 633 81 633 58 l 633 651 m 571 7 m 715 -121 l 167 -121 l 167 -67 l 715 -67 l 715 -121 z "},"ॼ":{"ha":905,"x_min":-4,"x_max":952,"o":"m 682 448 l 452 448 q 551 374 515 425 q 587 258 587 323 q 518 95 587 162 q 350 27 448 27 q 125 153 218 27 q 31 454 31 279 l 72 454 q 151 227 83 325 q 316 129 218 129 q 422 172 379 129 q 465 278 465 216 q 418 399 465 349 q 302 448 371 448 l 275 448 l 275 489 l 682 489 l 682 651 l -4 651 l -4 705 l 952 705 l 952 651 l 804 651 l 804 81 q 833 43 804 59 q 899 27 862 27 l 899 0 l 587 0 l 587 27 q 654 43 625 27 q 682 81 682 58 l 682 448 m 747 -121 l 199 -121 l 199 -67 l 747 -67 l 747 -121 z "},"ॾ":{"ha":766,"x_min":-4,"x_max":814,"o":"m 814 651 l 635 651 l 635 502 l 404 502 q 313 485 343 502 q 282 434 282 468 q 316 383 282 400 q 418 366 350 366 l 499 366 q 634 321 578 366 q 689 210 689 276 q 601 62 689 123 q 391 0 513 0 q 141 109 245 0 q 24 373 38 217 l 65 380 q 174 153 77 245 q 397 61 270 61 q 518 102 469 61 q 567 203 567 143 q 534 286 567 252 q 450 319 501 319 l 343 319 q 212 354 263 319 q 160 448 160 389 q 211 527 160 497 q 343 556 261 556 l 513 556 l 513 651 l -4 651 l -4 705 l 814 705 l 814 651 m 655 -121 l 107 -121 l 107 -67 l 655 -67 l 655 -121 z "},"ॿ":{"ha":696,"x_min":-4,"x_max":743,"o":"m 412 156 l 209 461 q 161 319 161 421 q 217 183 161 234 q 333 133 273 133 q 412 156 373 133 m 473 488 q 362 525 420 525 q 250 495 299 525 l 460 176 l 473 183 l 473 488 m 473 149 q 297 81 391 81 q 115 153 191 81 q 39 326 39 225 q 114 498 39 427 q 297 570 189 570 q 473 515 408 570 l 473 651 l -4 651 l -4 705 l 743 705 l 743 651 l 595 651 l 595 81 q 624 43 595 59 q 690 27 653 27 l 690 0 l 378 0 l 378 27 q 445 43 416 27 q 473 81 473 58 l 473 149 m 625 -121 l 77 -121 l 77 -67 l 625 -67 l 625 -121 z "},"ॱ":{"ha":391,"x_min":159,"x_max":279,"o":"m 219 616 q 177 634 195 616 q 159 676 159 652 q 177 718 159 701 q 219 736 195 736 q 261 718 243 736 q 279 676 279 701 q 261 634 279 652 q 219 616 243 616 z "},"ॲ":{"ha":846,"x_min":26,"x_max":894,"o":"m 26 298 l 66 298 q 124 136 66 204 q 263 68 182 68 q 363 108 321 68 q 406 206 406 148 q 364 306 406 265 q 263 346 322 346 l 216 346 l 216 387 l 263 387 q 354 422 316 387 q 392 511 392 458 q 354 601 392 565 q 263 637 317 637 q 180 609 217 637 q 127 536 143 581 l 94 556 q 171 654 115 616 q 297 692 227 692 q 450 640 387 692 q 514 515 514 589 q 479 422 514 462 q 392 373 444 382 l 392 366 q 499 308 458 355 q 541 197 541 260 q 465 57 541 115 q 283 0 389 0 q 102 88 178 0 q 26 298 26 176 m 745 651 l 745 95 q 773 47 745 67 q 840 27 802 27 l 840 0 l 528 0 l 528 27 q 594 47 566 27 q 623 95 623 66 l 623 346 l 541 346 l 541 393 l 623 393 l 623 651 l 541 651 l 541 705 l 894 705 l 894 651 l 745 651 m 745 990 q 662 837 745 900 q 460 773 579 773 q 259 837 343 773 q 176 990 176 901 l 311 990 q 353 866 311 918 q 460 814 395 814 q 568 866 526 814 q 610 990 610 918 l 745 990 z "},"ʼ":{"ha":384,"x_min":136,"x_max":302,"o":"m 161 460 l 161 485 q 237 547 217 518 q 251 597 251 568 q 245 622 251 614 q 231 631 239 631 q 215 627 225 631 q 191 622 201 622 q 153 638 170 622 q 136 679 136 654 q 153 722 136 706 q 208 743 176 743 q 273 712 244 743 q 302 635 302 681 q 254 517 302 570 q 161 460 222 482 z "}}}
